<?xml version="1.0" encoding="UTF-8"?>
<!DOCTYPE svg PUBLIC "-//W3C//DTD SVG 1.1//EN" "http://www.w3.org/Graphics/SVG/1.1/DTD/svg11.dtd">
<!-- Creator: CorelDRAW -->
<svg xmlns="http://www.w3.org/2000/svg" xml:space="preserve" width="254mm" height="38.1mm" style="shape-rendering:geometricPrecision; text-rendering:geometricPrecision; image-rendering:optimizeQuality; fill-rule:evenodd; clip-rule:evenodd"
viewBox="0 0 254 38.1"
 xmlns:xlink="http://www.w3.org/1999/xlink">
 <defs>
  <style type="text/css">
   <![CDATA[
    .str4 {stroke:gray;stroke-width:0.2}
    .str1 {stroke:#B3B3B3;stroke-width:0.2}
    .str0 {stroke:#EAF2EF;stroke-width:0.2}
    .str2 {stroke:#B3B3B3;stroke-width:0.25}
    .str3 {stroke:#FF7F6E}
    .fil0 {fill:none}
    .fil1 {fill:white}
   ]]>
  </style>
 </defs>
 <g id="Camada_x0020_1">
  <metadata id="CorelCorpID_0Corel-Layer"/>
  <g id="_152759184">
   <circle id="_152756256" class="fil0 str0" cx="39.3192" cy="11.9047" r="2.7954"/>
   <circle id="_152753640" class="fil0 str0" cx="39.34" cy="12.2184" r="2.75046"/>
  </g>
  <path class="fil1 str1" d="M68.5749 12.207l0.0207 0c-0.0356,-0.1034 -0.0549,-0.2143 -0.0549,-0.3298 0,-0.5591 0.4531,-1.0123 1.0122,-1.0123 0.1067,0 0.2094,0.0165 0.3059,0.0471 0.1678,-0.5254 0.6598,-0.9058 1.2408,-0.9058 0.4504,0 0.8475,0.2287 1.0813,0.5763 0.0629,-0.0086 0.1271,-0.0131 0.1924,-0.0131 0.6285,0 1.1608,0.4111 1.343,0.9791 0.5324,0.0429 0.9511,0.4885 0.9511,1.032 0,0.5719 -0.4635,1.0354 -1.0354,1.0354 -0.0488,0 -0.0967,-0.0034 -0.1437,-0.0099l-4.5182 0c-0.0503,0.0111 -0.1026,0.017 -0.1563,0.017 -0.0537,0 -0.1059,-0.0059 -0.1563,-0.017l-0.0826 0 0 -0.0235c-0.2814,-0.0986 -0.4833,-0.3666 -0.4833,-0.6817 0,-0.3152 0.2019,-0.5832 0.4833,-0.6818l0 -0.012z"/>
  <path class="fil1 str1" d="M104.183 16.0881l0.0207 0c-0.0356,-0.1034 -0.0549,-0.2143 -0.0549,-0.3298 0,-0.5591 0.4531,-1.0123 1.0122,-1.0123 0.1067,0 0.2094,0.0165 0.3059,0.0471 0.1678,-0.5254 0.6598,-0.9058 1.2408,-0.9058 0.4504,0 0.8475,0.2287 1.0813,0.5763 0.0629,-0.0086 0.1271,-0.0131 0.1924,-0.0131 0.6285,0 1.1608,0.4111 1.343,0.9791 0.5324,0.0429 0.9511,0.4885 0.9511,1.032 0,0.5719 -0.4635,1.0354 -1.0354,1.0354 -0.0488,0 -0.0967,-0.0034 -0.1437,-0.0099l-4.5182 0c-0.0503,0.0111 -0.1026,0.017 -0.1563,0.017 -0.0537,0 -0.1059,-0.0059 -0.1563,-0.017l-0.0826 0 0 -0.0235c-0.2814,-0.0986 -0.4833,-0.3666 -0.4833,-0.6817 0,-0.3152 0.2019,-0.5832 0.4833,-0.6818l0 -0.012z"/>
  <path class="fil1 str1" d="M115.213 6.2041l0.0285 0c-0.0491,-0.1425 -0.0758,-0.2953 -0.0758,-0.4544 0,-0.7703 0.6245,-1.3948 1.3948,-1.3948 0.1469,0 0.2885,0.0228 0.4215,0.0649 0.2311,-0.7238 0.9091,-1.248 1.7096,-1.248 0.6206,0 1.1677,0.3151 1.4898,0.794 0.0867,-0.0118 0.1752,-0.018 0.2651,-0.018 0.866,0 1.5994,0.5665 1.8505,1.349 0.7336,0.0591 1.3105,0.6731 1.3105,1.422 0,0.7879 -0.6387,1.4267 -1.4267,1.4267 -0.0672,0 -0.1333,-0.0048 -0.198,-0.0138l-6.2253 0c-0.0694,0.0153 -0.1414,0.0235 -0.2154,0.0235 -0.074,0 -0.146,-0.0082 -0.2154,-0.0235l-0.1137 0 0 -0.0323c-0.3879,-0.1358 -0.666,-0.5051 -0.666,-0.9393 0,-0.4343 0.2781,-0.8035 0.666,-0.9394l0 -0.0166z"/>
  <path class="fil1 str1" d="M159.971 11.6367l0.0371 0c-0.0638,-0.1854 -0.0985,-0.3842 -0.0985,-0.5911 0,-1.0021 0.8122,-1.8144 1.8143,-1.8144 0.1911,0 0.3752,0.0296 0.5482,0.0844 0.3007,-0.9416 1.1826,-1.6234 2.2239,-1.6234 0.8073,0 1.5189,0.4099 1.938,1.0329 0.1127,-0.0154 0.2278,-0.0235 0.3448,-0.0235 1.1264,0 2.0805,0.7369 2.4071,1.7548 0.9543,0.0769 1.7047,0.8756 1.7047,1.8497 0,1.025 -0.8309,1.8559 -1.8559,1.8559 -0.0874,0 -0.1733,-0.0062 -0.2575,-0.0179l-8.0979 0c-0.0902,0.0199 -0.1839,0.0305 -0.2802,0.0305 -0.0962,0 -0.1899,-0.0106 -0.2801,-0.0305l-0.148 0 0 -0.042c-0.5045,-0.1768 -0.8663,-0.6571 -0.8663,-1.222 0,-0.5648 0.3618,-1.0452 0.8663,-1.2219l0 -0.0215z"/>
  <path class="fil1 str1" d="M218.132 17.111l0.0371 0c-0.0638,-0.1854 -0.0985,-0.3842 -0.0985,-0.5911 0,-1.0021 0.8122,-1.8144 1.8143,-1.8144 0.1911,0 0.3752,0.0296 0.5482,0.0844 0.3007,-0.9416 1.1826,-1.6234 2.2239,-1.6234 0.8073,0 1.5189,0.4099 1.938,1.0329 0.1127,-0.0154 0.2278,-0.0235 0.3448,-0.0235 1.1264,0 2.0805,0.7369 2.4071,1.7548 0.9543,0.0769 1.7047,0.8756 1.7047,1.8497 0,1.025 -0.8309,1.8559 -1.8559,1.8559 -0.0874,0 -0.1733,-0.0062 -0.2575,-0.0179l-8.0979 0c-0.0902,0.0199 -0.1839,0.0305 -0.2802,0.0305 -0.0962,0 -0.1899,-0.0106 -0.2801,-0.0305l-0.148 0 0 -0.042c-0.5045,-0.1768 -0.8663,-0.6571 -0.8663,-1.222 0,-0.5648 0.3618,-1.0452 0.8663,-1.2219l0 -0.0215z"/>
  <path class="fil1 str1" d="M215.374 18.8075l0.0371 0c-0.0638,-0.1854 -0.0985,-0.3842 -0.0985,-0.5911 0,-1.0021 0.8122,-1.8144 1.8143,-1.8144 0.1911,0 0.3752,0.0296 0.5482,0.0844 0.3007,-0.9416 1.1826,-1.6234 2.2239,-1.6234 0.8073,0 1.5189,0.4099 1.938,1.0329 0.1127,-0.0154 0.2278,-0.0235 0.3448,-0.0235 1.1264,0 2.0805,0.7369 2.4071,1.7548 0.9543,0.0769 1.7047,0.8756 1.7047,1.8497 0,1.025 -0.8309,1.8559 -1.8559,1.8559 -0.0874,0 -0.1733,-0.0062 -0.2575,-0.0179l-8.0979 0c-0.0902,0.0199 -0.1839,0.0305 -0.2802,0.0305 -0.0962,0 -0.1899,-0.0106 -0.2801,-0.0305l-0.148 0 0 -0.042c-0.5045,-0.1768 -0.8663,-0.6571 -0.8663,-1.222 0,-0.5648 0.3618,-1.0452 0.8663,-1.2219l0 -0.0215z"/>
  <path class="fil1 str1" d="M164.453 11.2907l0.0445 0c-0.0765,-0.2219 -0.118,-0.4599 -0.118,-0.7078 0,-1.1997 0.9725,-2.1723 2.1723,-2.1723 0.2288,0 0.4493,0.0354 0.6564,0.101 0.36,-1.1273 1.4159,-1.9437 2.6627,-1.9437 0.9666,0 1.8186,0.4908 2.3204,1.2367 0.135,-0.0184 0.2728,-0.0282 0.4128,-0.0282 1.3488,0 2.4911,0.8823 2.8821,2.1011 1.1426,0.0921 2.0411,1.0484 2.0411,2.2147 0,1.2272 -0.9948,2.2221 -2.2221,2.2221 -0.1046,0 -0.2075,-0.0074 -0.3083,-0.0214l-9.6958 0c-0.1081,0.0238 -0.2202,0.0365 -0.3354,0.0365 -0.1152,0 -0.2274,-0.0127 -0.3355,-0.0365l-0.1772 0 0 -0.0504c-0.604,-0.2115 -1.0372,-0.7867 -1.0372,-1.463 0,-0.6763 0.4332,-1.2514 1.0372,-1.463l0 -0.0258z"/>
  <path class="fil1 str1" d="M188.862 16.6604l0.019 0c-0.0327,-0.095 -0.0504,-0.1968 -0.0504,-0.3028 0,-0.5133 0.4161,-0.9294 0.9294,-0.9294 0.0979,0 0.1922,0.0151 0.2808,0.0432 0.1541,-0.4823 0.6058,-0.8316 1.1392,-0.8316 0.4136,0 0.7781,0.2099 0.9928,0.5291 0.0578,-0.0079 0.1167,-0.0121 0.1767,-0.0121 0.577,0 1.0657,0.3775 1.233,0.899 0.4889,0.0394 0.8733,0.4485 0.8733,0.9475 0,0.5251 -0.4256,0.9507 -0.9507,0.9507 -0.0448,0 -0.0888,-0.0031 -0.1319,-0.0091l-4.1483 0c-0.0463,0.0102 -0.0943,0.0156 -0.1435,0.0156 -0.0493,0 -0.0973,-0.0054 -0.1436,-0.0156l-0.0758 0 0 -0.0216c-0.2584,-0.0905 -0.4438,-0.3366 -0.4438,-0.6259 0,-0.2894 0.1854,-0.5354 0.4438,-0.626l0 -0.011z"/>
  <path class="fil1 str1" d="M241.735 5.972l0.0147 0c-0.0252,-0.073 -0.0389,-0.1514 -0.0389,-0.233 0,-0.3949 0.3202,-0.7151 0.7151,-0.7151 0.0754,0 0.148,0.0117 0.2162,0.0333 0.1185,-0.3712 0.4661,-0.6399 0.8765,-0.6399 0.3182,0 0.5987,0.1615 0.7639,0.4071 0.0444,-0.0061 0.0898,-0.0093 0.1359,-0.0093 0.444,0 0.8201,0.2905 0.9488,0.6917 0.3761,0.0303 0.6719,0.3451 0.6719,0.7291 0,0.404 -0.3275,0.7315 -0.7315,0.7315 -0.0344,0 -0.0683,-0.0024 -0.1015,-0.007l-3.1919 0c-0.0356,0.0078 -0.0725,0.012 -0.1104,0.012 -0.0379,0 -0.0749,-0.0042 -0.1104,-0.012l-0.0584 0 0 -0.0166c-0.1988,-0.0696 -0.3414,-0.259 -0.3414,-0.4816 0,-0.2227 0.1426,-0.412 0.3414,-0.4817l0 -0.0085z"/>
  <path class="fil1 str1" d="M11.0092 4.8265l-0.0303 0c0.0521,-0.1512 0.0804,-0.3134 0.0804,-0.4822 0,-0.8174 -0.6626,-1.48 -1.48,-1.48 -0.1559,0 -0.3061,0.0241 -0.4472,0.0688 -0.2453,-0.7681 -0.9646,-1.3243 -1.8141,-1.3243 -0.6586,0 -1.239,0.3344 -1.5809,0.8426 -0.092,-0.0125 -0.1858,-0.0192 -0.2813,-0.0192 -0.9188,0 -1.6971,0.6011 -1.9635,1.4315 -0.7784,0.0628 -1.3906,0.7142 -1.3906,1.5089 0,0.8361 0.6778,1.5139 1.5139,1.5139 0.0713,0 0.1414,-0.0051 0.2101,-0.0146l6.6057 0c0.0736,0.0162 0.1501,0.0249 0.2286,0.0249 0.0784,0 0.1549,-0.0087 0.2285,-0.0249l0.1207 0 0 -0.0343c0.4115,-0.1442 0.7067,-0.536 0.7067,-0.9968 0,-0.4607 -0.2952,-0.8526 -0.7067,-0.9967l0 -0.0176z"/>
  <path class="fil1 str2" d="M27.9452 19.4158l0.076 0c-0.1308,-0.3796 -0.2019,-0.7868 -0.2019,-1.2108 0,-2.0525 1.6639,-3.7164 3.7164,-3.7164 0.3916,0 0.7687,0.0606 1.1231,0.1729 0.6159,-1.9287 2.4223,-3.3254 4.5553,-3.3254 1.6537,0 3.1113,0.8396 3.9697,2.1157 0.231,-0.0314 0.4667,-0.0481 0.7063,-0.0481 2.3074,0 4.2617,1.5094 4.9307,3.5946 1.9547,0.1575 3.4919,1.7934 3.4919,3.7888 0,2.0996 -1.702,3.8015 -3.8015,3.8015 -0.1791,0 -0.3551,-0.0126 -0.5275,-0.0366l-16.5877 0c-0.1848,0.0408 -0.3767,0.0625 -0.5738,0.0625 -0.1971,0 -0.389,-0.0217 -0.5738,-0.0625l-0.3032 0 0 -0.0861c-1.0334,-0.362 -1.7745,-1.3459 -1.7745,-2.5029 0,-1.1571 0.7411,-2.141 1.7745,-2.503l0 -0.0442z"/>
  <g id="_206391576">
   <polygon id="_152753712" class="fil0 str3" points="31.5132,12.5507 26.4946,13.5422 30.9948,21.4663 49.2666,17.0322 46.0922,13.2236 42.244,13.8577 48.3646,22.136 38.9127,25.1833 "/>
   <g>
    <line id="_150069152" class="fil0 str4" x1="31.8129" y1="11.8113" x2="39.6333" y2= "25.0089" />
    <line id="_152763000" class="fil0 str4" x1="30.7308" y1="12.1547" x2="38.9399" y2= "26.3277" />
    <line id="_152761896" class="fil0 str4" x1="47.2425" y1="22.0243" x2="38.6628" y2= "24.8288" />
    <line id="_152765520" class="fil0 str4" x1="38.4956" y1="26.0704" x2="49.4878" y2= "22.3986" />
    <line id="_152760240" class="fil0 str4" x1="40.8046" y1="13.424" x2="47.4935" y2= "22.3114" />
    <line id="_152764992" class="fil0 str4" x1="41.9506" y1="13.3071" x2="49.271" y2= "23.0364" />
    <line id="_152760504" class="fil0 str4" x1="41.4592" y1="14.9327" x2="48.0779" y2= "13.7867" />
    <line id="_152767392" class="fil0 str4" x1="40.664" y1="13.927" x2="46.6746" y2= "13.0382" />
    <line id="_152757264" class="fil0 str4" x1="46.1134" y1="12.9447" x2="50.2387" y2= "17.9845" />
    <line id="_152764416" class="fil0 str4" x1="45.4315" y1="13.7583" x2="48.5216" y2= "17.3796" />
    <g>
     <polyline id="_152767224" class="fil0 str4" points="25.4464,12.7619 30.8723,22.4445 50.4476,17.5098 "/>
     <polyline id="_152765376" class="fil0 str4" points="49.6524,16.5977 31.2931,21.1817 26.5918,12.8794 "/>
     <line id="_152764128" class="fil0 str4" x1="25.7731" y1="14.6568" x2="34.2394" y2= "13.043" />
     <line id="_152758488" class="fil0 str4" x1="25.9299" y1="13.6247" x2="33.4443" y2= "12.1309" />
    </g>
   </g>
  </g>
  <polyline class="fil0 str0" points="157.127,35.9118 157.127,14.8472 165.92,14.8472 "/>
  <g id="_152762184">
   <rect id="_152759232" class="fil0 str0" x="5.37661" y="23.1836" width="2.78134" height="2.46404"/>
   <polyline id="_152763864" class="fil0 str0" points="17.1026,34.6928 17.1026,17.7566 1.2965,17.7566 "/>
   <rect id="_152763096" class="fil0 str0" x="5.32582" y="19.4528" width="2.78134" height="2.46404"/>
   <rect id="_152753832" class="fil0 str0" x="1.51642" y="19.3807" width="2.78134" height="2.46404"/>
   <rect id="_152763024" class="fil0 str0" x="21.9238" y="28.4718" width="1.54724" height="1.37072"/>
   <rect id="_152760816" class="fil0 str0" x="12.9351" y="19.4618" width="2.78134" height="2.46404"/>
   <rect id="_152761704" class="fil0 str0" x="23.9986" y="30.4575" width="1.54724" height="1.37072"/>
   <rect id="_152752848" class="fil0 str0" x="21.907" y="30.4501" width="1.54724" height="1.37072"/>
   <rect id="_152751840" class="fil0 str0" x="19.7602" y="28.5019" width="1.54724" height="1.37072"/>
   <polyline id="_152755848" class="fil0 str0" points="26.2833,34.9043 26.2833,25.4829 17.4905,25.4829 "/>
   <rect id="_152753520" class="fil0 str0" x="23.9649" y="26.4315" width="1.54724" height="1.37072"/>
   <rect id="_152766816" class="fil0 str0" x="23.9833" y="28.3935" width="1.54724" height="1.37072"/>
   <rect id="_152753784" class="fil0 str0" x="21.8485" y="26.429" width="1.54724" height="1.37072"/>
   <rect id="_152756976" class="fil0 str0" x="19.732" y="26.4265" width="1.54724" height="1.37072"/>
   <rect id="_152762544" class="fil0 str0" x="21.8485" y="26.429" width="1.54724" height="1.37072"/>
   <rect id="_152762376" class="fil0 str0" x="12.9955" y="26.6991" width="2.78134" height="2.46404"/>
   <rect id="_152752608" class="fil0 str0" x="9.23574" y="26.6857" width="2.78134" height="2.46404"/>
   <rect id="_152751696" class="fil0 str0" x="12.968" y="22.9888" width="2.78134" height="2.46404"/>
   <rect id="_152756016" class="fil0 str0" x="9.26591" y="23.1295" width="2.78134" height="2.46404"/>
   <rect id="_152751744" class="fil0 str0" x="9.13044" y="19.4573" width="2.78134" height="2.46404"/>
   <rect id="_152752032" class="fil0 str0" x="17.6128" y="26.3864" width="1.54724" height="1.37072"/>
   <rect id="_152752248" class="fil0 str0" x="9.13044" y="19.4573" width="2.78134" height="2.46404"/>
  </g>
  <g id="_204289864">
   <rect id="_204181048" class="fil0 str0" x="134.78" y="29.0717" width="1.54724" height="1.37072"/>
   <rect id="_204304528" class="fil0 str0" x="223.673" y="29.1226" width="1.35994" height="1.2048"/>
   <rect id="_152756208" class="fil0 str0" x="115.719" y="29.5743" width="1.54724" height="1.37072"/>
   <rect id="_204292648" class="fil0 str0" x="206.92" y="29.5643" width="1.35994" height="1.2048"/>
   <rect id="_204180664" class="fil0 str0" x="188.726" y="29.9407" width="1.54724" height="1.37072"/>
   <rect id="_204180448" class="fil0 str0" x="162.103" y="29.5093" width="1.54724" height="1.37072"/>
   <rect id="_150065024" class="fil0 str0" x="125.18" y="29.2688" width="1.54724" height="1.37072"/>
   <rect id="_204290464" class="fil0 str0" x="215.235" y="29.2958" width="1.35994" height="1.2048"/>
   <rect id="_204188056" class="fil0 str0" x="198.186" y="29.6352" width="1.54724" height="1.37072"/>
   <rect id="_151184448" class="fil0 str0" x="140.338" y="23.5586" width="2.78134" height="2.46404"/>
   <rect id="_151172688" class="fil0 str0" x="167.661" y="23.9962" width="2.78134" height="2.46404"/>
   <rect id="_151173312" class="fil0 str0" x="130.542" y="31.0273" width="1.54724" height="1.37072"/>
   <rect id="_204304960" class="fil0 str0" x="219.948" y="30.8414" width="1.35994" height="1.2048"/>
   <rect id="_152752320" class="fil0 str0" x="111.481" y="31.5299" width="1.54724" height="1.37072"/>
   <rect id="_204294520" class="fil0 str0" x="203.195" y="31.2832" width="1.35994" height="1.2048"/>
   <rect id="_151174320" class="fil0 str0" x="184.487" y="31.8963" width="1.54724" height="1.37072"/>
   <rect id="_151174896" class="fil0 str0" x="157.864" y="31.4649" width="1.54724" height="1.37072"/>
   <rect id="_152146624" class="fil0 str0" x="120.941" y="31.2244" width="1.54724" height="1.37072"/>
   <rect id="_204289168" class="fil0 str0" x="211.51" y="31.0147" width="1.35994" height="1.2048"/>
   <rect id="_151175616" class="fil0 str0" x="193.948" y="31.5908" width="1.54724" height="1.37072"/>
   <rect id="_151177920" class="fil0 str0" x="132.633" y="31.0199" width="1.54724" height="1.37072"/>
   <rect id="_204309424" class="fil0 str0" x="221.787" y="30.8349" width="1.35994" height="1.2048"/>
   <rect id="_152753064" class="fil0 str0" x="113.572" y="31.5225" width="1.54724" height="1.37072"/>
   <rect id="_204313576" class="fil0 str0" x="205.033" y="31.2767" width="1.35994" height="1.2048"/>
   <rect id="_151178496" class="fil0 str0" x="186.579" y="31.8889" width="1.54724" height="1.37072"/>
   <rect id="_151179504" class="fil0 str0" x="159.956" y="31.4575" width="1.54724" height="1.37072"/>
   <rect id="_152765328" class="fil0 str0" x="123.033" y="31.217" width="1.54724" height="1.37072"/>
   <rect id="_204288112" class="fil0 str0" x="213.348" y="31.0081" width="1.35994" height="1.2048"/>
   <rect id="_151180080" class="fil0 str0" x="196.04" y="31.5834" width="1.54724" height="1.37072"/>
   <polyline id="_151181088" class="fil0 str0" points="129.804,35.4741 129.804,26.0527 138.597,26.0527 "/>
   <polyline id="_204319504" class="fil0 str0" points="219.3,34.75 219.3,26.469 227.028,26.469 "/>
   <polyline id="_152755944" class="fil0 str0" points="110.743,35.9767 110.743,26.5553 119.536,26.5553 "/>
   <polyline id="_204319312" class="fil0 str0" points="202.546,35.1917 202.546,26.9108 210.275,26.9108 "/>
   <polyline id="_151181952" class="fil0 str0" points="183.75,36.3431 183.75,26.9217 192.543,26.9217 "/>
   <polyline id="_152765304" class="fil0 str0" points="120.204,35.6713 120.204,18.2933 128.997,18.2933 "/>
   <polyline id="_204319240" class="fil0 str0" points="210.928,35.0556 210.928,23.2867 218.656,23.2867 "/>
   <polyline id="_151183536" class="fil0 str0" points="193.211,36.0377 193.211,18.6597 202.003,18.6597 "/>
   <rect id="_151184616" class="fil0 str0" x="130.575" y="27.0013" width="1.54724" height="1.37072"/>
   <rect id="_204310264" class="fil0 str0" x="219.978" y="27.3028" width="1.35994" height="1.2048"/>
   <rect id="_152761584" class="fil0 str0" x="111.514" y="27.5039" width="1.54724" height="1.37072"/>
   <rect id="_204289888" class="fil0 str0" x="203.224" y="27.7446" width="1.35994" height="1.2048"/>
   <rect id="_151185456" class="fil0 str0" x="184.521" y="27.8703" width="1.54724" height="1.37072"/>
   <rect id="_151186032" class="fil0 str0" x="157.898" y="27.4389" width="1.54724" height="1.37072"/>
   <rect id="_152756544" class="fil0 str0" x="120.975" y="27.1984" width="1.54724" height="1.37072"/>
   <rect id="_204317032" class="fil0 str0" x="211.539" y="27.476" width="1.35994" height="1.2048"/>
   <rect id="_151187256" class="fil0 str0" x="193.982" y="27.5648" width="1.54724" height="1.37072"/>
   <rect id="_151184736" class="fil0 str0" x="157.838" y="25.4155" width="1.54724" height="1.37072"/>
   <rect id="_152759640" class="fil0 str0" x="120.915" y="25.175" width="1.54724" height="1.37072"/>
   <rect id="_204317704" class="fil0 str0" x="211.487" y="25.6976" width="1.35994" height="1.2048"/>
   <rect id="_151186944" class="fil0 str0" x="193.921" y="25.5414" width="1.54724" height="1.37072"/>
   <rect id="_151186848" class="fil0 str0" x="157.778" y="23.3921" width="1.54724" height="1.37072"/>
   <rect id="_152758320" class="fil0 str0" x="120.855" y="23.1516" width="1.54724" height="1.37072"/>
   <rect id="_204296584" class="fil0 str0" x="211.434" y="23.9191" width="1.35994" height="1.2048"/>
   <rect id="_151186464" class="fil0 str0" x="193.861" y="23.518" width="1.54724" height="1.37072"/>
   <rect id="_151186560" class="fil0 str0" x="157.717" y="21.3687" width="1.54724" height="1.37072"/>
   <rect id="_152758536" class="fil0 str0" x="120.794" y="21.1282" width="1.54724" height="1.37072"/>
   <rect id="_151186224" class="fil0 str0" x="193.801" y="21.4946" width="1.54724" height="1.37072"/>
   <rect id="_151185720" class="fil0 str0" x="157.657" y="19.3453" width="1.54724" height="1.37072"/>
   <rect id="_152766648" class="fil0 str0" x="120.734" y="19.1048" width="1.54724" height="1.37072"/>
   <rect id="_151184088" class="fil0 str0" x="193.741" y="19.4712" width="1.54724" height="1.37072"/>
   <rect id="_151185624" class="fil0 str0" x="157.597" y="17.3219" width="1.54724" height="1.37072"/>
   <rect id="_151185360" class="fil0 str0" x="157.537" y="15.2985" width="1.54724" height="1.37072"/>
   <rect id="_151185024" class="fil0 str0" x="130.557" y="28.9633" width="1.54724" height="1.37072"/>
   <rect id="_204303448" class="fil0 str0" x="219.962" y="29.0273" width="1.35994" height="1.2048"/>
   <rect id="_152757696" class="fil0 str0" x="111.496" y="29.4659" width="1.54724" height="1.37072"/>
   <rect id="_204303832" class="fil0 str0" x="203.208" y="29.469" width="1.35994" height="1.2048"/>
   <rect id="_151184880" class="fil0 str0" x="184.503" y="29.8323" width="1.54724" height="1.37072"/>
   <rect id="_151172832" class="fil0 str0" x="157.88" y="29.4009" width="1.54724" height="1.37072"/>
   <rect id="_152762160" class="fil0 str0" x="120.957" y="29.1604" width="1.54724" height="1.37072"/>
   <rect id="_204291280" class="fil0 str0" x="211.523" y="29.2005" width="1.35994" height="1.2048"/>
   <rect id="_151184424" class="fil0 str0" x="193.963" y="29.5268" width="1.54724" height="1.37072"/>
   <rect id="_151184304" class="fil0 str0" x="132.617" y="29.0416" width="1.54724" height="1.37072"/>
   <rect id="_204314176" class="fil0 str0" x="221.772" y="29.0961" width="1.35994" height="1.2048"/>
   <rect id="_150070040" class="fil0 str0" x="113.556" y="29.5442" width="1.54724" height="1.37072"/>
   <rect id="_204317440" class="fil0 str0" x="205.018" y="29.5379" width="1.35994" height="1.2048"/>
   <rect id="_151183704" class="fil0 str0" x="186.562" y="29.9106" width="1.54724" height="1.37072"/>
   <rect id="_151183440" class="fil0 str0" x="159.939" y="29.4792" width="1.54724" height="1.37072"/>
   <rect id="_152758968" class="fil0 str0" x="123.016" y="29.2387" width="1.54724" height="1.37072"/>
   <rect id="_204314944" class="fil0 str0" x="213.334" y="29.2694" width="1.35994" height="1.2048"/>
   <rect id="_151183272" class="fil0 str0" x="196.023" y="29.6051" width="1.54724" height="1.37072"/>
   <rect id="_151183128" class="fil0 str0" x="132.692" y="26.9988" width="1.54724" height="1.37072"/>
   <rect id="_204289048" class="fil0 str0" x="221.838" y="27.3006" width="1.35994" height="1.2048"/>
   <rect id="_150068888" class="fil0 str0" x="113.631" y="27.5014" width="1.54724" height="1.37072"/>
   <rect id="_204293440" class="fil0 str0" x="205.084" y="27.7423" width="1.35994" height="1.2048"/>
   <rect id="_151183032" class="fil0 str0" x="186.638" y="27.8678" width="1.54724" height="1.37072"/>
   <rect id="_151182648" class="fil0 str0" x="160.015" y="27.4364" width="1.54724" height="1.37072"/>
   <rect id="_152766048" class="fil0 str0" x="123.092" y="27.1959" width="1.54724" height="1.37072"/>
   <rect id="_204313288" class="fil0 str0" x="213.4" y="27.4738" width="1.35994" height="1.2048"/>
   <rect id="_151182456" class="fil0 str0" x="196.098" y="27.5623" width="1.54724" height="1.37072"/>
   <rect id="_151182120" class="fil0 str0" x="159.954" y="25.413" width="1.54724" height="1.37072"/>
   <rect id="_152752344" class="fil0 str0" x="123.031" y="25.1725" width="1.54724" height="1.37072"/>
   <rect id="_204290416" class="fil0 str0" x="213.347" y="25.6954" width="1.35994" height="1.2048"/>
   <rect id="_151182216" class="fil0 str0" x="196.038" y="25.5389" width="1.54724" height="1.37072"/>
   <rect id="_151182072" class="fil0 str0" x="159.894" y="23.3896" width="1.54724" height="1.37072"/>
   <rect id="_152752680" class="fil0 str0" x="122.971" y="23.1491" width="1.54724" height="1.37072"/>
   <rect id="_204288952" class="fil0 str0" x="213.294" y="23.9169" width="1.35994" height="1.2048"/>
   <rect id="_151181400" class="fil0 str0" x="195.978" y="23.5155" width="1.54724" height="1.37072"/>
   <rect id="_151173744" class="fil0 str0" x="159.834" y="21.3662" width="1.54724" height="1.37072"/>
   <rect id="_152752656" class="fil0 str0" x="122.911" y="21.1257" width="1.54724" height="1.37072"/>
   <rect id="_151172088" class="fil0 str0" x="195.918" y="21.4921" width="1.54724" height="1.37072"/>
   <rect id="_151173384" class="fil0 str0" x="159.774" y="19.3428" width="1.54724" height="1.37072"/>
   <rect id="_152754000" class="fil0 str0" x="122.851" y="19.1023" width="1.54724" height="1.37072"/>
   <rect id="_151173192" class="fil0 str0" x="195.857" y="19.4687" width="1.54724" height="1.37072"/>
   <rect id="_151172808" class="fil0 str0" x="159.714" y="17.3194" width="1.54724" height="1.37072"/>
   <rect id="_151172760" class="fil0 str0" x="159.653" y="15.296" width="1.54724" height="1.37072"/>
   <rect id="_151180152" class="fil0 str0" x="132.692" y="26.9988" width="1.54724" height="1.37072"/>
   <rect id="_204293512" class="fil0 str0" x="221.838" y="27.3006" width="1.35994" height="1.2048"/>
   <rect id="_150069104" class="fil0 str0" x="113.631" y="27.5014" width="1.54724" height="1.37072"/>
   <rect id="_204318424" class="fil0 str0" x="205.084" y="27.7423" width="1.35994" height="1.2048"/>
   <rect id="_151171608" class="fil0 str0" x="186.638" y="27.8678" width="1.54724" height="1.37072"/>
   <rect id="_151173120" class="fil0 str0" x="160.015" y="27.4364" width="1.54724" height="1.37072"/>
   <rect id="_152752176" class="fil0 str0" x="123.092" y="27.1959" width="1.54724" height="1.37072"/>
   <rect id="_204314920" class="fil0 str0" x="213.4" y="27.4738" width="1.35994" height="1.2048"/>
   <rect id="_151173648" class="fil0 str0" x="196.098" y="27.5623" width="1.54724" height="1.37072"/>
   <rect id="_151171368" class="fil0 str0" x="159.954" y="25.413" width="1.54724" height="1.37072"/>
   <rect id="_152752104" class="fil0 str0" x="123.031" y="25.1725" width="1.54724" height="1.37072"/>
   <rect id="_204296272" class="fil0 str0" x="213.347" y="25.6954" width="1.35994" height="1.2048"/>
   <rect id="_151171752" class="fil0 str0" x="196.038" y="25.5389" width="1.54724" height="1.37072"/>
   <rect id="_151181424" class="fil0 str0" x="159.894" y="23.3896" width="1.54724" height="1.37072"/>
   <rect id="_152752128" class="fil0 str0" x="122.971" y="23.1491" width="1.54724" height="1.37072"/>
   <rect id="_204292192" class="fil0 str0" x="213.294" y="23.9169" width="1.35994" height="1.2048"/>
   <rect id="_151174776" class="fil0 str0" x="195.978" y="23.5155" width="1.54724" height="1.37072"/>
   <rect id="_151186968" class="fil0 str0" x="159.834" y="21.3662" width="1.54724" height="1.37072"/>
   <rect id="_152751936" class="fil0 str0" x="122.911" y="21.1257" width="1.54724" height="1.37072"/>
   <rect id="_151173432" class="fil0 str0" x="195.918" y="21.4921" width="1.54724" height="1.37072"/>
   <rect id="_153570912" class="fil0 str0" x="159.774" y="19.3428" width="1.54724" height="1.37072"/>
   <rect id="_152751792" class="fil0 str0" x="122.851" y="19.1023" width="1.54724" height="1.37072"/>
   <rect id="_153570720" class="fil0 str0" x="195.857" y="19.4687" width="1.54724" height="1.37072"/>
   <rect id="_153570528" class="fil0 str0" x="159.714" y="17.3194" width="1.54724" height="1.37072"/>
   <rect id="_153570384" class="fil0 str0" x="159.653" y="15.296" width="1.54724" height="1.37072"/>
   <rect id="_153567096" class="fil0 str0" x="140.311" y="27.2689" width="2.78134" height="2.46404"/>
   <rect id="_153580032" class="fil0 str0" x="167.633" y="27.7065" width="2.78134" height="2.46404"/>
   <rect id="_153580440" class="fil0 str0" x="144.071" y="27.2555" width="2.78134" height="2.46404"/>
   <rect id="_153580464" class="fil0 str0" x="171.393" y="27.6931" width="2.78134" height="2.46404"/>
   <rect id="_153579720" class="fil0 str0" x="147.93" y="23.7534" width="2.78134" height="2.46404"/>
   <rect id="_153578352" class="fil0 str0" x="175.252" y="24.191" width="2.78134" height="2.46404"/>
   <polyline id="_153566112" class="fil0 str0" points="138.985,35.2626 138.985,18.3264 155.729,18.3264 155.783,36.0536 "/>
   <polyline id="_153567048" class="fil0 str0" points="166.605,35.9647 166.308,18.764 183.051,18.764 183.106,36.4912 "/>
   <rect id="_153576648" class="fil0 str0" x="140.371" y="20.0316" width="2.78134" height="2.46404"/>
   <rect id="_153578856" class="fil0 str0" x="167.694" y="20.4692" width="2.78134" height="2.46404"/>
   <rect id="_153581064" class="fil0 str0" x="144.04" y="23.6993" width="2.78134" height="2.46404"/>
   <rect id="_153576864" class="fil0 str0" x="171.363" y="24.1369" width="2.78134" height="2.46404"/>
   <rect id="_153581016" class="fil0 str0" x="144.176" y="20.0271" width="2.78134" height="2.46404"/>
   <rect id="_153577224" class="fil0 str0" x="171.498" y="20.4647" width="2.78134" height="2.46404"/>
   <rect id="_153579384" class="fil0 str0" x="147.98" y="20.0226" width="2.78134" height="2.46404"/>
   <rect id="_153579984" class="fil0 str0" x="175.303" y="20.4602" width="2.78134" height="2.46404"/>
   <rect id="_153578664" class="fil0 str0" x="134.808" y="26.9963" width="1.54724" height="1.37072"/>
   <rect id="_204318568" class="fil0 str0" x="223.698" y="27.2984" width="1.35994" height="1.2048"/>
   <rect id="_150066992" class="fil0 str0" x="115.747" y="27.4989" width="1.54724" height="1.37072"/>
   <rect id="_204292840" class="fil0 str0" x="206.945" y="27.7401" width="1.35994" height="1.2048"/>
   <rect id="_153566088" class="fil0 str0" x="188.754" y="27.8653" width="1.54724" height="1.37072"/>
   <rect id="_153582168" class="fil0 str0" x="162.131" y="27.4339" width="1.54724" height="1.37072"/>
   <rect id="_152752752" class="fil0 str0" x="125.208" y="27.1934" width="1.54724" height="1.37072"/>
   <rect id="_204311416" class="fil0 str0" x="215.26" y="27.4716" width="1.35994" height="1.2048"/>
   <rect id="_153566208" class="fil0 str0" x="198.215" y="27.5598" width="1.54724" height="1.37072"/>
   <rect id="_152761512" class="fil0 str0" x="162.071" y="25.4105" width="1.54724" height="1.37072"/>
   <rect id="_152752824" class="fil0 str0" x="125.148" y="25.17" width="1.54724" height="1.37072"/>
   <rect id="_204288856" class="fil0 str0" x="215.207" y="25.6931" width="1.35994" height="1.2048"/>
   <rect id="_152761752" class="fil0 str0" x="198.154" y="25.5364" width="1.54724" height="1.37072"/>
   <rect id="_152759856" class="fil0 str0" x="162.011" y="23.3871" width="1.54724" height="1.37072"/>
   <rect id="_152763336" class="fil0 str0" x="125.088" y="23.1466" width="1.54724" height="1.37072"/>
   <rect id="_204288640" class="fil0 str0" x="215.154" y="23.9147" width="1.35994" height="1.2048"/>
   <rect id="_152761296" class="fil0 str0" x="198.094" y="23.513" width="1.54724" height="1.37072"/>
   <rect id="_153580056" class="fil0 str0" x="161.95" y="21.3637" width="1.54724" height="1.37072"/>
   <rect id="_152765472" class="fil0 str0" x="125.027" y="21.1232" width="1.54724" height="1.37072"/>
   <rect id="_153578880" class="fil0 str0" x="198.034" y="21.4896" width="1.54724" height="1.37072"/>
   <rect id="_153578016" class="fil0 str0" x="161.89" y="19.3403" width="1.54724" height="1.37072"/>
   <rect id="_152766744" class="fil0 str0" x="124.967" y="19.0998" width="1.54724" height="1.37072"/>
   <rect id="_153566064" class="fil0 str0" x="197.974" y="19.4662" width="1.54724" height="1.37072"/>
   <rect id="_153579144" class="fil0 str0" x="161.83" y="17.3169" width="1.54724" height="1.37072"/>
   <rect id="_153576720" class="fil0 str0" x="161.77" y="15.2935" width="1.54724" height="1.37072"/>
   <rect id="_153566544" class="fil0 str0" x="151.79" y="19.9505" width="2.78134" height="2.46404"/>
   <rect id="_153566736" class="fil0 str0" x="179.112" y="20.3881" width="2.78134" height="2.46404"/>
   <rect id="_153578928" class="fil0 str0" x="151.829" y="23.5495" width="2.78134" height="2.46404"/>
   <rect id="_153566424" class="fil0 str0" x="179.151" y="23.9871" width="2.78134" height="2.46404"/>
   <rect id="_153578640" class="fil0 str0" x="151.868" y="27.1485" width="2.78134" height="2.46404"/>
   <rect id="_153578184" class="fil0 str0" x="179.19" y="27.5861" width="2.78134" height="2.46404"/>
   <rect id="_153580656" class="fil0 str0" x="151.907" y="30.7475" width="2.78134" height="2.46404"/>
   <rect id="_153576624" class="fil0 str0" x="179.229" y="31.1851" width="2.78134" height="2.46404"/>
   <rect id="_153578760" class="fil0 str0" x="148.055" y="27.533" width="2.78134" height="2.46404"/>
   <rect id="_153579408" class="fil0 str0" x="175.378" y="27.9706" width="2.78134" height="2.46404"/>
   <rect id="_153566472" class="fil0 str0" x="136.928" y="26.9562" width="1.54724" height="1.37072"/>
   <rect id="_204306064" class="fil0 str0" x="225.561" y="27.2631" width="1.35994" height="1.2048"/>
   <rect id="_152753136" class="fil0 str0" x="117.867" y="27.4588" width="1.54724" height="1.37072"/>
   <rect id="_204296560" class="fil0 str0" x="208.807" y="27.7049" width="1.35994" height="1.2048"/>
   <rect id="_153566592" class="fil0 str0" x="190.873" y="27.8252" width="1.54724" height="1.37072"/>
   <rect id="_153577896" class="fil0 str0" x="164.25" y="27.3938" width="1.54724" height="1.37072"/>
   <rect id="_152756112" class="fil0 str0" x="127.327" y="27.1533" width="1.54724" height="1.37072"/>
   <rect id="_204319288" class="fil0 str0" x="217.123" y="27.4363" width="1.35994" height="1.2048"/>
   <rect id="_153577440" class="fil0 str0" x="200.334" y="27.5197" width="1.54724" height="1.37072"/>
   <rect id="_153579456" class="fil0 str0" x="164.19" y="25.3704" width="1.54724" height="1.37072"/>
   <rect id="_152753664" class="fil0 str0" x="127.267" y="25.1299" width="1.54724" height="1.37072"/>
   <rect id="_204290272" class="fil0 str0" x="217.07" y="25.6579" width="1.35994" height="1.2048"/>
   <rect id="_153581784" class="fil0 str0" x="200.274" y="25.4963" width="1.54724" height="1.37072"/>
   <rect id="_152760960" class="fil0 str0" x="164.13" y="23.347" width="1.54724" height="1.37072"/>
   <rect id="_152752512" class="fil0 str0" x="127.207" y="23.1065" width="1.54724" height="1.37072"/>
   <rect id="_204318016" class="fil0 str0" x="217.017" y="23.8794" width="1.35994" height="1.2048"/>
   <rect id="_152760672" class="fil0 str0" x="200.213" y="23.4729" width="1.54724" height="1.37072"/>
   <rect id="_152760120" class="fil0 str0" x="164.07" y="21.3236" width="1.54724" height="1.37072"/>
   <rect id="_152755728" class="fil0 str0" x="127.147" y="21.0831" width="1.54724" height="1.37072"/>
   <rect id="_152759976" class="fil0 str0" x="200.153" y="21.4495" width="1.54724" height="1.37072"/>
   <rect id="_153575328" class="fil0 str0" x="164.009" y="19.3002" width="1.54724" height="1.37072"/>
   <rect id="_152751408" class="fil0 str0" x="127.086" y="19.0597" width="1.54724" height="1.37072"/>
   <rect id="_153570168" class="fil0 str0" x="200.093" y="19.4261" width="1.54724" height="1.37072"/>
   <rect id="_153567672" class="fil0 str0" x="163.949" y="17.2768" width="1.54724" height="1.37072"/>
   <rect id="_152752488" class="fil0 str0" x="163.889" y="15.2534" width="1.54724" height="1.37072"/>
   <g>
    <rect id="_152767104" class="fil0 str0" x="245.842" y="22.8601" width="2.78134" height="2.46404"/>
    <polyline id="_204315400" class="fil0 str0" points="236.897,34.3693 236.897,17.4331 252.704,17.4331 "/>
    <rect id="_204307312" class="fil0 str0" x="245.893" y="19.1293" width="2.78134" height="2.46404"/>
    <rect id="_204291688" class="fil0 str0" x="249.702" y="19.0572" width="2.78134" height="2.46404"/>
    <rect id="_204290848" class="fil0 str0" x="230.529" y="28.1483" width="1.54724" height="1.37072"/>
    <rect id="_204301624" class="fil0 str0" x="238.284" y="19.1383" width="2.78134" height="2.46404"/>
    <rect id="_204298312" class="fil0 str0" x="228.454" y="30.134" width="1.54724" height="1.37072"/>
    <rect id="_204291040" class="fil0 str0" x="230.546" y="30.1266" width="1.54724" height="1.37072"/>
    <rect id="_204298600" class="fil0 str0" x="232.693" y="28.1784" width="1.54724" height="1.37072"/>
    <polyline id="_204287992" class="fil0 str0" points="227.717,34.5808 227.717,25.1594 236.51,25.1594 "/>
    <rect id="_204315088" class="fil0 str0" x="228.488" y="26.108" width="1.54724" height="1.37072"/>
    <rect id="_204294856" class="fil0 str0" x="228.469" y="28.07" width="1.54724" height="1.37072"/>
    <rect id="_204315976" class="fil0 str0" x="230.604" y="26.1055" width="1.54724" height="1.37072"/>
    <rect id="_204291328" class="fil0 str0" x="232.721" y="26.103" width="1.54724" height="1.37072"/>
    <rect id="_204295744" class="fil0 str0" x="230.604" y="26.1055" width="1.54724" height="1.37072"/>
    <rect id="_204310984" class="fil0 str0" x="238.223" y="26.3756" width="2.78134" height="2.46404"/>
    <rect id="_204295552" class="fil0 str0" x="241.983" y="26.3622" width="2.78134" height="2.46404"/>
    <rect id="_204302032" class="fil0 str0" x="238.251" y="22.6653" width="2.78134" height="2.46404"/>
    <rect id="_204292744" class="fil0 str0" x="241.953" y="22.806" width="2.78134" height="2.46404"/>
    <rect id="_204294400" class="fil0 str0" x="242.088" y="19.1338" width="2.78134" height="2.46404"/>
    <rect id="_204319816" class="fil0 str0" x="234.84" y="26.0629" width="1.54724" height="1.37072"/>
    <rect id="_204319792" class="fil0 str0" x="242.088" y="19.1338" width="2.78134" height="2.46404"/>
   </g>
   <rect id="_152761728" class="fil0 str0" x="144.176" y="20.0271" width="2.78134" height="2.46404"/>
   <g>
    <rect id="_152765952" class="fil0 str0" x="61.7735" y="28.7053" width="1.54724" height="1.37072"/>
    <rect id="_204193696" class="fil0 str0" x="89.0961" y="29.1429" width="1.54724" height="1.37072"/>
    <rect id="_152760336" class="fil0 str0" x="67.3316" y="23.1922" width="2.78134" height="2.46404"/>
    <rect id="_204194824" class="fil0 str0" x="94.6542" y="23.6298" width="2.78134" height="2.46404"/>
    <rect id="_152752992" class="fil0 str0" x="57.5352" y="30.6609" width="1.54724" height="1.37072"/>
    <rect id="_204195784" class="fil0 str0" x="84.8578" y="31.0985" width="1.54724" height="1.37072"/>
    <rect id="_152752272" class="fil0 str0" x="59.6267" y="30.6535" width="1.54724" height="1.37072"/>
    <rect id="_204181552" class="fil0 str0" x="86.9493" y="31.0911" width="1.54724" height="1.37072"/>
    <polyline id="_152762616" class="fil0 str0" points="56.7977,35.1077 56.7977,25.6863 65.5905,25.6863 "/>
    <polyline id="_204191296" class="fil0 str0" points="84.1203,35.5454 84.1203,13.9782 92.9131,13.9782 "/>
    <rect id="_152760456" class="fil0 str0" x="57.5688" y="26.6349" width="1.54724" height="1.37072"/>
    <rect id="_204192328" class="fil0 str0" x="84.8914" y="27.0725" width="1.54724" height="1.37072"/>
    <rect id="_204190000" class="fil0 str0" x="84.8312" y="25.0491" width="1.54724" height="1.37072"/>
    <rect id="_152759208" class="fil0 str0" x="84.771" y="23.0257" width="1.54724" height="1.37072"/>
    <rect id="_153570408" class="fil0 str0" x="84.7108" y="21.0023" width="1.54724" height="1.37072"/>
    <rect id="_153569640" class="fil0 str0" x="84.6506" y="18.9789" width="1.54724" height="1.37072"/>
    <rect id="_152751624" class="fil0 str0" x="84.5904" y="16.9555" width="1.54724" height="1.37072"/>
    <rect id="_152754480" class="fil0 str0" x="84.5302" y="14.9321" width="1.54724" height="1.37072"/>
    <rect id="_152756784" class="fil0 str0" x="57.5505" y="28.5969" width="1.54724" height="1.37072"/>
    <rect id="_204196096" class="fil0 str0" x="84.8731" y="29.0345" width="1.54724" height="1.37072"/>
    <rect id="_152762976" class="fil0 str0" x="59.61" y="28.6752" width="1.54724" height="1.37072"/>
    <rect id="_204195952" class="fil0 str0" x="86.9326" y="29.1128" width="1.54724" height="1.37072"/>
    <rect id="_152753808" class="fil0 str0" x="59.6853" y="26.6324" width="1.54724" height="1.37072"/>
    <rect id="_204195688" class="fil0 str0" x="87.0079" y="27.07" width="1.54724" height="1.37072"/>
    <rect id="_204191872" class="fil0 str0" x="86.9477" y="25.0466" width="1.54724" height="1.37072"/>
    <rect id="_152759808" class="fil0 str0" x="86.8875" y="23.0232" width="1.54724" height="1.37072"/>
    <rect id="_153574752" class="fil0 str0" x="86.8273" y="20.9998" width="1.54724" height="1.37072"/>
    <rect id="_153581880" class="fil0 str0" x="86.7671" y="18.9764" width="1.54724" height="1.37072"/>
    <rect id="_152756088" class="fil0 str0" x="86.7069" y="16.953" width="1.54724" height="1.37072"/>
    <rect id="_152758752" class="fil0 str0" x="86.6467" y="14.9296" width="1.54724" height="1.37072"/>
    <rect id="_152754360" class="fil0 str0" x="59.6853" y="26.6324" width="1.54724" height="1.37072"/>
    <rect id="_204195520" class="fil0 str0" x="87.0079" y="27.07" width="1.54724" height="1.37072"/>
    <rect id="_204188944" class="fil0 str0" x="86.9477" y="25.0466" width="1.54724" height="1.37072"/>
    <rect id="_152762832" class="fil0 str0" x="86.8875" y="23.0232" width="1.54724" height="1.37072"/>
    <rect id="_153568080" class="fil0 str0" x="86.8273" y="20.9998" width="1.54724" height="1.37072"/>
    <rect id="_153572736" class="fil0 str0" x="86.7671" y="18.9764" width="1.54724" height="1.37072"/>
    <rect id="_152752920" class="fil0 str0" x="86.7069" y="16.953" width="1.54724" height="1.37072"/>
    <rect id="_152764680" class="fil0 str0" x="86.6467" y="14.9296" width="1.54724" height="1.37072"/>
    <rect id="_152756928" class="fil0 str0" x="67.3041" y="26.9025" width="2.78134" height="2.46404"/>
    <rect id="_204195256" class="fil0 str0" x="94.6267" y="27.3401" width="2.78134" height="2.46404"/>
    <rect id="_152765928" class="fil0 str0" x="71.0639" y="26.8891" width="2.78134" height="2.46404"/>
    <rect id="_204195088" class="fil0 str0" x="98.3865" y="27.3267" width="2.78134" height="2.46404"/>
    <rect id="_152752800" class="fil0 str0" x="74.9231" y="23.387" width="2.78134" height="2.46404"/>
    <rect id="_204194920" class="fil0 str0" x="102.246" y="23.8246" width="2.78134" height="2.46404"/>
    <polyline id="_152752776" class="fil0 str0" points="65.9784,34.8962 65.9784,17.96 82.7222,17.96 82.7766,35.6872 "/>
    <polyline id="_204194584" class="fil0 str0" points="93.5986,35.5983 93.301,18.3976 110.045,18.3976 110.099,36.1248 "/>
    <rect id="_152756328" class="fil0 str0" x="67.3646" y="19.6652" width="2.78134" height="2.46404"/>
    <rect id="_204194536" class="fil0 str0" x="94.6872" y="20.1028" width="2.78134" height="2.46404"/>
    <rect id="_152751576" class="fil0 str0" x="71.0338" y="23.3329" width="2.78134" height="2.46404"/>
    <rect id="_204194368" class="fil0 str0" x="98.3564" y="23.7705" width="2.78134" height="2.46404"/>
    <rect id="_152751768" class="fil0 str0" x="71.1692" y="19.6607" width="2.78134" height="2.46404"/>
    <rect id="_204193720" class="fil0 str0" x="98.4918" y="20.0983" width="2.78134" height="2.46404"/>
    <rect id="_152751912" class="fil0 str0" x="74.9738" y="19.6562" width="2.78134" height="2.46404"/>
    <rect id="_204194104" class="fil0 str0" x="102.296" y="20.0938" width="2.78134" height="2.46404"/>
    <rect id="_152751888" class="fil0 str0" x="61.8018" y="26.6299" width="1.54724" height="1.37072"/>
    <rect id="_204193744" class="fil0 str0" x="89.1244" y="27.0675" width="1.54724" height="1.37072"/>
    <rect id="_204181432" class="fil0 str0" x="89.0642" y="25.0441" width="1.54724" height="1.37072"/>
    <rect id="_152752584" class="fil0 str0" x="89.004" y="23.0207" width="1.54724" height="1.37072"/>
    <rect id="_152752632" class="fil0 str0" x="88.9438" y="20.9973" width="1.54724" height="1.37072"/>
    <rect id="_153581400" class="fil0 str0" x="88.8836" y="18.9739" width="1.54724" height="1.37072"/>
    <rect id="_152758416" class="fil0 str0" x="88.8234" y="16.9505" width="1.54724" height="1.37072"/>
    <rect id="_152760168" class="fil0 str0" x="88.7632" y="14.9271" width="1.54724" height="1.37072"/>
    <rect id="_152752056" class="fil0 str0" x="78.7832" y="19.5841" width="2.78134" height="2.46404"/>
    <rect id="_204194776" class="fil0 str0" x="106.106" y="20.0217" width="2.78134" height="2.46404"/>
    <rect id="_152753688" class="fil0 str0" x="78.8222" y="23.1831" width="2.78134" height="2.46404"/>
    <rect id="_204195736" class="fil0 str0" x="106.145" y="23.6207" width="2.78134" height="2.46404"/>
    <rect id="_206408136" class="fil0 str0" x="78.8612" y="26.7821" width="2.78134" height="2.46404"/>
    <rect id="_204181576" class="fil0 str0" x="106.184" y="27.2197" width="2.78134" height="2.46404"/>
    <rect id="_204188920" class="fil0 str0" x="78.9002" y="30.3811" width="2.78134" height="2.46404"/>
    <rect id="_204193504" class="fil0 str0" x="106.223" y="30.8187" width="2.78134" height="2.46404"/>
    <rect id="_204189376" class="fil0 str0" x="75.0488" y="27.1666" width="2.78134" height="2.46404"/>
    <rect id="_204189856" class="fil0 str0" x="102.371" y="27.6042" width="2.78134" height="2.46404"/>
    <rect id="_152752200" class="fil0 str0" x="63.9209" y="26.5898" width="1.54724" height="1.37072"/>
    <rect id="_204180472" class="fil0 str0" x="91.2435" y="27.0274" width="1.54724" height="1.37072"/>
    <rect id="_152759832" class="fil0 str0" x="91.1833" y="25.004" width="1.54724" height="1.37072"/>
    <rect id="_150062744" class="fil0 str0" x="91.1231" y="22.9806" width="1.54724" height="1.37072"/>
    <rect id="_152763816" class="fil0 str0" x="91.0629" y="20.9572" width="1.54724" height="1.37072"/>
    <rect id="_153570096" class="fil0 str0" x="91.0027" y="18.9338" width="1.54724" height="1.37072"/>
    <rect id="_152752944" class="fil0 str0" x="90.9425" y="16.9104" width="1.54724" height="1.37072"/>
    <rect id="_152759160" class="fil0 str0" x="90.8823" y="14.887" width="1.54724" height="1.37072"/>
    <rect id="_152752392" class="fil0 str0" x="71.1692" y="19.6607" width="2.78134" height="2.46404"/>
    <rect id="_204183520" class="fil0 str0" x="98.4918" y="20.0983" width="2.78134" height="2.46404"/>
   </g>
   <rect id="_152766432" class="fil0 str0" x="171.498" y="20.4647" width="2.78134" height="2.46404"/>
  </g>
 </g>
</svg>
