<?xml version="1.0" encoding="UTF-8"?>
<!DOCTYPE svg PUBLIC "-//W3C//DTD SVG 1.1//EN" "http://www.w3.org/Graphics/SVG/1.1/DTD/svg11.dtd">
<!-- Creator: CorelDRAW -->
<svg xmlns="http://www.w3.org/2000/svg" xml:space="preserve" width="120mm" height="60mm" style="shape-rendering:geometricPrecision; text-rendering:geometricPrecision; image-rendering:optimizeQuality; fill-rule:evenodd; clip-rule:evenodd"
viewBox="0 0 120 60"
 xmlns:xlink="http://www.w3.org/1999/xlink">
 <defs>
  <style type="text/css">
   <![CDATA[
    .str0 {stroke:#EAF2EF;stroke-width:0.25}
    .fil0 {fill:none}
    .fil1 {fill:#EAF2EF;fill-rule:nonzero}
   ]]>
  </style>
 </defs>
 <g id="Camada_x0020_1">
  <metadata id="CorelCorpID_0Corel-Layer"/>
  <line class="fil0 str0" x1="0.5894" y1="5.9809" x2="109.185" y2= "5.6632" />
  <line class="fil0 str0" x1="1.6499" y1="17.097" x2="111.672" y2= "16.1442" />
  <line class="fil0 str0" x1="0.3779" y1="30.1188" x2="119.622" y2= "28.5308" />
  <line class="fil0 str0" x1="2.9218" y1="39.6469" x2="108.493" y2= "39.6469" />
  <line class="fil0 str0" x1="1.0139" y1="52.6687" x2="111.354" y2= "49.8103" />
  <path class="fil1" d="M35.834 33.3893l-0.405 0 0 -1.5272c-0.1482,0.1388 -0.3224,0.2412 -0.5232,0.3071l0 -0.3676c0.1053,-0.0345 0.2205,-0.0999 0.3445,-0.1964 0.124,-0.097 0.2092,-0.2097 0.2549,-0.3386l0.3288 0 0 2.1227z"/>
  <path id="1" class="fil1" d="M36.4399 31.6805l0 -0.376 1.3855 0 0 0.2938c-0.1142,0.1127 -0.2304,0.2741 -0.349,0.4848 -0.1181,0.2101 -0.2082,0.4341 -0.2702,0.6708 -0.062,0.2372 -0.0925,0.4489 -0.0915,0.6354l-0.3908 0c0.0069,-0.2923 0.0669,-0.5901 0.1811,-0.8938 0.1137,-0.3041 0.2658,-0.5753 0.4562,-0.815l-0.9213 0z"/>
  <line class="fil0 str0" x1="33.6846" y1="5.9809" x2="33.6846" y2= "55.4485" />
  <line class="fil0 str0" x1="5.6646" y1="5.8821" x2="5.6646" y2= "55.3497" />
  <line class="fil0 str0" x1="47.8661" y1="58.148" x2="47.8661" y2= "5.1799" />
  <line class="fil0 str0" x1="19.8461" y1="58.0492" x2="19.8461" y2= "5.0811" />
  <line class="fil0 str0" x1="62.2595" y1="54.82" x2="62.2595" y2= "1.8519" />
  <line class="fil0 str0" x1="79.1928" y1="55.7241" x2="79.1928" y2= "2.7559" />
  <line class="fil0 str0" x1="96.1261" y1="56.6281" x2="96.1261" y2= "3.66" />
  <line class="fil0 str0" x1="113.059" y1="57.5321" x2="113.059" y2= "4.564" />
  <path class="fil1" d="M7.9137 7.7175c0.2052,0 0.3652,0.0733 0.4804,0.2195 0.1373,0.1727 0.2062,0.4597 0.2062,0.8608 0,0.3996 -0.0694,0.6871 -0.2077,0.8623 -0.1142,0.1442 -0.2737,0.216 -0.4789,0.216 -0.2052,0 -0.3711,-0.0787 -0.4971,-0.2372 -0.126,-0.158 -0.189,-0.44 -0.189,-0.8455 0,-0.3982 0.0694,-0.6846 0.2077,-0.8594 0.1142,-0.1442 0.2737,-0.2165 0.4784,-0.2165zm0 0.3361c-0.0487,0 -0.0925,0.0158 -0.1309,0.0468 -0.0384,0.0315 -0.0684,0.0876 -0.0896,0.1683 -0.0275,0.1048 -0.0418,0.281 -0.0418,0.5291 0,0.248 0.0128,0.4183 0.0374,0.5109 0.0251,0.093 0.0566,0.1545 0.0945,0.1855 0.0384,0.0305 0.0817,0.0463 0.1304,0.0463 0.0492,0 0.093,-0.0158 0.1314,-0.0473 0.0384,-0.031 0.0684,-0.0871 0.0896,-0.1678 0.0276,-0.1039 0.0418,-0.2796 0.0418,-0.5276 0,-0.2481 -0.0128,-0.4184 -0.0374,-0.5114 -0.0251,-0.0925 -0.0566,-0.1545 -0.0945,-0.186 -0.0384,-0.031 -0.0817,-0.0468 -0.1309,-0.0468z"/>
  <path id="1" class="fil1" d="M9.908 9.8402l-0.405 0 0 -1.5272c-0.1482,0.1388 -0.3224,0.2412 -0.5232,0.3071l0 -0.3676c0.1053,-0.0345 0.2205,-0.0999 0.3445,-0.1964 0.124,-0.097 0.2092,-0.2097 0.2549,-0.3386l0.3288 0 0 2.1227z"/>
  <path class="fil1" d="M8.1512 18.275c0.2052,0 0.3652,0.0733 0.4804,0.2195 0.1373,0.1727 0.2062,0.4597 0.2062,0.8608 0,0.3996 -0.0694,0.6871 -0.2077,0.8623 -0.1142,0.1442 -0.2737,0.216 -0.4789,0.216 -0.2052,0 -0.3711,-0.0787 -0.4971,-0.2372 -0.126,-0.158 -0.189,-0.44 -0.189,-0.8455 0,-0.3982 0.0694,-0.6846 0.2077,-0.8594 0.1142,-0.1442 0.2737,-0.2165 0.4784,-0.2165zm0 0.3361c-0.0487,0 -0.0925,0.0158 -0.1309,0.0468 -0.0384,0.0315 -0.0684,0.0876 -0.0896,0.1683 -0.0275,0.1048 -0.0418,0.281 -0.0418,0.5291 0,0.248 0.0128,0.4183 0.0374,0.5109 0.0251,0.093 0.0566,0.1545 0.0945,0.1855 0.0384,0.0305 0.0817,0.0463 0.1304,0.0463 0.0492,0 0.093,-0.0158 0.1314,-0.0473 0.0384,-0.031 0.0684,-0.0871 0.0896,-0.1678 0.0276,-0.1039 0.0418,-0.2796 0.0418,-0.5276 0,-0.2481 -0.0128,-0.4184 -0.0374,-0.5114 -0.0251,-0.0925 -0.0566,-0.1545 -0.0945,-0.186 -0.0384,-0.031 -0.0817,-0.0468 -0.1309,-0.0468z"/>
  <path id="1" class="fil1" d="M9.4565 19.2573c-0.1049,-0.0442 -0.1811,-0.1053 -0.2284,-0.1825 -0.0477,-0.0773 -0.0714,-0.1625 -0.0714,-0.2545 0,-0.1575 0.0547,-0.2879 0.1649,-0.3908 0.1103,-0.1028 0.2668,-0.1545 0.4695,-0.1545 0.2008,0 0.3569,0.0517 0.4676,0.1545 0.1112,0.1029 0.1668,0.2333 0.1668,0.3908 0,0.0979 -0.0255,0.1851 -0.0767,0.2618 -0.0507,0.0763 -0.1226,0.1349 -0.2146,0.1752 0.1171,0.0468 0.2062,0.1157 0.2672,0.2063 0.0611,0.09 0.0916,0.1944 0.0916,0.3125 0,0.1954 -0.062,0.3539 -0.1866,0.4759 -0.1245,0.1221 -0.2898,0.1831 -0.4966,0.1831 -0.1924,0 -0.3523,-0.0502 -0.4803,-0.1511 -0.1511,-0.1196 -0.2264,-0.283 -0.2264,-0.4907 0,-0.1142 0.0285,-0.219 0.0851,-0.315 0.0566,-0.0954 0.1462,-0.1693 0.2683,-0.221zm0.0836 -0.408c0,0.0808 0.0227,0.1438 0.0685,0.1885 0.0457,0.0453 0.1063,0.068 0.1825,0.068 0.0768,0 0.1383,-0.0227 0.1846,-0.0684 0.0458,-0.0458 0.0689,-0.1088 0.0689,-0.1895 0,-0.0763 -0.0226,-0.1369 -0.0684,-0.1826 -0.0458,-0.0458 -0.1058,-0.0684 -0.1811,-0.0684 -0.0778,0 -0.1398,0.0231 -0.1861,0.0689 -0.0457,0.0462 -0.0689,0.1073 -0.0689,0.1835zm-0.0374 0.9051c0,0.1118 0.0286,0.1989 0.0857,0.2614 0.0571,0.0625 0.1284,0.0935 0.2141,0.0935 0.0836,0 0.153,-0.03 0.2077,-0.0901 0.0546,-0.06 0.0822,-0.1466 0.0822,-0.2603 0,-0.099 -0.0281,-0.1787 -0.0837,-0.2387 -0.0556,-0.0601 -0.1265,-0.0901 -0.2121,-0.0901 -0.099,0 -0.1728,0.0345 -0.221,0.1024 -0.0487,0.0684 -0.0729,0.1422 -0.0729,0.2219z"/>
  <path class="fil1" d="M8.1056 33.7069l-0.405 0 0 -1.5272c-0.1482,0.1388 -0.3224,0.2412 -0.5232,0.3071l0 -0.3676c0.1053,-0.0345 0.2205,-0.0999 0.3445,-0.1964 0.124,-0.097 0.2092,-0.2097 0.2549,-0.3386l0.3288 0 0 2.1227z"/>
  <path id="1" class="fil1" d="M8.7174 33.1631l0.4036 -0.0414c0.0113,0.0911 0.0458,0.1634 0.1024,0.2166 0.0566,0.0536 0.122,0.0802 0.1958,0.0802 0.0847,0 0.1565,-0.0345 0.2151,-0.1029 0.0586,-0.0689 0.0881,-0.1727 0.0881,-0.311 0,-0.1295 -0.029,-0.2269 -0.0876,-0.2919 -0.0581,-0.0649 -0.1339,-0.0974 -0.2269,-0.0974 -0.1161,0 -0.2205,0.0517 -0.313,0.1545l-0.3288 -0.0477 0.2077 -1.1 1.0715 0 0 0.379 -0.7644 0 -0.0635 0.3592c0.0906,-0.0452 0.1826,-0.0679 0.2771,-0.0679 0.1797,0 0.3323,0.0655 0.4568,0.1959 0.125,0.1309 0.1875,0.3007 0.1875,0.5094 0,0.1737 -0.0502,0.3292 -0.1511,0.4656 -0.1378,0.1865 -0.3283,0.2795 -0.5724,0.2795 -0.1954,0 -0.3544,-0.0521 -0.4774,-0.157 -0.123,-0.1048 -0.1969,-0.2456 -0.2205,-0.4227z"/>
  <path class="fil1" d="M8.0422 42.5631l0 0.3765 -1.4204 0c0.0158,-0.1422 0.0616,-0.2771 0.1388,-0.4046 0.0768,-0.1274 0.2289,-0.2962 0.4553,-0.5069 0.1831,-0.1698 0.2948,-0.2854 0.3361,-0.346 0.0556,-0.0837 0.0837,-0.1663 0.0837,-0.248 0,-0.0901 -0.0241,-0.1595 -0.0728,-0.2082 -0.0488,-0.0487 -0.1157,-0.0729 -0.2013,-0.0729 -0.0847,0 -0.1516,0.0256 -0.2018,0.0763 -0.0497,0.0512 -0.0788,0.1359 -0.0867,0.254l-0.4035 -0.0404c0.0241,-0.2229 0.0994,-0.3829 0.2264,-0.4803 0.1269,-0.097 0.2854,-0.1457 0.4759,-0.1457 0.2087,0 0.3726,0.0566 0.4917,0.1688 0.1191,0.1127 0.1786,0.2525 0.1786,0.4198 0,0.095 -0.0172,0.1856 -0.0512,0.2717 -0.0339,0.0861 -0.0881,0.1762 -0.1619,0.2702 -0.0492,0.0625 -0.1378,0.1526 -0.2653,0.2697 -0.1279,0.1171 -0.2091,0.1954 -0.2431,0.2338 -0.034,0.0384 -0.062,0.0758 -0.0832,0.1122l0.8047 0z"/>
  <path id="1" class="fil1" d="M9.6846 42.5631l0 0.3765 -1.4204 0c0.0158,-0.1422 0.0616,-0.2771 0.1388,-0.4046 0.0768,-0.1274 0.2289,-0.2962 0.4553,-0.5069 0.1831,-0.1698 0.2948,-0.2854 0.3361,-0.346 0.0556,-0.0837 0.0837,-0.1663 0.0837,-0.248 0,-0.0901 -0.0241,-0.1595 -0.0728,-0.2082 -0.0488,-0.0487 -0.1157,-0.0729 -0.2013,-0.0729 -0.0847,0 -0.1516,0.0256 -0.2018,0.0763 -0.0497,0.0512 -0.0788,0.1359 -0.0867,0.254l-0.4035 -0.0404c0.0241,-0.2229 0.0994,-0.3829 0.2264,-0.4803 0.1269,-0.097 0.2854,-0.1457 0.4759,-0.1457 0.2087,0 0.3726,0.0566 0.4917,0.1688 0.1191,0.1127 0.1786,0.2525 0.1786,0.4198 0,0.095 -0.0172,0.1856 -0.0512,0.2717 -0.0339,0.0861 -0.0881,0.1762 -0.1619,0.2702 -0.0492,0.0625 -0.1378,0.1526 -0.2653,0.2697 -0.1279,0.1171 -0.2091,0.1954 -0.2431,0.2338 -0.034,0.0384 -0.062,0.0758 -0.0832,0.1122l0.8047 0z"/>
  <path class="fil1" d="M21.7779 7.5587c0.2052,0 0.3652,0.0733 0.4804,0.2195 0.1373,0.1727 0.2062,0.4597 0.2062,0.8608 0,0.3996 -0.0694,0.6871 -0.2077,0.8623 -0.1142,0.1442 -0.2737,0.216 -0.4789,0.216 -0.2052,0 -0.3711,-0.0787 -0.4971,-0.2372 -0.126,-0.158 -0.189,-0.44 -0.189,-0.8455 0,-0.3982 0.0694,-0.6846 0.2077,-0.8594 0.1142,-0.1442 0.2737,-0.2165 0.4784,-0.2165zm0 0.3361c-0.0487,0 -0.0925,0.0158 -0.1309,0.0468 -0.0384,0.0315 -0.0684,0.0876 -0.0896,0.1683 -0.0275,0.1048 -0.0418,0.281 -0.0418,0.5291 0,0.248 0.0128,0.4183 0.0374,0.5109 0.0251,0.093 0.0566,0.1545 0.0945,0.1855 0.0384,0.0305 0.0817,0.0463 0.1304,0.0463 0.0492,0 0.093,-0.0158 0.1314,-0.0473 0.0384,-0.031 0.0684,-0.0871 0.0896,-0.1678 0.0276,-0.1039 0.0418,-0.2796 0.0418,-0.5276 0,-0.2481 -0.0128,-0.4184 -0.0374,-0.5114 -0.0251,-0.0925 -0.0566,-0.1545 -0.0945,-0.186 -0.0384,-0.031 -0.0817,-0.0468 -0.1309,-0.0468z"/>
  <path id="1" class="fil1" d="M24.1039 9.3049l0 0.3765 -1.4204 0c0.0158,-0.1422 0.0616,-0.2771 0.1388,-0.4046 0.0768,-0.1274 0.2289,-0.2962 0.4553,-0.5069 0.1831,-0.1698 0.2948,-0.2854 0.3361,-0.346 0.0556,-0.0837 0.0837,-0.1663 0.0837,-0.248 0,-0.0901 -0.0241,-0.1595 -0.0728,-0.2082 -0.0488,-0.0487 -0.1157,-0.0729 -0.2013,-0.0729 -0.0847,0 -0.1516,0.0256 -0.2018,0.0763 -0.0497,0.0512 -0.0788,0.1359 -0.0867,0.254l-0.4035 -0.0404c0.0241,-0.2229 0.0994,-0.3829 0.2264,-0.4803 0.1269,-0.097 0.2854,-0.1457 0.4759,-0.1457 0.2087,0 0.3726,0.0566 0.4917,0.1688 0.1191,0.1127 0.1786,0.2525 0.1786,0.4198 0,0.095 -0.0172,0.1856 -0.0512,0.2717 -0.0339,0.0861 -0.0881,0.1762 -0.1619,0.2702 -0.0492,0.0625 -0.1378,0.1526 -0.2653,0.2697 -0.1279,0.1171 -0.2091,0.1954 -0.2431,0.2338 -0.034,0.0384 -0.062,0.0758 -0.0832,0.1122l0.8047 0z"/>
  <path class="fil1" d="M22.0154 18.1162c0.2052,0 0.3652,0.0733 0.4804,0.2195 0.1373,0.1727 0.2062,0.4597 0.2062,0.8608 0,0.3996 -0.0694,0.6871 -0.2077,0.8623 -0.1142,0.1442 -0.2737,0.216 -0.4789,0.216 -0.2052,0 -0.3711,-0.0787 -0.4971,-0.2372 -0.126,-0.158 -0.189,-0.44 -0.189,-0.8455 0,-0.3982 0.0694,-0.6846 0.2077,-0.8594 0.1142,-0.1442 0.2737,-0.2165 0.4784,-0.2165zm0 0.3361c-0.0487,0 -0.0925,0.0158 -0.1309,0.0468 -0.0384,0.0315 -0.0684,0.0876 -0.0896,0.1683 -0.0275,0.1048 -0.0418,0.281 -0.0418,0.5291 0,0.248 0.0128,0.4183 0.0374,0.5109 0.0251,0.093 0.0566,0.1545 0.0945,0.1855 0.0384,0.0305 0.0817,0.0463 0.1304,0.0463 0.0492,0 0.093,-0.0158 0.1314,-0.0473 0.0384,-0.031 0.0684,-0.0871 0.0896,-0.1678 0.0276,-0.1039 0.0418,-0.2796 0.0418,-0.5276 0,-0.2481 -0.0128,-0.4184 -0.0374,-0.5114 -0.0251,-0.0925 -0.0566,-0.1545 -0.0945,-0.186 -0.0384,-0.031 -0.0817,-0.0468 -0.1309,-0.0468z"/>
  <path id="1" class="fil1" d="M22.9816 19.7502l0.3922 -0.0433c0.0099,0.0797 0.035,0.1388 0.0753,0.1771 0.0404,0.0384 0.0935,0.0576 0.16,0.0576 0.0837,0 0.1545,-0.0384 0.2131,-0.1151 0.059,-0.0768 0.0965,-0.2363 0.1127,-0.4789 -0.1019,0.1186 -0.2294,0.1777 -0.3819,0.1777 -0.1664,0 -0.3101,-0.0645 -0.4307,-0.1925 -0.1206,-0.1284 -0.1811,-0.2953 -0.1811,-0.501 0,-0.2146 0.064,-0.3873 0.1915,-0.5187 0.1269,-0.131 0.2894,-0.1969 0.4862,-0.1969 0.2146,0 0.3903,0.0832 0.5281,0.249 0.1373,0.1659 0.2062,0.4385 0.2062,0.818 0,0.3868 -0.0718,0.6654 -0.215,0.8367 -0.1433,0.1708 -0.3298,0.2564 -0.5596,0.2564 -0.1654,0 -0.2988,-0.0438 -0.4007,-0.1319 -0.1018,-0.0881 -0.1673,-0.2195 -0.1963,-0.3942zm0.9174 -0.8854c0,-0.1309 -0.0301,-0.2323 -0.0901,-0.3042 -0.06,-0.0723 -0.1299,-0.1083 -0.2087,-0.1083 -0.0748,0 -0.1373,0.0296 -0.1865,0.0886 -0.0497,0.0591 -0.0743,0.156 -0.0743,0.2909 0,0.1363 0.027,0.2367 0.0807,0.3002 0.0536,0.064 0.1211,0.096 0.2018,0.096 0.0777,0 0.1437,-0.0305 0.1968,-0.092 0.0537,-0.0616 0.0803,-0.1521 0.0803,-0.2712z"/>
  <path class="fil1" d="M21.811 33.0189l-0.405 0 0 -1.5272c-0.1482,0.1388 -0.3224,0.2412 -0.5232,0.3071l0 -0.3676c0.1053,-0.0345 0.2205,-0.0999 0.3445,-0.1964 0.124,-0.097 0.2092,-0.2097 0.2549,-0.3386l0.3288 0 0 2.1227z"/>
  <path id="1" class="fil1" d="M23.7896 31.4228l-0.3923 0.0433c-0.0094,-0.0807 -0.0345,-0.1403 -0.0748,-0.1791 -0.0404,-0.0384 -0.093,-0.0576 -0.1575,-0.0576 -0.0851,0 -0.1575,0.0384 -0.217,0.1156 -0.0591,0.0768 -0.096,0.2368 -0.1118,0.4799 0.1014,-0.1191 0.2264,-0.1787 0.3765,-0.1787 0.1693,0 0.314,0.0645 0.4346,0.1935 0.1206,0.1284 0.1811,0.2948 0.1811,0.4985 0,0.2166 -0.0635,0.3898 -0.1904,0.5207 -0.1265,0.1305 -0.2899,0.1959 -0.4888,0.1959 -0.2131,0 -0.3888,-0.0827 -0.5261,-0.2485 -0.1373,-0.1659 -0.2062,-0.4376 -0.2062,-0.8155 0,-0.3874 0.0714,-0.6664 0.2146,-0.8377 0.1432,-0.1713 0.3292,-0.2569 0.5581,-0.2569 0.1605,0 0.2933,0.0453 0.3987,0.1348 0.1053,0.0901 0.1722,0.2205 0.2013,0.3918zm-0.9184 0.8839c0,0.1314 0.03,0.2333 0.0905,0.3047 0.0606,0.0718 0.13,0.1078 0.2077,0.1078 0.0753,0 0.1373,-0.0296 0.1875,-0.0881 0.0502,-0.0586 0.0749,-0.1551 0.0749,-0.2884 0,-0.1374 -0.0266,-0.2382 -0.0808,-0.3022 -0.0536,-0.064 -0.121,-0.096 -0.2018,-0.096 -0.0777,0 -0.1437,0.0305 -0.1973,0.0915 -0.0542,0.0611 -0.0807,0.1516 -0.0807,0.2707z"/>
  <path class="fil1" d="M21.9064 42.4043l0 0.3765 -1.4204 0c0.0158,-0.1422 0.0616,-0.2771 0.1388,-0.4046 0.0768,-0.1274 0.2289,-0.2962 0.4553,-0.5069 0.1831,-0.1698 0.2948,-0.2854 0.3361,-0.346 0.0556,-0.0837 0.0837,-0.1663 0.0837,-0.248 0,-0.0901 -0.0241,-0.1595 -0.0728,-0.2082 -0.0488,-0.0487 -0.1157,-0.0729 -0.2013,-0.0729 -0.0847,0 -0.1516,0.0256 -0.2018,0.0763 -0.0497,0.0512 -0.0788,0.1359 -0.0867,0.254l-0.4035 -0.0404c0.0241,-0.2229 0.0994,-0.3829 0.2264,-0.4803 0.1269,-0.097 0.2854,-0.1457 0.4759,-0.1457 0.2087,0 0.3726,0.0566 0.4917,0.1688 0.1191,0.1127 0.1786,0.2525 0.1786,0.4198 0,0.095 -0.0172,0.1856 -0.0512,0.2717 -0.0339,0.0861 -0.0881,0.1762 -0.1619,0.2702 -0.0492,0.0625 -0.1378,0.1526 -0.2653,0.2697 -0.1279,0.1171 -0.2091,0.1954 -0.2431,0.2338 -0.034,0.0384 -0.062,0.0758 -0.0832,0.1122l0.8047 0z"/>
  <path id="1" class="fil1" d="M22.1663 42.2197l0.3918 -0.0472c0.0128,0.0999 0.0463,0.1762 0.1014,0.2288 0.0546,0.0532 0.1211,0.0798 0.1988,0.0798 0.0837,0 0.1541,-0.032 0.2112,-0.0955 0.057,-0.0635 0.0856,-0.1486 0.0856,-0.2564 0,-0.1019 -0.0271,-0.1826 -0.0822,-0.2422 -0.0546,-0.06 -0.1216,-0.0895 -0.2003,-0.0895 -0.0517,0 -0.1137,0.0098 -0.1861,0.03l0.0448 -0.3298c0.1098,0.0025 0.1935,-0.0211 0.251,-0.0713 0.0576,-0.0507 0.0867,-0.1177 0.0867,-0.2013 0,-0.0714 -0.0212,-0.128 -0.0635,-0.1703 -0.0424,-0.0424 -0.099,-0.0635 -0.1688,-0.0635 -0.0694,0 -0.1285,0.0241 -0.1772,0.0723 -0.0492,0.0478 -0.0793,0.1182 -0.0896,0.2102l-0.3735 -0.063c0.026,-0.128 0.0649,-0.2303 0.1176,-0.3066 0.0521,-0.0763 0.1255,-0.1364 0.219,-0.1802 0.094,-0.0438 0.1988,-0.0659 0.315,-0.0659 0.1993,0 0.3588,0.0635 0.4789,0.1905 0.0989,0.1038 0.1486,0.2209 0.1486,0.3519 0,0.1855 -0.1014,0.3336 -0.3042,0.4439 0.1211,0.0261 0.2176,0.0841 0.2904,0.1747 0.0724,0.0901 0.1088,0.1993 0.1088,0.3273 0,0.1855 -0.0679,0.3435 -0.2033,0.4744 -0.1353,0.1305 -0.3041,0.1959 -0.5059,0.1959 -0.1915,0 -0.35,-0.0551 -0.476,-0.1648 -0.126,-0.1103 -0.1988,-0.254 -0.219,-0.4322z"/>
  <path class="fil1" d="M35.6421 7.3999c0.2052,0 0.3652,0.0733 0.4804,0.2195 0.1373,0.1727 0.2062,0.4597 0.2062,0.8608 0,0.3996 -0.0694,0.6871 -0.2077,0.8623 -0.1142,0.1442 -0.2737,0.216 -0.4789,0.216 -0.2052,0 -0.3711,-0.0787 -0.4971,-0.2372 -0.126,-0.158 -0.189,-0.44 -0.189,-0.8455 0,-0.3982 0.0694,-0.6846 0.2077,-0.8594 0.1142,-0.1442 0.2737,-0.2165 0.4784,-0.2165zm0 0.3361c-0.0487,0 -0.0925,0.0158 -0.1309,0.0468 -0.0384,0.0315 -0.0684,0.0876 -0.0896,0.1683 -0.0275,0.1048 -0.0418,0.281 -0.0418,0.5291 0,0.248 0.0128,0.4183 0.0374,0.5109 0.0251,0.093 0.0566,0.1545 0.0945,0.1855 0.0384,0.0305 0.0817,0.0463 0.1304,0.0463 0.0492,0 0.093,-0.0158 0.1314,-0.0473 0.0384,-0.031 0.0684,-0.0871 0.0896,-0.1678 0.0276,-0.1039 0.0418,-0.2796 0.0418,-0.5276 0,-0.2481 -0.0128,-0.4184 -0.0374,-0.5114 -0.0251,-0.0925 -0.0566,-0.1545 -0.0945,-0.186 -0.0384,-0.031 -0.0817,-0.0468 -0.1309,-0.0468z"/>
  <path id="1" class="fil1" d="M36.5856 8.9615l0.3918 -0.0472c0.0128,0.0999 0.0463,0.1762 0.1014,0.2288 0.0546,0.0532 0.1211,0.0798 0.1988,0.0798 0.0837,0 0.1541,-0.032 0.2112,-0.0955 0.057,-0.0635 0.0856,-0.1486 0.0856,-0.2564 0,-0.1019 -0.0271,-0.1826 -0.0822,-0.2422 -0.0546,-0.06 -0.1216,-0.0895 -0.2003,-0.0895 -0.0517,0 -0.1137,0.0098 -0.1861,0.03l0.0448 -0.3298c0.1098,0.0025 0.1935,-0.0211 0.251,-0.0713 0.0576,-0.0507 0.0867,-0.1177 0.0867,-0.2013 0,-0.0714 -0.0212,-0.128 -0.0635,-0.1703 -0.0424,-0.0424 -0.099,-0.0635 -0.1688,-0.0635 -0.0694,0 -0.1285,0.0241 -0.1772,0.0723 -0.0492,0.0478 -0.0793,0.1182 -0.0896,0.2102l-0.3735 -0.063c0.026,-0.128 0.0649,-0.2303 0.1176,-0.3066 0.0521,-0.0763 0.1255,-0.1364 0.219,-0.1802 0.094,-0.0438 0.1988,-0.0659 0.315,-0.0659 0.1993,0 0.3588,0.0635 0.4789,0.1905 0.0989,0.1038 0.1486,0.2209 0.1486,0.3519 0,0.1855 -0.1014,0.3336 -0.3042,0.4439 0.1211,0.0261 0.2176,0.0841 0.2904,0.1747 0.0724,0.0901 0.1088,0.1993 0.1088,0.3273 0,0.1855 -0.0679,0.3435 -0.2033,0.4744 -0.1353,0.1305 -0.3041,0.1959 -0.5059,0.1959 -0.1915,0 -0.35,-0.0551 -0.476,-0.1648 -0.126,-0.1103 -0.1988,-0.254 -0.219,-0.4322z"/>
  <path class="fil1" d="M36.2315 20.0801l-0.405 0 0 -1.5272c-0.1482,0.1388 -0.3224,0.2412 -0.5232,0.3071l0 -0.3676c0.1053,-0.0345 0.2205,-0.0999 0.3445,-0.1964 0.124,-0.097 0.2092,-0.2097 0.2549,-0.3386l0.3288 0 0 2.1227z"/>
  <path id="1" class="fil1" d="M37.522 17.9574c0.2052,0 0.3652,0.0733 0.4804,0.2195 0.1373,0.1727 0.2062,0.4597 0.2062,0.8608 0,0.3996 -0.0694,0.6871 -0.2077,0.8623 -0.1142,0.1442 -0.2737,0.216 -0.4789,0.216 -0.2052,0 -0.3711,-0.0787 -0.4971,-0.2372 -0.126,-0.158 -0.189,-0.44 -0.189,-0.8455 0,-0.3982 0.0694,-0.6846 0.2077,-0.8594 0.1142,-0.1442 0.2737,-0.2165 0.4784,-0.2165zm0 0.3361c-0.0487,0 -0.0925,0.0158 -0.1309,0.0468 -0.0384,0.0315 -0.0684,0.0876 -0.0896,0.1683 -0.0275,0.1048 -0.0418,0.281 -0.0418,0.5291 0,0.248 0.0128,0.4183 0.0374,0.5109 0.0251,0.093 0.0566,0.1545 0.0945,0.1855 0.0384,0.0305 0.0817,0.0463 0.1304,0.0463 0.0492,0 0.093,-0.0158 0.1314,-0.0473 0.0384,-0.031 0.0684,-0.0871 0.0896,-0.1678 0.0276,-0.1039 0.0418,-0.2796 0.0418,-0.5276 0,-0.2481 -0.0128,-0.4184 -0.0374,-0.5114 -0.0251,-0.0925 -0.0566,-0.1545 -0.0945,-0.186 -0.0384,-0.031 -0.0817,-0.0468 -0.1309,-0.0468z"/>
  <path class="fil1" d="M35.7706 42.2455l0 0.3765 -1.4204 0c0.0158,-0.1422 0.0616,-0.2771 0.1388,-0.4046 0.0768,-0.1274 0.2289,-0.2962 0.4553,-0.5069 0.1831,-0.1698 0.2948,-0.2854 0.3361,-0.346 0.0556,-0.0837 0.0837,-0.1663 0.0837,-0.248 0,-0.0901 -0.0241,-0.1595 -0.0728,-0.2082 -0.0488,-0.0487 -0.1157,-0.0729 -0.2013,-0.0729 -0.0847,0 -0.1516,0.0256 -0.2018,0.0763 -0.0497,0.0512 -0.0788,0.1359 -0.0867,0.254l-0.4035 -0.0404c0.0241,-0.2229 0.0994,-0.3829 0.2264,-0.4803 0.1269,-0.097 0.2854,-0.1457 0.4759,-0.1457 0.2087,0 0.3726,0.0566 0.4917,0.1688 0.1191,0.1127 0.1786,0.2525 0.1786,0.4198 0,0.095 -0.0172,0.1856 -0.0512,0.2717 -0.0339,0.0861 -0.0881,0.1762 -0.1619,0.2702 -0.0492,0.0625 -0.1378,0.1526 -0.2653,0.2697 -0.1279,0.1171 -0.2091,0.1954 -0.2431,0.2338 -0.034,0.0384 -0.062,0.0758 -0.0832,0.1122l0.8047 0z"/>
  <path id="1" class="fil1" d="M36.8392 42.622l0 -0.4252 -0.8653 0 0 -0.3549 0.9174 -1.3426 0.3401 0 0 1.3411 0.2623 0 0 0.3564 -0.2623 0 0 0.4252 -0.3922 0zm0 -0.7816l0 -0.7225 -0.4858 0.7225 0.4858 0z"/>
  <path class="fil1" d="M49.5063 7.2411c0.2052,0 0.3652,0.0733 0.4804,0.2195 0.1373,0.1727 0.2062,0.4597 0.2062,0.8608 0,0.3996 -0.0694,0.6871 -0.2077,0.8623 -0.1142,0.1442 -0.2737,0.216 -0.4789,0.216 -0.2052,0 -0.3711,-0.0787 -0.4971,-0.2372 -0.126,-0.158 -0.189,-0.44 -0.189,-0.8455 0,-0.3982 0.0694,-0.6846 0.2077,-0.8594 0.1142,-0.1442 0.2737,-0.2165 0.4784,-0.2165zm0 0.3361c-0.0487,0 -0.0925,0.0158 -0.1309,0.0468 -0.0384,0.0315 -0.0684,0.0876 -0.0896,0.1683 -0.0275,0.1048 -0.0418,0.281 -0.0418,0.5291 0,0.248 0.0128,0.4183 0.0374,0.5109 0.0251,0.093 0.0566,0.1545 0.0945,0.1855 0.0384,0.0305 0.0817,0.0463 0.1304,0.0463 0.0492,0 0.093,-0.0158 0.1314,-0.0473 0.0384,-0.031 0.0684,-0.0871 0.0896,-0.1678 0.0276,-0.1039 0.0418,-0.2796 0.0418,-0.5276 0,-0.2481 -0.0128,-0.4184 -0.0374,-0.5114 -0.0251,-0.0925 -0.0566,-0.1545 -0.0945,-0.186 -0.0384,-0.031 -0.0817,-0.0468 -0.1309,-0.0468z"/>
  <path id="1" class="fil1" d="M51.2585 9.3638l0 -0.4252 -0.8653 0 0 -0.3549 0.9174 -1.3426 0.3401 0 0 1.3411 0.2623 0 0 0.3564 -0.2623 0 0 0.4252 -0.3922 0zm0 -0.7816l0 -0.7225 -0.4858 0.7225 0.4858 0z"/>
  <path class="fil1" d="M50.0957 19.9213l-0.405 0 0 -1.5272c-0.1482,0.1388 -0.3224,0.2412 -0.5232,0.3071l0 -0.3676c0.1053,-0.0345 0.2205,-0.0999 0.3445,-0.1964 0.124,-0.097 0.2092,-0.2097 0.2549,-0.3386l0.3288 0 0 2.1227z"/>
  <path id="1" class="fil1" d="M51.5752 19.9213l-0.405 0 0 -1.5272c-0.1482,0.1388 -0.3224,0.2412 -0.5232,0.3071l0 -0.3676c0.1053,-0.0345 0.2205,-0.0999 0.3445,-0.1964 0.124,-0.097 0.2092,-0.2097 0.2549,-0.3386l0.3288 0 0 2.1227z"/>
  <path class="fil1" d="M49.9628 32.7013l-0.405 0 0 -1.5272c-0.1482,0.1388 -0.3224,0.2412 -0.5232,0.3071l0 -0.3676c0.1053,-0.0345 0.2205,-0.0999 0.3445,-0.1964 0.124,-0.097 0.2092,-0.2097 0.2549,-0.3386l0.3288 0 0 2.1227z"/>
  <path id="1" class="fil1" d="M50.9162 31.5609c-0.1049,-0.0442 -0.1811,-0.1053 -0.2284,-0.1825 -0.0477,-0.0773 -0.0714,-0.1625 -0.0714,-0.2545 0,-0.1575 0.0547,-0.2879 0.1649,-0.3908 0.1103,-0.1028 0.2668,-0.1545 0.4695,-0.1545 0.2008,0 0.3569,0.0517 0.4676,0.1545 0.1112,0.1029 0.1668,0.2333 0.1668,0.3908 0,0.0979 -0.0255,0.1851 -0.0767,0.2618 -0.0507,0.0763 -0.1226,0.1349 -0.2146,0.1752 0.1171,0.0468 0.2062,0.1157 0.2672,0.2063 0.0611,0.09 0.0916,0.1944 0.0916,0.3125 0,0.1954 -0.062,0.3539 -0.1866,0.4759 -0.1245,0.1221 -0.2898,0.1831 -0.4966,0.1831 -0.1924,0 -0.3523,-0.0502 -0.4803,-0.1511 -0.1511,-0.1196 -0.2264,-0.283 -0.2264,-0.4907 0,-0.1142 0.0285,-0.219 0.0851,-0.315 0.0566,-0.0954 0.1462,-0.1693 0.2683,-0.221zm0.0836 -0.408c0,0.0808 0.0227,0.1438 0.0685,0.1885 0.0457,0.0453 0.1063,0.068 0.1825,0.068 0.0768,0 0.1383,-0.0227 0.1846,-0.0684 0.0458,-0.0458 0.0689,-0.1088 0.0689,-0.1895 0,-0.0763 -0.0226,-0.1369 -0.0684,-0.1826 -0.0458,-0.0458 -0.1058,-0.0684 -0.1811,-0.0684 -0.0778,0 -0.1398,0.0231 -0.1861,0.0689 -0.0457,0.0462 -0.0689,0.1073 -0.0689,0.1835zm-0.0374 0.9051c0,0.1118 0.0286,0.1989 0.0857,0.2614 0.0571,0.0625 0.1284,0.0935 0.2141,0.0935 0.0836,0 0.153,-0.03 0.2077,-0.0901 0.0546,-0.06 0.0822,-0.1466 0.0822,-0.2603 0,-0.099 -0.0281,-0.1787 -0.0837,-0.2387 -0.0556,-0.0601 -0.1265,-0.0901 -0.2121,-0.0901 -0.099,0 -0.1728,0.0345 -0.221,0.1024 -0.0487,0.0684 -0.0729,0.1422 -0.0729,0.2219z"/>
  <path class="fil1" d="M50.4551 42.3513l0 0.3765 -1.4204 0c0.0158,-0.1422 0.0616,-0.2771 0.1388,-0.4046 0.0768,-0.1274 0.2289,-0.2962 0.4553,-0.5069 0.1831,-0.1698 0.2948,-0.2854 0.3361,-0.346 0.0556,-0.0837 0.0837,-0.1663 0.0837,-0.248 0,-0.0901 -0.0241,-0.1595 -0.0728,-0.2082 -0.0488,-0.0487 -0.1157,-0.0729 -0.2013,-0.0729 -0.0847,0 -0.1516,0.0256 -0.2018,0.0763 -0.0497,0.0512 -0.0788,0.1359 -0.0867,0.254l-0.4035 -0.0404c0.0241,-0.2229 0.0994,-0.3829 0.2264,-0.4803 0.1269,-0.097 0.2854,-0.1457 0.4759,-0.1457 0.2087,0 0.3726,0.0566 0.4917,0.1688 0.1191,0.1127 0.1786,0.2525 0.1786,0.4198 0,0.095 -0.0172,0.1856 -0.0512,0.2717 -0.0339,0.0861 -0.0881,0.1762 -0.1619,0.2702 -0.0492,0.0625 -0.1378,0.1526 -0.2653,0.2697 -0.1279,0.1171 -0.2091,0.1954 -0.2431,0.2338 -0.034,0.0384 -0.062,0.0758 -0.0832,0.1122l0.8047 0z"/>
  <path id="1" class="fil1" d="M50.7352 42.184l0.4036 -0.0414c0.0113,0.0911 0.0458,0.1634 0.1024,0.2166 0.0566,0.0536 0.122,0.0802 0.1958,0.0802 0.0847,0 0.1565,-0.0345 0.2151,-0.1029 0.0586,-0.0689 0.0881,-0.1727 0.0881,-0.311 0,-0.1295 -0.029,-0.2269 -0.0876,-0.2919 -0.0581,-0.0649 -0.1339,-0.0974 -0.2269,-0.0974 -0.1161,0 -0.2205,0.0517 -0.313,0.1545l-0.3288 -0.0477 0.2077 -1.1 1.0715 0 0 0.379 -0.7644 0 -0.0635 0.3592c0.0906,-0.0452 0.1826,-0.0679 0.2771,-0.0679 0.1797,0 0.3323,0.0655 0.4568,0.1959 0.125,0.1309 0.1875,0.3007 0.1875,0.5094 0,0.1737 -0.0502,0.3292 -0.1511,0.4656 -0.1378,0.1865 -0.3283,0.2795 -0.5724,0.2795 -0.1954,0 -0.3544,-0.0521 -0.4774,-0.157 -0.123,-0.1048 -0.1969,-0.2456 -0.2205,-0.4227z"/>
  <path class="fil1" d="M63.8469 6.6592c0.2052,0 0.3652,0.0733 0.4804,0.2195 0.1373,0.1727 0.2062,0.4597 0.2062,0.8608 0,0.3996 -0.0694,0.6871 -0.2077,0.8623 -0.1142,0.1442 -0.2737,0.216 -0.4789,0.216 -0.2052,0 -0.3711,-0.0787 -0.4971,-0.2372 -0.126,-0.158 -0.189,-0.44 -0.189,-0.8455 0,-0.3982 0.0694,-0.6846 0.2077,-0.8594 0.1142,-0.1442 0.2737,-0.2165 0.4784,-0.2165zm0 0.3361c-0.0487,0 -0.0925,0.0158 -0.1309,0.0468 -0.0384,0.0315 -0.0684,0.0876 -0.0896,0.1683 -0.0275,0.1048 -0.0418,0.281 -0.0418,0.5291 0,0.248 0.0128,0.4183 0.0374,0.5109 0.0251,0.093 0.0566,0.1545 0.0945,0.1855 0.0384,0.0305 0.0817,0.0463 0.1304,0.0463 0.0492,0 0.093,-0.0158 0.1314,-0.0473 0.0384,-0.031 0.0684,-0.0871 0.0896,-0.1678 0.0276,-0.1039 0.0418,-0.2796 0.0418,-0.5276 0,-0.2481 -0.0128,-0.4184 -0.0374,-0.5114 -0.0251,-0.0925 -0.0566,-0.1545 -0.0945,-0.186 -0.0384,-0.031 -0.0817,-0.0468 -0.1309,-0.0468z"/>
  <path id="1" class="fil1" d="M64.8106 8.2381l0.4036 -0.0414c0.0113,0.0911 0.0458,0.1634 0.1024,0.2166 0.0566,0.0536 0.122,0.0802 0.1958,0.0802 0.0847,0 0.1565,-0.0345 0.2151,-0.1029 0.0586,-0.0689 0.0881,-0.1727 0.0881,-0.311 0,-0.1295 -0.029,-0.2269 -0.0876,-0.2919 -0.0581,-0.0649 -0.1339,-0.0974 -0.2269,-0.0974 -0.1161,0 -0.2205,0.0517 -0.313,0.1545l-0.3288 -0.0477 0.2077 -1.1 1.0715 0 0 0.379 -0.7644 0 -0.0635 0.3592c0.0906,-0.0452 0.1826,-0.0679 0.2771,-0.0679 0.1797,0 0.3323,0.0655 0.4568,0.1959 0.125,0.1309 0.1875,0.3007 0.1875,0.5094 0,0.1737 -0.0502,0.3292 -0.1511,0.4656 -0.1378,0.1865 -0.3283,0.2795 -0.5724,0.2795 -0.1954,0 -0.3544,-0.0521 -0.4774,-0.157 -0.123,-0.1048 -0.1969,-0.2456 -0.2205,-0.4227z"/>
  <path class="fil1" d="M64.4363 19.3394l-0.405 0 0 -1.5272c-0.1482,0.1388 -0.3224,0.2412 -0.5232,0.3071l0 -0.3676c0.1053,-0.0345 0.2205,-0.0999 0.3445,-0.1964 0.124,-0.097 0.2092,-0.2097 0.2549,-0.3386l0.3288 0 0 2.1227z"/>
  <path id="1" class="fil1" d="M66.4104 18.9629l0 0.3765 -1.4204 0c0.0158,-0.1422 0.0616,-0.2771 0.1388,-0.4046 0.0768,-0.1274 0.2289,-0.2962 0.4553,-0.5069 0.1831,-0.1698 0.2948,-0.2854 0.3361,-0.346 0.0556,-0.0837 0.0837,-0.1663 0.0837,-0.248 0,-0.0901 -0.0241,-0.1595 -0.0728,-0.2082 -0.0488,-0.0487 -0.1157,-0.0729 -0.2013,-0.0729 -0.0847,0 -0.1516,0.0256 -0.2018,0.0763 -0.0497,0.0512 -0.0788,0.1359 -0.0867,0.254l-0.4035 -0.0404c0.0241,-0.2229 0.0994,-0.3829 0.2264,-0.4803 0.1269,-0.097 0.2854,-0.1457 0.4759,-0.1457 0.2087,0 0.3726,0.0566 0.4917,0.1688 0.1191,0.1127 0.1786,0.2525 0.1786,0.4198 0,0.095 -0.0172,0.1856 -0.0512,0.2717 -0.0339,0.0861 -0.0881,0.1762 -0.1619,0.2702 -0.0492,0.0625 -0.1378,0.1526 -0.2653,0.2697 -0.1279,0.1171 -0.2091,0.1954 -0.2431,0.2338 -0.034,0.0384 -0.062,0.0758 -0.0832,0.1122l0.8047 0z"/>
  <path class="fil1" d="M63.9859 32.3311l-0.405 0 0 -1.5272c-0.1482,0.1388 -0.3224,0.2412 -0.5232,0.3071l0 -0.3676c0.1053,-0.0345 0.2205,-0.0999 0.3445,-0.1964 0.124,-0.097 0.2092,-0.2097 0.2549,-0.3386l0.3288 0 0 2.1227z"/>
  <path id="1" class="fil1" d="M64.6002 31.8424l0.3922 -0.0433c0.0099,0.0797 0.035,0.1388 0.0753,0.1771 0.0404,0.0384 0.0935,0.0576 0.16,0.0576 0.0837,0 0.1545,-0.0384 0.2131,-0.1151 0.059,-0.0768 0.0965,-0.2363 0.1127,-0.4789 -0.1019,0.1186 -0.2294,0.1777 -0.3819,0.1777 -0.1664,0 -0.3101,-0.0645 -0.4307,-0.1925 -0.1206,-0.1284 -0.1811,-0.2953 -0.1811,-0.501 0,-0.2146 0.064,-0.3873 0.1915,-0.5187 0.1269,-0.131 0.2894,-0.1969 0.4862,-0.1969 0.2146,0 0.3903,0.0832 0.5281,0.249 0.1373,0.1659 0.2062,0.4385 0.2062,0.818 0,0.3868 -0.0718,0.6654 -0.215,0.8367 -0.1433,0.1708 -0.3298,0.2564 -0.5596,0.2564 -0.1654,0 -0.2988,-0.0438 -0.4007,-0.1319 -0.1018,-0.0881 -0.1673,-0.2195 -0.1963,-0.3942zm0.9174 -0.8854c0,-0.1309 -0.0301,-0.2323 -0.0901,-0.3042 -0.06,-0.0723 -0.1299,-0.1083 -0.2087,-0.1083 -0.0748,0 -0.1373,0.0296 -0.1865,0.0886 -0.0497,0.0591 -0.0743,0.156 -0.0743,0.2909 0,0.1363 0.027,0.2367 0.0807,0.3002 0.0536,0.064 0.1211,0.096 0.2018,0.096 0.0777,0 0.1437,-0.0305 0.1968,-0.092 0.0537,-0.0616 0.0803,-0.1521 0.0803,-0.2712z"/>
  <path class="fil1" d="M64.6898 42.325l0 0.3765 -1.4204 0c0.0158,-0.1422 0.0616,-0.2771 0.1388,-0.4046 0.0768,-0.1274 0.2289,-0.2962 0.4553,-0.5069 0.1831,-0.1698 0.2948,-0.2854 0.3361,-0.346 0.0556,-0.0837 0.0837,-0.1663 0.0837,-0.248 0,-0.0901 -0.0241,-0.1595 -0.0728,-0.2082 -0.0488,-0.0487 -0.1157,-0.0729 -0.2013,-0.0729 -0.0847,0 -0.1516,0.0256 -0.2018,0.0763 -0.0497,0.0512 -0.0788,0.1359 -0.0867,0.254l-0.4035 -0.0404c0.0241,-0.2229 0.0994,-0.3829 0.2264,-0.4803 0.1269,-0.097 0.2854,-0.1457 0.4759,-0.1457 0.2087,0 0.3726,0.0566 0.4917,0.1688 0.1191,0.1127 0.1786,0.2525 0.1786,0.4198 0,0.095 -0.0172,0.1856 -0.0512,0.2717 -0.0339,0.0861 -0.0881,0.1762 -0.1619,0.2702 -0.0492,0.0625 -0.1378,0.1526 -0.2653,0.2697 -0.1279,0.1171 -0.2091,0.1954 -0.2431,0.2338 -0.034,0.0384 -0.062,0.0758 -0.0832,0.1122l0.8047 0z"/>
  <path id="1" class="fil1" d="M66.3367 41.1054l-0.3923 0.0433c-0.0094,-0.0807 -0.0345,-0.1403 -0.0748,-0.1791 -0.0404,-0.0384 -0.093,-0.0576 -0.1575,-0.0576 -0.0851,0 -0.1575,0.0384 -0.217,0.1156 -0.0591,0.0768 -0.096,0.2368 -0.1118,0.4799 0.1014,-0.1191 0.2264,-0.1787 0.3765,-0.1787 0.1693,0 0.314,0.0645 0.4346,0.1935 0.1206,0.1284 0.1811,0.2948 0.1811,0.4985 0,0.2166 -0.0635,0.3898 -0.1904,0.5207 -0.1265,0.1305 -0.2899,0.1959 -0.4888,0.1959 -0.2131,0 -0.3888,-0.0827 -0.5261,-0.2485 -0.1373,-0.1659 -0.2062,-0.4376 -0.2062,-0.8155 0,-0.3874 0.0714,-0.6664 0.2146,-0.8377 0.1432,-0.1713 0.3292,-0.2569 0.5581,-0.2569 0.1605,0 0.2933,0.0453 0.3987,0.1348 0.1053,0.0901 0.1722,0.2205 0.2013,0.3918zm-0.9184 0.8839c0,0.1314 0.03,0.2333 0.0905,0.3047 0.0606,0.0718 0.13,0.1078 0.2077,0.1078 0.0753,0 0.1373,-0.0296 0.1875,-0.0881 0.0502,-0.0586 0.0749,-0.1551 0.0749,-0.2884 0,-0.1374 -0.0266,-0.2382 -0.0808,-0.3022 -0.0536,-0.064 -0.121,-0.096 -0.2018,-0.096 -0.0777,0 -0.1437,0.0305 -0.1973,0.0915 -0.0542,0.0611 -0.0807,0.1516 -0.0807,0.2707z"/>
  <path class="fil1" d="M80.9125 6.8975c0.2052,0 0.3652,0.0733 0.4804,0.2195 0.1373,0.1727 0.2062,0.4597 0.2062,0.8608 0,0.3996 -0.0694,0.6871 -0.2077,0.8623 -0.1142,0.1442 -0.2737,0.216 -0.4789,0.216 -0.2052,0 -0.3711,-0.0787 -0.4971,-0.2372 -0.126,-0.158 -0.189,-0.44 -0.189,-0.8455 0,-0.3982 0.0694,-0.6846 0.2077,-0.8594 0.1142,-0.1442 0.2737,-0.2165 0.4784,-0.2165zm0 0.3361c-0.0487,0 -0.0925,0.0158 -0.1309,0.0468 -0.0384,0.0315 -0.0684,0.0876 -0.0896,0.1683 -0.0275,0.1048 -0.0418,0.281 -0.0418,0.5291 0,0.248 0.0128,0.4183 0.0374,0.5109 0.0251,0.093 0.0566,0.1545 0.0945,0.1855 0.0384,0.0305 0.0817,0.0463 0.1304,0.0463 0.0492,0 0.093,-0.0158 0.1314,-0.0473 0.0384,-0.031 0.0684,-0.0871 0.0896,-0.1678 0.0276,-0.1039 0.0418,-0.2796 0.0418,-0.5276 0,-0.2481 -0.0128,-0.4184 -0.0374,-0.5114 -0.0251,-0.0925 -0.0566,-0.1545 -0.0945,-0.186 -0.0384,-0.031 -0.0817,-0.0468 -0.1309,-0.0468z"/>
  <path id="1" class="fil1" d="M83.243 7.4241l-0.3923 0.0433c-0.0094,-0.0807 -0.0345,-0.1403 -0.0748,-0.1791 -0.0404,-0.0384 -0.093,-0.0576 -0.1575,-0.0576 -0.0851,0 -0.1575,0.0384 -0.217,0.1156 -0.0591,0.0768 -0.096,0.2368 -0.1118,0.4799 0.1014,-0.1191 0.2264,-0.1787 0.3765,-0.1787 0.1693,0 0.314,0.0645 0.4346,0.1935 0.1206,0.1284 0.1811,0.2948 0.1811,0.4985 0,0.2166 -0.0635,0.3898 -0.1904,0.5207 -0.1265,0.1305 -0.2899,0.1959 -0.4888,0.1959 -0.2131,0 -0.3888,-0.0827 -0.5261,-0.2485 -0.1373,-0.1659 -0.2062,-0.4376 -0.2062,-0.8155 0,-0.3874 0.0714,-0.6664 0.2146,-0.8377 0.1432,-0.1713 0.3292,-0.2569 0.5581,-0.2569 0.1605,0 0.2933,0.0453 0.3987,0.1348 0.1053,0.0901 0.1722,0.2205 0.2013,0.3918zm-0.9184 0.8839c0,0.1314 0.03,0.2333 0.0905,0.3047 0.0606,0.0718 0.13,0.1078 0.2077,0.1078 0.0753,0 0.1373,-0.0296 0.1875,-0.0881 0.0502,-0.0586 0.0749,-0.1551 0.0749,-0.2884 0,-0.1374 -0.0266,-0.2382 -0.0808,-0.3022 -0.0536,-0.064 -0.121,-0.096 -0.2018,-0.096 -0.0777,0 -0.1437,0.0305 -0.1973,0.0915 -0.0542,0.0611 -0.0807,0.1516 -0.0807,0.2707z"/>
  <path class="fil1" d="M81.5019 19.5777l-0.405 0 0 -1.5272c-0.1482,0.1388 -0.3224,0.2412 -0.5232,0.3071l0 -0.3676c0.1053,-0.0345 0.2205,-0.0999 0.3445,-0.1964 0.124,-0.097 0.2092,-0.2097 0.2549,-0.3386l0.3288 0 0 2.1227z"/>
  <path id="1" class="fil1" d="M82.0935 19.0166l0.3918 -0.0472c0.0128,0.0999 0.0463,0.1762 0.1014,0.2288 0.0546,0.0532 0.1211,0.0798 0.1988,0.0798 0.0837,0 0.1541,-0.032 0.2112,-0.0955 0.057,-0.0635 0.0856,-0.1486 0.0856,-0.2564 0,-0.1019 -0.0271,-0.1826 -0.0822,-0.2422 -0.0546,-0.06 -0.1216,-0.0895 -0.2003,-0.0895 -0.0517,0 -0.1137,0.0098 -0.1861,0.03l0.0448 -0.3298c0.1098,0.0025 0.1935,-0.0211 0.251,-0.0713 0.0576,-0.0507 0.0867,-0.1177 0.0867,-0.2013 0,-0.0714 -0.0212,-0.128 -0.0635,-0.1703 -0.0424,-0.0424 -0.099,-0.0635 -0.1688,-0.0635 -0.0694,0 -0.1285,0.0241 -0.1772,0.0723 -0.0492,0.0478 -0.0793,0.1182 -0.0896,0.2102l-0.3735 -0.063c0.026,-0.128 0.0649,-0.2303 0.1176,-0.3066 0.0521,-0.0763 0.1255,-0.1364 0.219,-0.1802 0.094,-0.0438 0.1988,-0.0659 0.315,-0.0659 0.1993,0 0.3588,0.0635 0.4789,0.1905 0.0989,0.1038 0.1486,0.2209 0.1486,0.3519 0,0.1855 -0.1014,0.3336 -0.3042,0.4439 0.1211,0.0261 0.2176,0.0841 0.2904,0.1747 0.0724,0.0901 0.1088,0.1993 0.1088,0.3273 0,0.1855 -0.0679,0.3435 -0.2033,0.4744 -0.1353,0.1305 -0.3041,0.1959 -0.5059,0.1959 -0.1915,0 -0.35,-0.0551 -0.476,-0.1648 -0.126,-0.1103 -0.1988,-0.254 -0.219,-0.4322z"/>
  <path class="fil1" d="M81.6062 31.6631l0 0.3765 -1.4204 0c0.0158,-0.1422 0.0616,-0.2771 0.1388,-0.4046 0.0768,-0.1274 0.2289,-0.2962 0.4553,-0.5069 0.1831,-0.1698 0.2948,-0.2854 0.3361,-0.346 0.0556,-0.0837 0.0837,-0.1663 0.0837,-0.248 0,-0.0901 -0.0241,-0.1595 -0.0728,-0.2082 -0.0488,-0.0487 -0.1157,-0.0729 -0.2013,-0.0729 -0.0847,0 -0.1516,0.0256 -0.2018,0.0763 -0.0497,0.0512 -0.0788,0.1359 -0.0867,0.254l-0.4035 -0.0404c0.0241,-0.2229 0.0994,-0.3829 0.2264,-0.4803 0.1269,-0.097 0.2854,-0.1457 0.4759,-0.1457 0.2087,0 0.3726,0.0566 0.4917,0.1688 0.1191,0.1127 0.1786,0.2525 0.1786,0.4198 0,0.095 -0.0172,0.1856 -0.0512,0.2717 -0.0339,0.0861 -0.0881,0.1762 -0.1619,0.2702 -0.0492,0.0625 -0.1378,0.1526 -0.2653,0.2697 -0.1279,0.1171 -0.2091,0.1954 -0.2431,0.2338 -0.034,0.0384 -0.062,0.0758 -0.0832,0.1122l0.8047 0z"/>
  <path id="1" class="fil1" d="M82.565 29.9169c0.2052,0 0.3652,0.0733 0.4804,0.2195 0.1373,0.1727 0.2062,0.4597 0.2062,0.8608 0,0.3996 -0.0694,0.6871 -0.2077,0.8623 -0.1142,0.1442 -0.2737,0.216 -0.4789,0.216 -0.2052,0 -0.3711,-0.0787 -0.4971,-0.2372 -0.126,-0.158 -0.189,-0.44 -0.189,-0.8455 0,-0.3982 0.0694,-0.6846 0.2077,-0.8594 0.1142,-0.1442 0.2737,-0.2165 0.4784,-0.2165zm0 0.3361c-0.0487,0 -0.0925,0.0158 -0.1309,0.0468 -0.0384,0.0315 -0.0684,0.0876 -0.0896,0.1683 -0.0275,0.1048 -0.0418,0.281 -0.0418,0.5291 0,0.248 0.0128,0.4183 0.0374,0.5109 0.0251,0.093 0.0566,0.1545 0.0945,0.1855 0.0384,0.0305 0.0817,0.0463 0.1304,0.0463 0.0492,0 0.093,-0.0158 0.1314,-0.0473 0.0384,-0.031 0.0684,-0.0871 0.0896,-0.1678 0.0276,-0.1039 0.0418,-0.2796 0.0418,-0.5276 0,-0.2481 -0.0128,-0.4184 -0.0374,-0.5114 -0.0251,-0.0925 -0.0566,-0.1545 -0.0945,-0.186 -0.0384,-0.031 -0.0817,-0.0468 -0.1309,-0.0468z"/>
  <path class="fil1" d="M81.6099 42.14l0 0.3765 -1.4204 0c0.0158,-0.1422 0.0616,-0.2771 0.1388,-0.4046 0.0768,-0.1274 0.2289,-0.2962 0.4553,-0.5069 0.1831,-0.1698 0.2948,-0.2854 0.3361,-0.346 0.0556,-0.0837 0.0837,-0.1663 0.0837,-0.248 0,-0.0901 -0.0241,-0.1595 -0.0728,-0.2082 -0.0488,-0.0487 -0.1157,-0.0729 -0.2013,-0.0729 -0.0847,0 -0.1516,0.0256 -0.2018,0.0763 -0.0497,0.0512 -0.0788,0.1359 -0.0867,0.254l-0.4035 -0.0404c0.0241,-0.2229 0.0994,-0.3829 0.2264,-0.4803 0.1269,-0.097 0.2854,-0.1457 0.4759,-0.1457 0.2087,0 0.3726,0.0566 0.4917,0.1688 0.1191,0.1127 0.1786,0.2525 0.1786,0.4198 0,0.095 -0.0172,0.1856 -0.0512,0.2717 -0.0339,0.0861 -0.0881,0.1762 -0.1619,0.2702 -0.0492,0.0625 -0.1378,0.1526 -0.2653,0.2697 -0.1279,0.1171 -0.2091,0.1954 -0.2431,0.2338 -0.034,0.0384 -0.062,0.0758 -0.0832,0.1122l0.8047 0z"/>
  <path id="1" class="fil1" d="M81.8841 40.8077l0 -0.376 1.3855 0 0 0.2938c-0.1142,0.1127 -0.2304,0.2741 -0.349,0.4848 -0.1181,0.2101 -0.2082,0.4341 -0.2702,0.6708 -0.062,0.2372 -0.0925,0.4489 -0.0915,0.6354l-0.3908 0c0.0069,-0.2923 0.0669,-0.5901 0.1811,-0.8938 0.1137,-0.3041 0.2658,-0.5753 0.4562,-0.815l-0.9213 0z"/>
  <path class="fil1" d="M97.8193 7.0293c0.2052,0 0.3652,0.0733 0.4804,0.2195 0.1373,0.1727 0.2062,0.4597 0.2062,0.8608 0,0.3996 -0.0694,0.6871 -0.2077,0.8623 -0.1142,0.1442 -0.2737,0.216 -0.4789,0.216 -0.2052,0 -0.3711,-0.0787 -0.4971,-0.2372 -0.126,-0.158 -0.189,-0.44 -0.189,-0.8455 0,-0.3982 0.0694,-0.6846 0.2077,-0.8594 0.1142,-0.1442 0.2737,-0.2165 0.4784,-0.2165zm0 0.3361c-0.0487,0 -0.0925,0.0158 -0.1309,0.0468 -0.0384,0.0315 -0.0684,0.0876 -0.0896,0.1683 -0.0275,0.1048 -0.0418,0.281 -0.0418,0.5291 0,0.248 0.0128,0.4183 0.0374,0.5109 0.0251,0.093 0.0566,0.1545 0.0945,0.1855 0.0384,0.0305 0.0817,0.0463 0.1304,0.0463 0.0492,0 0.093,-0.0158 0.1314,-0.0473 0.0384,-0.031 0.0684,-0.0871 0.0896,-0.1678 0.0276,-0.1039 0.0418,-0.2796 0.0418,-0.5276 0,-0.2481 -0.0128,-0.4184 -0.0374,-0.5114 -0.0251,-0.0925 -0.0566,-0.1545 -0.0945,-0.186 -0.0384,-0.031 -0.0817,-0.0468 -0.1309,-0.0468z"/>
  <path id="1" class="fil1" d="M98.7771 7.4432l0 -0.376 1.3855 0 0 0.2938c-0.1142,0.1127 -0.2304,0.2741 -0.349,0.4848 -0.1181,0.2101 -0.2082,0.4341 -0.2702,0.6708 -0.062,0.2372 -0.0925,0.4489 -0.0915,0.6354l-0.3908 0c0.0069,-0.2923 0.0669,-0.5901 0.1811,-0.8938 0.1137,-0.3041 0.2658,-0.5753 0.4562,-0.815l-0.9213 0z"/>
  <path class="fil1" d="M98.4087 19.7095l-0.405 0 0 -1.5272c-0.1482,0.1388 -0.3224,0.2412 -0.5232,0.3071l0 -0.3676c0.1053,-0.0345 0.2205,-0.0999 0.3445,-0.1964 0.124,-0.097 0.2092,-0.2097 0.2549,-0.3386l0.3288 0 0 2.1227z"/>
  <path id="1" class="fil1" d="M99.809 19.7095l0 -0.4252 -0.8653 0 0 -0.3549 0.9174 -1.3426 0.3401 0 0 1.3411 0.2623 0 0 0.3564 -0.2623 0 0 0.4252 -0.3922 0zm0 -0.7816l0 -0.7225 -0.4858 0.7225 0.4858 0z"/>
  <path class="fil1" d="M98.6869 31.5839l0 0.3765 -1.4204 0c0.0158,-0.1422 0.0616,-0.2771 0.1388,-0.4046 0.0768,-0.1274 0.2289,-0.2962 0.4553,-0.5069 0.1831,-0.1698 0.2948,-0.2854 0.3361,-0.346 0.0556,-0.0837 0.0837,-0.1663 0.0837,-0.248 0,-0.0901 -0.0241,-0.1595 -0.0728,-0.2082 -0.0488,-0.0487 -0.1157,-0.0729 -0.2013,-0.0729 -0.0847,0 -0.1516,0.0256 -0.2018,0.0763 -0.0497,0.0512 -0.0788,0.1359 -0.0867,0.254l-0.4035 -0.0404c0.0241,-0.2229 0.0994,-0.3829 0.2264,-0.4803 0.1269,-0.097 0.2854,-0.1457 0.4759,-0.1457 0.2087,0 0.3726,0.0566 0.4917,0.1688 0.1191,0.1127 0.1786,0.2525 0.1786,0.4198 0,0.095 -0.0172,0.1856 -0.0512,0.2717 -0.0339,0.0861 -0.0881,0.1762 -0.1619,0.2702 -0.0492,0.0625 -0.1378,0.1526 -0.2653,0.2697 -0.1279,0.1171 -0.2091,0.1954 -0.2431,0.2338 -0.034,0.0384 -0.062,0.0758 -0.0832,0.1122l0.8047 0z"/>
  <path id="1" class="fil1" d="M99.9976 31.9604l-0.405 0 0 -1.5272c-0.1482,0.1388 -0.3224,0.2412 -0.5232,0.3071l0 -0.3676c0.1053,-0.0345 0.2205,-0.0999 0.3445,-0.1964 0.124,-0.097 0.2092,-0.2097 0.2549,-0.3386l0.3288 0 0 2.1227z"/>
  <path class="fil1" d="M98.7945 42.457l0 0.3765 -1.4204 0c0.0158,-0.1422 0.0616,-0.2771 0.1388,-0.4046 0.0768,-0.1274 0.2289,-0.2962 0.4553,-0.5069 0.1831,-0.1698 0.2948,-0.2854 0.3361,-0.346 0.0556,-0.0837 0.0837,-0.1663 0.0837,-0.248 0,-0.0901 -0.0241,-0.1595 -0.0728,-0.2082 -0.0488,-0.0487 -0.1157,-0.0729 -0.2013,-0.0729 -0.0847,0 -0.1516,0.0256 -0.2018,0.0763 -0.0497,0.0512 -0.0788,0.1359 -0.0867,0.254l-0.4035 -0.0404c0.0241,-0.2229 0.0994,-0.3829 0.2264,-0.4803 0.1269,-0.097 0.2854,-0.1457 0.4759,-0.1457 0.2087,0 0.3726,0.0566 0.4917,0.1688 0.1191,0.1127 0.1786,0.2525 0.1786,0.4198 0,0.095 -0.0172,0.1856 -0.0512,0.2717 -0.0339,0.0861 -0.0881,0.1762 -0.1619,0.2702 -0.0492,0.0625 -0.1378,0.1526 -0.2653,0.2697 -0.1279,0.1171 -0.2091,0.1954 -0.2431,0.2338 -0.034,0.0384 -0.062,0.0758 -0.0832,0.1122l0.8047 0z"/>
  <path id="1" class="fil1" d="M99.4162 41.6931c-0.1049,-0.0442 -0.1811,-0.1053 -0.2284,-0.1825 -0.0477,-0.0773 -0.0714,-0.1625 -0.0714,-0.2545 0,-0.1575 0.0547,-0.2879 0.1649,-0.3908 0.1103,-0.1028 0.2668,-0.1545 0.4695,-0.1545 0.2008,0 0.3569,0.0517 0.4676,0.1545 0.1112,0.1029 0.1668,0.2333 0.1668,0.3908 0,0.0979 -0.0255,0.1851 -0.0767,0.2618 -0.0507,0.0763 -0.1226,0.1349 -0.2146,0.1752 0.1171,0.0468 0.2062,0.1157 0.2672,0.2063 0.0611,0.09 0.0916,0.1944 0.0916,0.3125 0,0.1954 -0.062,0.3539 -0.1866,0.4759 -0.1245,0.1221 -0.2898,0.1831 -0.4966,0.1831 -0.1924,0 -0.3523,-0.0502 -0.4803,-0.1511 -0.1511,-0.1196 -0.2264,-0.283 -0.2264,-0.4907 0,-0.1142 0.0285,-0.219 0.0851,-0.315 0.0566,-0.0954 0.1462,-0.1693 0.2683,-0.221zm0.0836 -0.408c0,0.0808 0.0227,0.1438 0.0685,0.1885 0.0457,0.0453 0.1063,0.068 0.1825,0.068 0.0768,0 0.1383,-0.0227 0.1846,-0.0684 0.0458,-0.0458 0.0689,-0.1088 0.0689,-0.1895 0,-0.0763 -0.0226,-0.1369 -0.0684,-0.1826 -0.0458,-0.0458 -0.1058,-0.0684 -0.1811,-0.0684 -0.0778,0 -0.1398,0.0231 -0.1861,0.0689 -0.0457,0.0462 -0.0689,0.1073 -0.0689,0.1835zm-0.0374 0.9051c0,0.1118 0.0286,0.1989 0.0857,0.2614 0.0571,0.0625 0.1284,0.0935 0.2141,0.0935 0.0836,0 0.153,-0.03 0.2077,-0.0901 0.0546,-0.06 0.0822,-0.1466 0.0822,-0.2603 0,-0.099 -0.0281,-0.1787 -0.0837,-0.2387 -0.0556,-0.0601 -0.1265,-0.0901 -0.2121,-0.0901 -0.099,0 -0.1728,0.0345 -0.221,0.1024 -0.0487,0.0684 -0.0729,0.1422 -0.0729,0.2219z"/>
  <path class="fil1" d="M8.3619 55.7122l0 0.3765 -1.4204 0c0.0158,-0.1422 0.0616,-0.2771 0.1388,-0.4046 0.0768,-0.1274 0.2289,-0.2962 0.4553,-0.5069 0.1831,-0.1698 0.2948,-0.2854 0.3361,-0.346 0.0556,-0.0837 0.0837,-0.1663 0.0837,-0.248 0,-0.0901 -0.0241,-0.1595 -0.0728,-0.2082 -0.0488,-0.0487 -0.1157,-0.0729 -0.2013,-0.0729 -0.0847,0 -0.1516,0.0256 -0.2018,0.0763 -0.0497,0.0512 -0.0788,0.1359 -0.0867,0.254l-0.4035 -0.0404c0.0241,-0.2229 0.0994,-0.3829 0.2264,-0.4803 0.1269,-0.097 0.2854,-0.1457 0.4759,-0.1457 0.2087,0 0.3726,0.0566 0.4917,0.1688 0.1191,0.1127 0.1786,0.2525 0.1786,0.4198 0,0.095 -0.0172,0.1856 -0.0512,0.2717 -0.0339,0.0861 -0.0881,0.1762 -0.1619,0.2702 -0.0492,0.0625 -0.1378,0.1526 -0.2653,0.2697 -0.1279,0.1171 -0.2091,0.1954 -0.2431,0.2338 -0.034,0.0384 -0.062,0.0758 -0.0832,0.1122l0.8047 0z"/>
  <path id="1" class="fil1" d="M8.6445 55.6l0.3922 -0.0433c0.0099,0.0797 0.035,0.1388 0.0753,0.1771 0.0404,0.0384 0.0935,0.0576 0.16,0.0576 0.0837,0 0.1545,-0.0384 0.2131,-0.1151 0.059,-0.0768 0.0965,-0.2363 0.1127,-0.4789 -0.1019,0.1186 -0.2294,0.1777 -0.3819,0.1777 -0.1664,0 -0.3101,-0.0645 -0.4307,-0.1925 -0.1206,-0.1284 -0.1811,-0.2953 -0.1811,-0.501 0,-0.2146 0.064,-0.3873 0.1915,-0.5187 0.1269,-0.131 0.2894,-0.1969 0.4862,-0.1969 0.2146,0 0.3903,0.0832 0.5281,0.249 0.1373,0.1659 0.2062,0.4385 0.2062,0.818 0,0.3868 -0.0718,0.6654 -0.215,0.8367 -0.1433,0.1708 -0.3298,0.2564 -0.5596,0.2564 -0.1654,0 -0.2988,-0.0438 -0.4007,-0.1319 -0.1018,-0.0881 -0.1673,-0.2195 -0.1963,-0.3942zm0.9174 -0.8854c0,-0.1309 -0.0301,-0.2323 -0.0901,-0.3042 -0.06,-0.0723 -0.1299,-0.1083 -0.2087,-0.1083 -0.0748,0 -0.1373,0.0296 -0.1865,0.0886 -0.0497,0.0591 -0.0743,0.156 -0.0743,0.2909 0,0.1363 0.027,0.2367 0.0807,0.3002 0.0536,0.064 0.1211,0.096 0.2018,0.096 0.0777,0 0.1437,-0.0305 0.1968,-0.092 0.0537,-0.0616 0.0803,-0.1521 0.0803,-0.2712z"/>
  <path class="fil1" d="M20.9777 54.8662l0.3918 -0.0472c0.0128,0.0999 0.0463,0.1762 0.1014,0.2288 0.0546,0.0532 0.1211,0.0798 0.1988,0.0798 0.0837,0 0.1541,-0.032 0.2112,-0.0955 0.057,-0.0635 0.0856,-0.1486 0.0856,-0.2564 0,-0.1019 -0.0271,-0.1826 -0.0822,-0.2422 -0.0546,-0.06 -0.1216,-0.0895 -0.2003,-0.0895 -0.0517,0 -0.1137,0.0098 -0.1861,0.03l0.0448 -0.3298c0.1098,0.0025 0.1935,-0.0211 0.251,-0.0713 0.0576,-0.0507 0.0867,-0.1177 0.0867,-0.2013 0,-0.0714 -0.0212,-0.128 -0.0635,-0.1703 -0.0424,-0.0424 -0.099,-0.0635 -0.1688,-0.0635 -0.0694,0 -0.1285,0.0241 -0.1772,0.0723 -0.0492,0.0478 -0.0793,0.1182 -0.0896,0.2102l-0.3735 -0.063c0.026,-0.128 0.0649,-0.2303 0.1176,-0.3066 0.0521,-0.0763 0.1255,-0.1364 0.219,-0.1802 0.094,-0.0438 0.1988,-0.0659 0.315,-0.0659 0.1993,0 0.3588,0.0635 0.4789,0.1905 0.0989,0.1038 0.1486,0.2209 0.1486,0.3519 0,0.1855 -0.1014,0.3336 -0.3042,0.4439 0.1211,0.0261 0.2176,0.0841 0.2904,0.1747 0.0724,0.0901 0.1088,0.1993 0.1088,0.3273 0,0.1855 -0.0679,0.3435 -0.2033,0.4744 -0.1353,0.1305 -0.3041,0.1959 -0.5059,0.1959 -0.1915,0 -0.35,-0.0551 -0.476,-0.1648 -0.126,-0.1103 -0.1988,-0.254 -0.219,-0.4322z"/>
  <path id="1" class="fil1" d="M23.319 53.3046c0.2052,0 0.3652,0.0733 0.4804,0.2195 0.1373,0.1727 0.2062,0.4597 0.2062,0.8608 0,0.3996 -0.0694,0.6871 -0.2077,0.8623 -0.1142,0.1442 -0.2737,0.216 -0.4789,0.216 -0.2052,0 -0.3711,-0.0787 -0.4971,-0.2372 -0.126,-0.158 -0.189,-0.44 -0.189,-0.8455 0,-0.3982 0.0694,-0.6846 0.2077,-0.8594 0.1142,-0.1442 0.2737,-0.2165 0.4784,-0.2165zm0 0.3361c-0.0487,0 -0.0925,0.0158 -0.1309,0.0468 -0.0384,0.0315 -0.0684,0.0876 -0.0896,0.1683 -0.0275,0.1048 -0.0418,0.281 -0.0418,0.5291 0,0.248 0.0128,0.4183 0.0374,0.5109 0.0251,0.093 0.0566,0.1545 0.0945,0.1855 0.0384,0.0305 0.0817,0.0463 0.1304,0.0463 0.0492,0 0.093,-0.0158 0.1314,-0.0473 0.0384,-0.031 0.0684,-0.0871 0.0896,-0.1678 0.0276,-0.1039 0.0418,-0.2796 0.0418,-0.5276 0,-0.2481 -0.0128,-0.4184 -0.0374,-0.5114 -0.0251,-0.0925 -0.0566,-0.1545 -0.0945,-0.186 -0.0384,-0.031 -0.0817,-0.0468 -0.1309,-0.0468z"/>
  <path class="fil1" d="M34.7405 54.4436l0.3918 -0.0472c0.0128,0.0999 0.0463,0.1762 0.1014,0.2288 0.0546,0.0532 0.1211,0.0798 0.1988,0.0798 0.0837,0 0.1541,-0.032 0.2112,-0.0955 0.057,-0.0635 0.0856,-0.1486 0.0856,-0.2564 0,-0.1019 -0.0271,-0.1826 -0.0822,-0.2422 -0.0546,-0.06 -0.1216,-0.0895 -0.2003,-0.0895 -0.0517,0 -0.1137,0.0098 -0.1861,0.03l0.0448 -0.3298c0.1098,0.0025 0.1935,-0.0211 0.251,-0.0713 0.0576,-0.0507 0.0867,-0.1177 0.0867,-0.2013 0,-0.0714 -0.0212,-0.128 -0.0635,-0.1703 -0.0424,-0.0424 -0.099,-0.0635 -0.1688,-0.0635 -0.0694,0 -0.1285,0.0241 -0.1772,0.0723 -0.0492,0.0478 -0.0793,0.1182 -0.0896,0.2102l-0.3735 -0.063c0.026,-0.128 0.0649,-0.2303 0.1176,-0.3066 0.0521,-0.0763 0.1255,-0.1364 0.219,-0.1802 0.094,-0.0438 0.1988,-0.0659 0.315,-0.0659 0.1993,0 0.3588,0.0635 0.4789,0.1905 0.0989,0.1038 0.1486,0.2209 0.1486,0.3519 0,0.1855 -0.1014,0.3336 -0.3042,0.4439 0.1211,0.0261 0.2176,0.0841 0.2904,0.1747 0.0724,0.0901 0.1088,0.1993 0.1088,0.3273 0,0.1855 -0.0679,0.3435 -0.2033,0.4744 -0.1353,0.1305 -0.3041,0.1959 -0.5059,0.1959 -0.1915,0 -0.35,-0.0551 -0.476,-0.1648 -0.126,-0.1103 -0.1988,-0.254 -0.219,-0.4322z"/>
  <path id="1" class="fil1" d="M37.4337 55.0047l-0.405 0 0 -1.5272c-0.1482,0.1388 -0.3224,0.2412 -0.5232,0.3071l0 -0.3676c0.1053,-0.0345 0.2205,-0.0999 0.3445,-0.1964 0.124,-0.097 0.2092,-0.2097 0.2549,-0.3386l0.3288 0 0 2.1227z"/>
 </g>
</svg>
