<?xml version="1.0" encoding="UTF-8"?>
<!DOCTYPE svg PUBLIC "-//W3C//DTD SVG 1.1//EN" "http://www.w3.org/Graphics/SVG/1.1/DTD/svg11.dtd">
<!-- Creator: CorelDRAW -->
<svg xmlns="http://www.w3.org/2000/svg" xml:space="preserve" width="84.6666mm" height="42.3332mm" style="shape-rendering:geometricPrecision; text-rendering:geometricPrecision; image-rendering:optimizeQuality; fill-rule:evenodd; clip-rule:evenodd"
viewBox="0 0 84.6666 42.3332"
 xmlns:xlink="http://www.w3.org/1999/xlink">
 <defs>
  <style type="text/css">
   <![CDATA[
    .str2 {stroke:#848688;stroke-width:0.2}
    .str1 {stroke:#96989A;stroke-width:0.2}
    .str4 {stroke:#D4D98D;stroke-width:0.2}
    .str0 {stroke:#EAF2EF;stroke-width:0.2}
    .str3 {stroke:#BDBFC1;stroke-width:0.5}
    .fil1 {fill:none}
    .fil7 {fill:#96989A}
    .fil4 {fill:#BDBFC1}
    .fil3 {fill:#FEFEFE}
    .fil9 {fill:#6C6B6B}
    .fil8 {fill:#726E6D}
    .fil10 {fill:#C45923}
    .fil6 {fill:#EAEDB9}
    .fil2 {fill:#EAF2EF}
    .fil0 {fill:#F8F9F8}
    .fil5 {fill:#C0E1ED}
    .fil11 {fill:#FEFEFE;fill-rule:nonzero}
   ]]>
  </style>
 </defs>
 <g id="Camada_x0020_1">
  <metadata id="CorelCorpID_0Corel-Layer"/>
  <g id="_213050240">
   <g>
    <path id="_162546192" class="fil0" d="M70.6489 17.964c-4.6956,-3.6501 -9.3431,-7.7974 -14.0693,-11.5052 -2.5952,-2.0359 -9.5704,-5.4108 -13.1024,-5.8519 -4.6967,-0.5864 -4.2375,4.7273 -2.3237,7.8294 1.8003,2.9184 4.3934,5.5009 6.9091,7.9662 -3.4515,-2.2394 -6.8965,-4.5385 -10.7361,-6.555 -2.6141,-1.3729 -1.6523,-0.8195 -4.0384,-2.3698l-0.0517 0.0876c-1.4803,-0.9526 -3.3067,-1.1312 -4.451,0.805 -0.9962,1.6858 -0.2586,3.0737 1.0304,4.1926l-0.2234 -0.1132c2.0712,2.1305 8.3552,7.9278 9.7784,10.7393 0.2338,0.462 0.4847,0.9055 0.7498,1.3334l-0.5683 -0.3645c-6.0829,-3.9013 -13.5966,-5.4812 -20.1842,-8.5806l-1.6133 -0.7125 0.0054 0.2793c-1.5191,-1.255 -3.0114,-1.7061 -5.0505,0.2961l2.005 3.9076 -1.3542 0.2139c3.8769,3.3735 6.8704,6.8962 9.9368,10.3997 -1.0813,-0.154 -2.2107,0.2735 -2.9079,1.2118 -1.0141,1.3648 -0.7298,3.2931 0.6349,4.3072 1.0921,0.6206 0.9163,0.5602 2.0024,0.9273l-0.0798 -0.0442c2.8831,1.4525 2.747,1.4354 6.0361,2.8694 2.4826,1.0824 7.1637,3.949 9.327,1.6984 2.9361,-3.0548 -2.3866,-6.7156 -4.4291,-8.6649 -2.3596,-2.2518 -4.3994,-4.5538 -6.431,-6.8811 3.5714,1.3805 6.9407,2.7712 8.5206,3.7805 6.8493,4.3752 9.2951,6.2634 17.1142,9.2226 3.5156,1.3305 6.2415,3.2322 8.1545,-0.6498l-1.2785 -3.4348c-0.3388,-0.4929 -7.9268,-6.6531 -9.1174,-7.5994 -2.5543,-2.0302 -3.8257,-3.2283 -4.5711,-4.1292 3.0563,1.9713 6.1468,3.8586 9.5039,5.3862 2.4129,1.098 9.1758,6.0692 10.2008,0.7635 0.7167,-3.71 -10.091,-12.7404 -16.1836,-19.2658 4.2582,2.1688 13.4638,10.5534 17.3142,13.5415 1.3908,0.9779 3.311,0.6432 4.289,-0.7476 0.9779,-1.3908 0.6432,-3.3111 -0.7476,-4.289z"/>
   </g>
   <path id="_162545952" class="fil1" d="M68.8782 20.4823c-3.4466,-2.4233 -6.2268,-5.5527 -10.1934,-8.3088 -2.8766,-1.9988 -5.0844,-4.9178 -8.5753,-5.9239 -0.4378,-0.1262 -7.2523,-3.1281 -7.319,-2.5127 -0.3839,3.5418 7.2229,10.1243 9.3752,12.3882 3.4876,3.6686 5.8563,5.8842 9.2565,9.8428 0.1794,0.2088 1.4982,2.0503 1.5321,2.173 -0.0735,0 -5.7721,-2.9249 -5.9494,-3.0021 -5.146,-2.2401 -11.1474,-6.6341 -16.1829,-9.8646 -3.255,-2.0881 -6.6731,-3.2937 -9.3863,-5.3377 0.0524,0.0236 7.9815,8.2501 8.5535,8.8001 3.2014,3.0773 1.1678,4.697 8.3088,9.8828 0.6662,0.4838 10.0186,8.1231 9.9596,8.3526 -5.3962,-1.8505 -11.1071,-4.0549 -15.8396,-7.2241 -1.8647,-1.2486 -2.7083,-1.6924 -4.6566,-3.0861 -4.1525,-2.9702 -14.1409,-5.5164 -19.5137,-8.2029l-0.2557 -0.1278c-0.2576,-0.1288 -2.721,-1.1831 -2.7209,-1.1833 2.5055,1.9833 10.4328,10.2749 11.7345,12.4942 0.9231,1.5738 8.7545,8.3491 9.0849,9.1561 -2.8872,-1.0511 -8.9084,-3.6084 -11.6524,-5.1277 -0.417,-0.2309 -1.1664,-0.3556 -1.5777,-0.6611"/>
   <rect id="_162545832" class="fil1 str0" x="37.1881" y="10.797" width="2.70521" height="2.12174"/>
   <rect id="_162545712" class="fil1 str0" x="37.2202" y="13.834" width="2.70521" height="2.12174"/>
   <rect id="_162545592" class="fil1 str0" x="33.6194" y="13.9552" width="2.70521" height="2.12174"/>
   <rect id="_162545472" class="fil1 str0" x="33.4876" y="10.7931" width="2.70521" height="2.12174"/>
   <rect id="_162545352" class="fil1 str0" x="29.7871" y="10.7892" width="2.70521" height="2.12174"/>
   <rect id="_162545232" class="fil1 str0" x="33.4876" y="10.7931" width="2.70521" height="2.12174"/>
   <polygon id="_162545136" class="fil2" points="31.496,30.8531 49.3692,30.8605 49.3692,20.9943 31.496,20.9943 "/>
   <polygon id="_162545040" class="fil1 str1" points="31.3588,31.4067 49.1958,31.1729 49.2319,21.5478 31.3588,21.5478 "/>
   <rect id="_162544920" class="fil3" x="32.7074" y="24.3182" width="3.98268" height="6.53628"/>
   <rect id="_162544800" class="fil3" x="37.6828" y="24.5747" width="4.73652" height="3.67677"/>
   <rect id="_162544680" class="fil3" x="43.6425" y="24.2022" width="3.78826" height="3.30801"/>
   <rect id="_162544560" class="fil1 str2" x="32.4582" y="24.5938" width="3.84396" height="6.54076"/>
   <rect id="_162544440" class="fil1 str2" x="37.8562" y="24.5746" width="4.38995" height="3.35765"/>
   <rect id="_162544320" class="fil1 str2" x="43.3544" y="24.5642" width="4.23428" height="3.1323"/>
   <polygon id="_162544224" class="fil4" points="31.2247,21.505 50.1692,21.4924 45.1642,18.3341 42.2639,20.1484 37.0702,17.0009 "/>
   <polygon id="_162544128" class="fil1 str2" points="31.026,21.2462 49.9705,21.2335 45.0289,17.6548 42.0652,19.8895 36.9765,16.3203 "/>
   <path id="_162544032" class="fil1 str3" d="M55.2703 32.0108c-4.9748,-1.5583 -21.8043,-1.1565 -30.7806,-0.0776"/>
   <path id="_162543936" class="fil5" d="M57.1309 16.139c-0.5642,1.3611 -5.6239,0.9194 -5.9456,0.0978 -0.061,-1.7033 -0.1947,-4.8473 -0.2446,-6.1559 1.2641,0.5089 3.756,2.6923 6.5952,2.0501 1.6967,-0.1315 5.567,2.4078 6.7845,4.0439 -2.5187,-0.3324 -5.8466,-0.8492 -7.1895,-0.0359z"/>
   <path id="_162543840" class="fil1 str1" d="M51.4485 31.0901l-0.3479 -21.2204c1.2618,0.3488 3.736,2.1258 6.3571,1.7289 2.2841,-0.3012 6.1107,3.5275 7.5375,4.8959 -2.0176,-0.271 -5.8415,-0.7857 -6.9786,-0.4231 -1.1248,0.2743 -2.984,2.4365 -6.6832,0.3424"/>
   <circle id="_162543744" class="fil6" cx="23.2871" cy="11.5547" r="3.31859"/>
   <circle id="_162543648" class="fil1 str4" cx="23.0442" cy="11.8339" r="3.37281"/>
   <polyline id="_162543528" class="fil1 str0" points="41.2416,16.6326 41.2416,9.3287 25.8681,9.3287 "/>
   <g>
    <path id="_162543408" class="fil5" d="M56.6547 14.7786c0.0265,-0.0543 0.1144,-0.0556 0.1761,-0.1191 0.1125,-0.1158 0.6703,-1.2479 0.775,-1.3434 0.0584,0.1041 0.7081,1.2996 0.7649,1.3549 0.0681,0.0664 0.1319,0.0554 0.1575,0.11l-0.8442 -0.0134 0.1909 -0.049 -0.1235 -0.3358 -0.6418 -0.0086c-0.1787,0.4802 -0.0843,0.2756 0.1194,0.3934l-0.5743 0.011zm2.4038 -0.0738c0.0458,-0.1646 0.0245,-0.5758 0.0246,-0.7855 0.0006,-0.723 -0.014,-0.4319 -0.2446,-0.5785l1.4936 -0.0044c0.0015,0.1156 0.0228,0.3112 -0.0299,0.4115l-0.0935 -0.19c-0.127,-0.1708 -0.4959,-0.1389 -0.6969,-0.1372l-0.0003 0.5944c0.5354,-0.1293 0.295,-0.0739 0.4574,-0.3022 0.0366,0.3839 0.0335,0.3246 0,0.7136 -0.1385,-0.2495 -0.1261,-0.3301 -0.4576,-0.3283 -0.0045,0.3402 -0.0316,0.1923 0.2373,0.6694l-0.8983 0 0.2082 -0.0628zm-3.6781 -0.189l0.0441 -0.0079c0.0051,-0.0017 0.0162,-0.0045 0.0212,-0.0064 0.0068,-0.0026 -0.003,0.1004 0.0385,-0.0229 0.0034,-0.0098 0.0134,-0.0093 0.0202,-0.014l-0.0931 -0.2294 0.5586 0.3205c-0.4136,-0.0099 -0.2475,-0.0202 -0.3989,-0.0436 -0.0446,-0.0069 -0.1125,0.0134 -0.1266,0.0318 0.0166,0.0356 -0.0018,0.0272 0.0586,0.0839 0.176,0.1652 0.6674,0.1806 0.6686,-0.1028 0.0009,-0.2173 -0.4914,-0.3301 -0.6936,-0.4476 -0.3129,-0.1818 -0.3467,-0.523 -0.0181,-0.6981 0.3356,-0.1789 0.656,0.0136 0.7298,0.0146 0.142,0.0018 0.0258,0.0062 0.0965,-0.0336 0.0511,-0.0289 0.0042,-0.0273 0.0624,-0.0378l0.0118 0.4621c-0.2418,-0.2458 -0.4874,-0.6184 -0.8447,-0.2704 0.2951,0.3819 0.1275,0.2305 0.5329,0.4165 0.1915,0.0878 0.455,0.2223 0.4221,0.4913 -0.0446,0.3659 -0.5051,0.4596 -0.9247,0.3438 -0.2688,-0.0742 -0.1726,0.0401 -0.3168,0.0438l0.0004 -0.5259c0.0641,0.0536 0.0531,0.0354 0.0886,0.1046 0.0273,0.0534 0.0392,0.0842 0.0622,0.1275zm-0.1269 -0.4147l-0.1536 0.0607c-0.0646,0.3762 0.0925,0.7439 0.055,0.8234 -0.0243,0.0516 -0.007,0.0698 0.0142,0.12 -0.0499,-0.0724 -0.0317,0.0025 -0.0061,-0.0754l0.1038 -0.0109 0.0782 0.0545c-0.0914,-0.0347 -0.0669,0.0161 -0.0467,-0.0813l0.0793 -0.0716c0.1053,-0.0391 0.2023,0.006 0.3067,0.0305 0.0901,0.0212 0.1506,0.0273 0.2847,0.0182l0.1283 -0.0239c0.0037,-0.0009 0.0122,-0.0027 0.0158,-0.0035 0.1502,-0.0348 0.2058,-0.1012 0.3414,-0.1914l0.1516 0.1543c0.0087,0.005 0.0505,0.0186 0.0576,0.02 0.2162,0.0434 0.4574,0.0091 0.6695,0.0118 0.0348,-0.0974 0.0748,-0.1298 0.0466,-0.2298 -0.0201,-0.0717 -0.0748,-0.0895 -0.1332,-0.1381 0.0957,-0.0877 0.3054,-0.0359 0.4199,-0.0219 0.0019,0.0885 0.0223,0.0066 -0.0581,0.069 -0.0533,0.0413 -0.0612,0.0442 -0.0661,0.088l0.0009 0.0255c-0.0021,0.069 0.0231,0.1163 0.0452,0.1813 0.2396,0.0402 0.2742,0.0036 0.4753,0.0185l0.451 -0.0121c0.0015,0.0037 -0.0026,0.0069 -0.0026,0.0116 0.0001,0.0125 -0.0073,0.0355 0.0127,0.0342 0.0929,-0.006 0.1337,-0.1608 0.2035,-0.227 0.0182,0.0595 0.0082,0.0184 0.0019,0.0265l-0.0517 0.0357 0.1219 0.0547c-0.1735,-0.0764 -0.1586,0.0699 0.0751,0.0838 0.2261,0.0135 0.6355,-0.0106 0.8812,-0.0101 -0.0056,-0.006 -0.0166,-0.0231 -0.0184,-0.0164 -0.0016,0.0057 -0.0143,-0.0125 -0.016,-0.0139 -0.0556,-0.0448 -0.0465,-0.0197 -0.0184,-0.013l0.0327 0.0166c0.0671,0.0121 0.1362,-0.0424 0.1956,-0.0714 -0.0248,-0.0294 -0.0404,-0.0726 -0.0807,-0.0906l0.0142 -0.118 -0.1915 -0.0337 -0.024 -0.3188c0.0825,0.015 0.0378,0.0006 0.0809,0.0397 0.1101,0.0998 0.0036,-0.0085 0.0265,0.0543l0.0455 0.0126 0.0446 0.1775c0.3998,0.1113 0.2939,-0.2807 0.2987,-0.7228 0.0455,0.0457 0.119,0.075 0.1582,0.0754 0.2475,0.0022 0.2434,-0.5351 0.1384,-0.6648 -0.0792,-0.0978 -1.0213,-0.0506 -1.2012,-0.0509l-0.5452 0.0345 0.2295 0.3028 0.0063 1.0604c-0.0378,0.0163 -0.0893,0.0252 -0.1368,0.0382 -0.1493,0.0409 0.0386,0.0491 -0.1502,0.0184 -0.122,-0.0199 -0.1955,-0.0804 -0.2384,-0.1623l-0.2354 -0.4739c-0.093,-0.0771 0.0041,0.0712 -0.0332,-0.0212 -0.0974,-0.241 -0.1774,-0.3433 -0.2364,-0.453 -0.0035,-0.0067 -0.0081,-0.0145 -0.0117,-0.0213l-0.2239 -0.3401c-0.1906,-0.0147 -0.2628,0.1233 -0.3214,0.2764 -0.0672,0.1753 -0.2345,0.467 -0.3218,0.5923 -0.0892,0.1283 -0.0432,0.1217 -0.1125,0.2384 -0.0032,0.0053 -0.0087,0.0122 -0.012,0.0175 -0.0493,0.0775 0.0403,-0.0765 -0.0372,0.0544 -0.086,0.1452 -0.1153,0.1613 -0.2555,0.2667 -0.0957,-0.0208 0.0647,-0.1301 0.0006,-0.3584l-0.2129 -0.3169c-0.0555,-0.0369 -0.0696,0.0325 0.1112,-0.0708 -0.0405,-0.5272 0.0492,-0.8225 -0.3157,-0.6636 -0.0181,0.0078 -0.0614,0.0287 -0.0616,0.0287l-0.0324 0.0166c-0.0908,0.0084 0.0506,0.0228 -0.0293,-0.0336 -0.1423,-0.1004 -0.5349,-0.065 -0.6513,0.0183 -0.1986,0.1422 -0.308,0.1893 -0.3276,0.47 -0.0084,0.1195 0.0143,0.1825 0.0743,0.2868 0.0626,0.1089 -0.0216,0.034 0.0922,0.1077z"/>
    <path id="_162543288" class="fil7" d="M52.4249 14.0449l0.2228 0.1752c0.0526,-0.0081 0.0598,0.0295 0.1492,0.1484l-0.1136 0.1495c-0.2026,-0.2799 -0.251,-0.1938 -0.2584,-0.4731zm2.0081 0.4586l-0.1293 -0.1464 0.1034 -0.145 0.0964 0.0372 0.1727 -0.2281c-0.002,0.3677 -0.1361,0.2542 -0.2432,0.4823zm-0.1136 -1.0109c0.2335,0.0165 0.3454,0.1515 0.3542,0.3887 -0.1189,-0.1191 -0.1107,-0.1717 -0.3506,-0.1972l-0.0036 -0.1915zm-1.8944 0.3736l0.3532 -0.3689 0.0006 0.1695c-0.1297,0.0666 -0.0325,0.0161 -0.0999,0.0355 -0.0518,0.0149 -0.0432,0.0036 -0.0919,0.028l-0.162 0.1359zm1.426 -0.4226c-0.0125,0.3646 -0.2107,0.3169 -0.2383,0.5304 -0.0302,0.2348 0.1889,0.1502 0.245,0.5113l0.0917 0.2387 -0.8355 -0.016c0.0413,-0.0576 0.0611,-0.1455 0.0847,-0.2016l0.0525 -0.1038c0.0805,-0.2197 0.2762,-0.2365 0.2403,-0.4569 -0.0297,-0.1834 -0.2298,-0.1929 -0.2381,-0.4746 -0.0601,-0.0624 -0.0865,-0.1257 -0.0788,-0.2181l0.755 0.0064c0.0004,0.1192 -0.0144,0.1237 -0.0785,0.1842zm-0.5728 -0.4889c-1.6652,0.2601 -1.2243,2.3465 0.4553,2.0993 0.5694,-0.0838 1.2032,-0.5823 1.0177,-1.282 -0.1424,-0.5372 -0.7833,-0.9251 -1.473,-0.8173z"/>
    <path id="_162543168" class="fil5" d="M53.2782 12.9547c0.6897,-0.1078 1.3306,0.2801 1.473,0.8173 0.1855,0.6997 -0.4483,1.1982 -1.0177,1.282 -1.6796,0.2472 -2.1205,-1.8392 -0.4553,-2.0993zm0.0166 -0.1967c-0.203,0.0149 -0.3767,0.0769 -0.5201,0.152 -0.1174,0.0615 -0.3102,0.1863 -0.3593,0.2444 -0.0423,0.0501 -0.1986,0.2013 -0.2322,0.2741l-0.046 0.1212c-0.0039,0.0088 -0.0172,0.0361 -0.0213,0.0456 -0.1969,0.4522 -0.0263,0.9792 0.2526,1.2275l0.157 0.1195c0.1235,0.0834 0.3145,0.196 0.4736,0.2488 0.4134,0.1369 1.1047,0.0485 1.3755,-0.1564 0.3568,-0.2699 0.665,-0.6451 0.592,-1.1879 -0.0998,-0.7423 -0.8608,-1.1484 -1.6718,-1.0888z"/>
    <path id="_162543048" class="fil7" d="M59.0585 14.7048l-0.2082 0.0628 0.8983 0c-0.2689,-0.4771 -0.2418,-0.3292 -0.2373,-0.6694 0.3315,-0.0018 0.3191,0.0788 0.4576,0.3283 0.0335,-0.389 0.0366,-0.3297 0,-0.7136 -0.1624,0.2283 0.078,0.1729 -0.4574,0.3022l0.0003 -0.5944c0.201,-0.0017 0.5699,-0.0336 0.6969,0.1372l0.0935 0.19c0.0527,-0.1003 0.0314,-0.2959 0.0299,-0.4115l-1.4936 0.0044c0.2306,0.1466 0.2452,-0.1445 0.2446,0.5785 -0.0001,0.2097 0.0212,0.6209 -0.0246,0.7855z"/>
    <path id="_162542928" class="fil7" d="M55.4444 14.5439l-0.064 -0.0281c-0.023,-0.0433 -0.0349,-0.0741 -0.0622,-0.1275 -0.0355,-0.0692 -0.0245,-0.051 -0.0886,-0.1046l-0.0004 0.5259c0.1442,-0.0037 0.048,-0.118 0.3168,-0.0438 0.4196,0.1158 0.8801,0.0221 0.9247,-0.3438 0.0329,-0.269 -0.2306,-0.4035 -0.4221,-0.4913 -0.4054,-0.186 -0.2378,-0.0346 -0.5329,-0.4165 0.3573,-0.348 0.6029,0.0246 0.8447,0.2704l-0.0118 -0.4621c-0.0582,0.0105 -0.0113,0.0089 -0.0624,0.0378 -0.0707,0.0398 0.0455,0.0354 -0.0965,0.0336 -0.0738,-0.001 -0.3942,-0.1935 -0.7298,-0.0146 -0.3286,0.1751 -0.2948,0.5163 0.0181,0.6981 0.2022,0.1175 0.6945,0.2303 0.6936,0.4476 -0.0012,0.2834 -0.4926,0.268 -0.6686,0.1028 -0.0604,-0.0567 -0.042,-0.0483 -0.0586,-0.0839z"/>
    <path id="_162542808" class="fil7" d="M57.1776 14.2961c0.0522,-0.1606 0.1697,-0.3486 0.2564,-0.4859l0.2625 0.4803 -0.5189 0.0056zm-0.5229 0.4825l0.5743 -0.011c-0.2037,-0.1178 -0.2981,0.0868 -0.1194,-0.3934l0.6418 0.0086 0.1235 0.3358 -0.1909 0.049 0.8442 0.0134c-0.0256,-0.0546 -0.0894,-0.0436 -0.1575,-0.11 -0.0568,-0.0553 -0.7065,-1.2508 -0.7649,-1.3549 -0.1047,0.0955 -0.6625,1.2276 -0.775,1.3434 -0.0617,0.0635 -0.1496,0.0648 -0.1761,0.1191z"/>
    <path id="_162542688" class="fil5" d="M53.2511 14.4026l-0.0158 0.1456 0.6023 0.0064 0.0201 -0.0693c-0.0561,-0.3611 -0.2752,-0.2765 -0.245,-0.5113 0.0276,-0.2135 0.2258,-0.1658 0.2383,-0.5304 -0.0824,-0.0416 -0.1933,-0.0228 -0.2966,-0.0217 -0.0413,0.0004 -0.1493,-0.003 -0.1827,0.0016 -0.1479,0.0204 -0.0539,-0.0141 -0.1184,0.0476 0.0083,0.2817 0.2084,0.2912 0.2381,0.4746 0.0359,0.2204 -0.1598,0.2372 -0.2403,0.4569z"/>
    <path id="_162542568" class="fil8" d="M53.8577 14.4853l-0.0201 0.0693 -0.6023 -0.0064 0.0158 -0.1456 -0.0525 0.1038c-0.0236,0.0561 -0.0434,0.144 -0.0847,0.2016l0.8355 0.016 -0.0917 -0.2387z"/>
    <path id="_162542448" class="fil5" d="M57.1776 14.2961l0.5189 -0.0056 -0.2625 -0.4803c-0.0867,0.1373 -0.2042,0.3253 -0.2564,0.4859z"/>
    <path id="_162542328" class="fil9" d="M53.2533 13.4711c0.0645,-0.0617 -0.0295,-0.0272 0.1184,-0.0476 0.0334,-0.0046 0.1414,-0.0012 0.1827,-0.0016 0.1033,-0.0011 0.2142,-0.0199 0.2966,0.0217 0.0641,-0.0605 0.0789,-0.065 0.0785,-0.1842l-0.755 -0.0064c-0.0077,0.0924 0.0187,0.1557 0.0788,0.2181z"/>
    <path id="_162542208" class="fil5" d="M52.7969 14.3685c-0.0894,-0.1189 -0.0966,-0.1565 -0.1492,-0.1484l-0.2228 -0.1752c0.0074,0.2793 0.0558,0.1932 0.2584,0.4731l0.1136 -0.1495z"/>
    <path id="_162542088" class="fil5" d="M55.3804 14.5158l0.064 0.0281c0.0141,-0.0184 0.082,-0.0387 0.1266,-0.0318 0.1514,0.0234 -0.0147,0.0337 0.3989,0.0436l-0.5586 -0.3205 0.0931 0.2294c-0.0068,0.0047 -0.0168,0.0042 -0.0202,0.014 -0.0415,0.1233 -0.0317,0.0203 -0.0385,0.0229 -0.005,0.0019 -0.0161,0.0047 -0.0212,0.0064l-0.0441 0.0079z"/>
    <path id="_162541968" class="fil5" d="M54.433 14.5035c0.1071,-0.2281 0.2412,-0.1146 0.2432,-0.4823l-0.1727 0.2281 -0.0964 -0.0372 -0.1034 0.145 0.1293 0.1464z"/>
    <path id="_162541848" class="fil5" d="M54.323 13.6841c0.2399,0.0255 0.2317,0.0781 0.3506,0.1972 -0.0088,-0.2372 -0.1207,-0.3722 -0.3542,-0.3887l0.0036 0.1915z"/>
    <path id="_162541752" class="fil5" d="M52.587 13.7303c0.0487,-0.0244 0.0401,-0.0131 0.0919,-0.028 0.0674,-0.0194 -0.0298,0.0311 0.0999,-0.0355l-0.0006 -0.1695 -0.3532 0.3689 0.162 -0.1359z"/>
   </g>
   <rect id="_162541632" class="fil10" x="24.4897" y="30.1215" width="6.08037" height="2.64892" rx="0.5779" ry="0.5779"/>
   <polygon id="_162541512" class="fil11" points="25.6174,32.1521 25.6174,30.7169 25.8994,30.7169 26.4869,31.6752 26.4869,30.7169 26.7562,30.7169 26.7562,32.1521 26.4652,32.1521 25.8867,31.2161 25.8867,32.1521 "/>
   <path id="_1625415121" class="fil11" d="M27.6625 31.8213l0.2743 0.0458c-0.0354,0.1005 -0.0909,0.1771 -0.1671,0.2295 -0.0758,0.0528 -0.1711,0.0789 -0.2854,0.0789 -0.1807,0 -0.3144,-0.0588 -0.4013,-0.1771 -0.0685,-0.0946 -0.1029,-0.2142 -0.1029,-0.3582 0,-0.1725 0.0451,-0.3075 0.1353,-0.4051 0.0899,-0.0975 0.2039,-0.1463 0.3415,-0.1463 0.1548,0 0.2767,0.0511 0.3663,0.1534 0.0892,0.1022 0.132,0.2586 0.1283,0.4695l-0.6894 0c0.002,0.0815 0.0241,0.145 0.0665,0.1901 0.0425,0.0455 0.0956,0.0682 0.1588,0.0682 0.0431,0 0.0792,-0.0117 0.1086,-0.0351 0.0294,-0.0237 0.0518,-0.0615 0.0665,-0.1136zm0.0157 -0.2781c-0.002,-0.0798 -0.0224,-0.1403 -0.0615,-0.1817 -0.0391,-0.0415 -0.0869,-0.0622 -0.143,-0.0622 -0.0602,0 -0.1097,0.0221 -0.1487,0.0658 -0.0391,0.0435 -0.0585,0.103 -0.0579,0.1781l0.4111 0z"/>
   <polygon id="_16254151212" class="fil11" points="28.3695,32.1521 28.0404,31.1125 28.3077,31.1125 28.5025,31.7939 28.6817,31.1125 28.947,31.1125 29.1204,31.7939 29.3192,31.1125 29.5903,31.1125 29.2564,32.1521 28.9921,32.1521 28.813,31.4834 28.6369,32.1521 "/>
  </g>
 </g>
</svg>
