<?xml version="1.0" encoding="UTF-8"?>
<!DOCTYPE svg PUBLIC "-//W3C//DTD SVG 1.1//EN" "http://www.w3.org/Graphics/SVG/1.1/DTD/svg11.dtd">
<!-- Creator: CorelDRAW -->
<svg xmlns="http://www.w3.org/2000/svg" xml:space="preserve" width="84.6666mm" height="42.3332mm" style="shape-rendering:geometricPrecision; text-rendering:geometricPrecision; image-rendering:optimizeQuality; fill-rule:evenodd; clip-rule:evenodd"
viewBox="0 0 84.6666 42.3332"
 xmlns:xlink="http://www.w3.org/1999/xlink">
 <defs>
  <style type="text/css">
   <![CDATA[
    .str0 {stroke:#373435;stroke-width:0.0762}
    .str1 {stroke:black;stroke-width:0.0762}
    .str2 {stroke:#D4D98D;stroke-width:0.2}
    .str3 {stroke:#CCCCCC;stroke-width:0.5}
    .str4 {stroke:#EAF2EF;stroke-width:1.5}
    .fil1 {fill:none}
    .fil6 {fill:#BDBFC1}
    .fil4 {fill:#9DD18C}
    .fil3 {fill:#CCCCCC}
    .fil5 {fill:#D4D98D}
    .fil2 {fill:#E6E6E6}
    .fil7 {fill:#EAEDB9}
    .fil0 {fill:#F2F7F2}
   ]]>
  </style>
 </defs>
 <g id="Camada_x0020_1">
  <metadata id="CorelCorpID_0Corel-Layer"/>
  <g id="_212096440">
   <g>
    <path id="_162217392" class="fil0" d="M13.6233 25.5306c3.8741,-4.6103 7.6,-9.632 11.4924,-14.3014 2.1374,-2.564 8.3089,-7.6568 11.6916,-9.1477 4.4949,-1.9812 5.1284,2.7161 3.8761,5.9838 -1.1766,3.0707 -3.2007,6.1029 -5.1727,9.0102 2.938,-3.0083 5.8572,-6.0658 9.2219,-9.0051l1.9259 -1.7033 1.5625 -1.6018 0.0687 0.0589c1.2623,-1.284 3.0223,-2.0129 4.5408,-0.7106 1.3201,1.1321 0.8774,2.5542 -0.1615,3.9194l0.1963 -0.1671c-1.603,2.4798 -6.6024,9.4327 -7.4299,12.2925 -0.2277,0.787 -0.5115,1.5449 -0.8409,2.2799 6.5417,-5.5618 20.5888,-16.9661 22.664,-17.7739 2.4389,-0.9492 4.4746,0.514 3.9401,2.8598 -0.4044,1.7751 -4.2137,7.5304 -8.1205,13.2033 0.913,-0.2806 1.8944,-0.1995 2.642,0.3 1.2742,0.8514 1.3865,2.5952 0.2507,3.8948 -0.9474,0.8763 -0.7863,0.7687 -1.7796,1.4257l0.069 -0.0625c-1.9181,1.6274 -8.9294,7.3748 -10.8028,8.3784 -2.7182,1.4563 -5.0745,0.1866 -4.6613,-2.2528 0.243,-1.4352 4.4892,-7.5206 8.6618,-13.5625 -1.8484,1.4768 -3.6955,2.9721 -5.5545,4.5013 -6.1618,5.0689 -10.1698,9.4443 -16.86,14.1669 -3.1861,2.2491 -5.4805,4.74 -8.1496,2.0102l0.5593 -3.3477c0.2332,-0.5301 6.4398,-8.2039 7.4182,-9.391 2.098,-2.5456 3.1043,-3.9739 3.654,-4.9815 -2.6038,2.6537 -5.2582,5.2461 -8.2478,7.6139 -2.1491,1.7022 -7.7823,8.0944 -9.8721,3.8707 -1.4626,-2.9563 7.3286,-14.109 11.9923,-21.6268 -3.7454,3.2019 -11.0909,13.2943 -14.2688,17.0706 -1.1685,1.2771 -3.1243,1.5949 -4.3685,0.71 -1.2443,-0.8849 -1.3056,-2.6375 -0.1371,-3.9146z"/>
   </g>
   <path id="_162217152" class="fil1" d="M15.8761 27.1329c2.8956,-3.1645 4.9927,-6.7248 8.3319,-10.3386 2.4217,-2.6208 3.9987,-5.8203 7.2261,-7.7831 0.4048,-0.2461 6.4938,-4.968 6.6845,-4.4611 1.0975,2.9171 -5.0424,10.96 -6.6981,13.5801 -2.6828,4.2456 -4.5611,6.8923 -7.099,11.3592 -0.1339,0.2356 -1.0561,2.2307 -1.0644,2.3467 0.0722,-0.0232 5.0799,-4.3275 5.2385,-4.4495 4.6036,-3.5428 9.6104,-9.2026 13.904,-13.5601 2.7754,-2.8167 5.8907,-4.9277 8.1425,-7.5358 -0.0467,0.0367 -6.1693,9.5914 -6.6199,10.2434 -2.5216,3.6482 -0.193,4.397 -6.1591,11.095 -0.5566,0.6248 -8.1978,10.1242 -8.0931,10.3024 4.9288,-3.2873 10.095,-6.9774 14.1033,-11.1869 2.0541,-2.1573 22.8242,-18.8685 24.4475,-19.5652 -1.3015,4.393 -15.9041,22.9432 -16.3868,25.3349 2.6247,-1.8113 8.0243,-5.9018 10.413,-8.0695 0.363,-0.3294 1.0745,-0.6725 1.4167,-1.0641"/>
   <g>
    <path id="_162216984" class="fil2" d="M34.4759 14.9067l29.5875 0c0.299,0 0.5434,0.29 0.5434,0.6447l0 17.6669c0,0.3547 -0.2444,0.6448 -0.5434,0.6448l-29.5875 0c-0.299,0 -0.5434,-0.2901 -0.5434,-0.6448l0 -17.6669c0,-0.3547 0.2444,-0.6447 0.5434,-0.6447zm1.0616 1.5498l27.4643 0c0.1006,0 0.1828,0.0975 0.1828,0.2169l0 15.4229c0,0.1194 -0.0822,0.217 -0.1828,0.217l-27.4643 0c-0.1006,0 -0.1828,-0.0976 -0.1828,-0.217l0 -15.4229c0,-0.1194 0.0822,-0.2169 0.1828,-0.2169z"/>
    <path id="_162216816" class="fil1 str0" d="M34.7751 14.9475l29.5875 0c0.299,0 0.5434,0.2901 0.5434,0.6448l0 17.6669c0,0.3547 -0.2444,0.6447 -0.5434,0.6447l-29.5875 0c-0.299,0 -0.5434,-0.29 -0.5434,-0.6447l0 -17.6669c0,-0.3547 0.2444,-0.6448 0.5434,-0.6448zm1.0616 1.5498l27.4643 0c0.1006,0 0.1828,0.0976 0.1828,0.217l0 15.4229c0,0.1194 -0.0822,0.2169 -0.1828,0.2169l-27.4643 0c-0.1007,0 -0.1829,-0.0975 -0.1829,-0.2169l0 -15.4229c0,-0.1194 0.0822,-0.217 0.1829,-0.217z"/>
    <g>
     <rect id="_162216696" class="fil2" x="32.1667" y="34.4153" width="34.5496" height="1.95207" rx="0.714" ry="0.714"/>
     <rect id="_162216576" class="fil3" x="46.1246" y="34.4153" width="6.63391" height="1.10227"/>
    </g>
    <rect id="_162216408" class="fil1 str0" x="32.27" y="34.0687" width="34.5496" height="1.95207" rx="0.2856" ry="0.2856"/>
    <polyline id="_162216312" class="fil1 str0" points="46.2414,34.0687 46.248,35.2585 52.8985,35.2585 52.8981,34.0687 "/>
    <rect id="_162216192" class="fil4" x="37.6248" y="19.6726" width="7.4565" height="0.283314"/>
    <rect id="_162216072" class="fil5" x="38.9189" y="20.7749" width="2.52614" height="0.283314"/>
    <rect id="_162215952" class="fil5" x="37.8088" y="21.8772" width="2.40422" height="0.283314"/>
    <rect id="_162215832" class="fil4" x="37.7815" y="22.9008" width="7.33458" height="0.283314"/>
    <rect id="_162215712" class="fil5" x="41.4778" y="23.9243" width="8.54133" height="0.283314"/>
    <rect id="_162215592" class="fil5" x="41.4713" y="24.9479" width="13.4509" height="0.283314"/>
    <rect id="_162215472" class="fil5" x="37.6995" y="25.9715" width="5.15168" height="0.283314"/>
    <rect id="_162215352" class="fil4" x="37.7038" y="27.293" width="14.4567" height="0.283314"/>
   </g>
   <g>
    <path id="_162215208" class="fil2" d="M24.7614 34.734c0.2496,-0.145 0.5099,-0.2752 0.7783,-0.3896l-7.765 -13.3607 -1.0104 0.2771 7.9305 13.5125c0.0221,-0.0132 0.0443,-0.0263 0.0666,-0.0393z"/>
    <path id="_162215112" class="fil2" d="M17.7559 20.9023l7.765 13.3607c0.0254,-0.0109 0.051,-0.0216 0.0765,-0.0322 0.2872,-0.1186 0.5835,-0.2196 0.8862,-0.3022l-7.7491 -13.2946 -0.9786 0.2683z"/>
    <path id="_162215016" class="fil2" d="M32.186 36.5086c-1.1758,-1.8298 -3.1665,-2.8418 -5.2028,-3.0443 -0.3255,-0.0324 -0.6521,-0.0441 -0.9767,-0.0352 -0.3427,0.0094 -0.683,0.0419 -1.0177,0.0973 -0.3155,0.0523 -0.6259,0.125 -0.9279,0.2181 -1.4554,0.4487 -2.7166,1.3714 -3.4364,2.7641l11.5615 0z"/>
    <path id="_162214920" class="fil2" d="M18.7632 20.6102l7.7492 13.2947c0.0276,-0.0077 0.0554,-0.0151 0.0832,-0.0223 0.2856,-0.0745 0.5765,-0.1327 0.8709,-0.1742l-7.7688 -13.3545 -0.9345 0.2563z"/>
    <line id="_162214824" class="fil1 str1" x1="18.977" y1="19.7718" x2="27.4154" y2= "34.2775" />
    <line id="_162214728" class="fil1 str1" x1="16.1634" y1="20.7665" x2="24.8386" y2= "35.5478" />
    <line id="_162214632" class="fil1 str1" x1="17.2244" y1="20.5721" x2="25.4864" y2= "34.7881" />
    <line id="_162214536" class="fil1 str1" x1="18.1271" y1="20.1745" x2="26.4559" y2= "34.4637" />
    <line id="_162214440" class="fil1 str1" x1="28.4022" y1="9.3125" x2="16.8734" y2= "17.7485" />
    <path id="_162214344" class="fil1 str1" d="M20.7081 37.06l11.5615 0c-2.6509,-4.1255 -9.4452,-4.0943 -11.5615,0z"/>
    <path id="_162214176" class="fil2" d="M20.7705 16.1383l-6.2543 -0.0052 0.1918 4.5737 6.2326 -0.5122c0.4517,-0.0189 0.7799,-0.9423 0.7329,-2.0624 -0.047,-1.1202 -0.4513,-2.0129 -0.903,-1.9939z"/>
    <polygon id="_162214080" class="fil2" points="18.3638,16.6616 26.7277,10.5315 26.5077,9.6764 17.0797,16.5752 "/>
    <polygon id="_162213984" class="fil2" points="17.1328,16.5661 26.5608,9.6673 26.3323,8.7792 15.7804,16.4752 "/>
    <polygon id="_162213888" class="fil2" points="19.9438,16.8057 29.3718,9.9069 29.1433,9.0188 18.5914,16.7148 "/>
    <line id="_162213792" class="fil1 str1" x1="27.2352" y1="8.1551" x2="15.1646" y2= "16.9192" />
    <line id="_162213696" class="fil1 str1" x1="28.6665" y1="9.2784" x2="16.9335" y2= "17.878" />
    <line id="_162213600" class="fil1 str1" x1="28.2277" y1="8.9345" x2="16.6225" y2= "17.3985" />
    <path id="_162213432" class="fil2 str0" d="M20.3278 16.5638l-6.2543 -0.0052 0.1918 4.5737 6.2326 -0.5122c0.4517,-0.0189 0.7799,-0.9423 0.7329,-2.0623 -0.0469,-1.1202 -0.4513,-2.0129 -0.903,-1.994z"/>
    <ellipse id="_162213336" class="fil6 str1" transform="matrix(1.51418 -0.0634833 0.063435 1.51302 14.3418 18.555)" rx="0.6725" ry="1.5103"/>
    <polygon id="_162213240" class="fil2" points="36.6827,10.1833 27.7814,13.3942 25.9188,6.1536 28.4949,5.1137 "/>
    <polygon id="_162213144" class="fil1 str1" points="36.7838,11.312 27.8824,14.5229 26.0198,7.2823 28.596,6.2423 "/>
    <ellipse id="_162213024" class="fil7" transform="matrix(0.805512 1.08295 -1.36818 0.613653 32.3317 12.8907)" rx="1.7087" ry="3.197"/>
    <ellipse id="_162212952" class="fil1 str2" transform="matrix(0.746473 0.846399 -1.25614 0.470862 32.5816 12.3031)" rx="1.7087" ry="3.197"/>
   </g>
   <line id="_212097304" class="fil1 str3" x1="13.2695" y1="36.953" x2="71.5796" y2= "36.953" />
   <line id="_212096872" class="fil1 str4" x1="13.2092" y1="37.8459" x2="71.8811" y2= "37.8459" />
  </g>
 </g>
</svg>
