<?xml version="1.0" encoding="UTF-8"?>
<!DOCTYPE svg PUBLIC "-//W3C//DTD SVG 1.1//EN" "http://www.w3.org/Graphics/SVG/1.1/DTD/svg11.dtd">
<!-- Creator: CorelDRAW -->
<svg xmlns="http://www.w3.org/2000/svg" xml:space="preserve" width="84.6666mm" height="42.3332mm" style="shape-rendering:geometricPrecision; text-rendering:geometricPrecision; image-rendering:optimizeQuality; fill-rule:evenodd; clip-rule:evenodd"
viewBox="0 0 84.6666 42.3332"
 xmlns:xlink="http://www.w3.org/1999/xlink">
 <defs>
  <style type="text/css">
   <![CDATA[
    .str0 {stroke:#848688;stroke-width:0.2}
    .str2 {stroke:#96989A;stroke-width:0.2}
    .str6 {stroke:#B3B3B3;stroke-width:0.2}
    .str5 {stroke:#D4D98D;stroke-width:0.2}
    .str1 {stroke:#EAF2EF;stroke-width:0.2}
    .str3 {stroke:#BDBFC1;stroke-width:0.5}
    .str4 {stroke:#E6E6E6;stroke-width:0.75;stroke-dasharray:3.750000 2.250000}
    .fil1 {fill:none}
    .fil4 {fill:#848688}
    .fil9 {fill:#A9ABAE}
    .fil7 {fill:#BDBFC1}
    .fil8 {fill:#E6E7E8}
    .fil3 {fill:#FEFEFE}
    .fil5 {fill:#9DD18C}
    .fil2 {fill:#CCCCCC}
    .fil6 {fill:#D4D98D}
    .fil10 {fill:#EAEDB9}
    .fil0 {fill:#F8F9F8}
    .fil11 {fill:white}
   ]]>
  </style>
 </defs>
 <g id="Camada_x0020_1">
  <metadata id="CorelCorpID_0Corel-Layer"/>
  <g id="_162540912">
   <path id="_213049856" class="fil0" d="M12.5568 19.0996c4.4147,-6.2704 16.6587,-14.747 23.7433,-17.7837 2.975,-1.2751 8.0457,-2.1538 8.2973,2.3868 0.158,2.851 -3.5048,7.5736 -7.7466,12.2217 3.4755,-2.1624 14.7256,-9.4664 18.0649,-8.64 3.6938,0.9141 2.2888,5.1103 0.7406,7.1562 -2.1567,2.8499 -5.3164,5.8935 -8.816,8.9532 6.1874,-3.4533 13.7875,-6.6353 19.9303,-8.7763 2.4147,-0.8417 6.3324,-1.2929 6.1791,2.5895 -0.0792,2.0054 -3.9075,4.818 -5.4338,6.3732 -1.7874,1.8211 -3.7872,4.1453 -5.8518,6.5212 1.1003,-0.1594 2.2509,0.2745 2.9608,1.2294 1.0304,1.3861 0.7421,3.3451 -0.644,4.3756 -1.1102,0.631 -0.9307,0.5694 -2.0347,0.9425l0.081 -0.0448c-2.2125,1.1146 -10.2548,4.968 -12.2823,5.4118 -3.0151,0.66 -4.9524,-1.7484 -3.9637,-4.1239 0.766,-1.8407 7.5917,-7.45 9.4253,-9.6983 0.9006,-1.1043 1.7575,-2.1493 2.598,-3.1535 -4.1553,1.7885 -7.4282,3.2833 -11.6226,6.0518 -4.4099,2.9105 -14.0096,7.898 -19.011,9.0884 -3.5505,0.8451 -5.769,-2.7501 -2.6203,-6.011 3.5958,-3.7239 9.0061,-7.8799 14.1753,-12.1151 -3.5871,2.2524 -7.0742,4.4544 -10.0485,6.0143l-0.0003 0.0002c-2.4131,1.234 -9.3342,6.0862 -10.3621,0.7767 -0.6562,-3.3892 9.3844,-12.4894 11.7634,-14.9554l0.0001 -0.0002c0.7657,-0.8207 2.3565,-2.5055 3.9513,-4.3207 -6.0622,3.6652 -13.66,9.485 -15.8518,12.273 -0.7573,1.5522 -2.6296,2.1966 -4.1819,1.4393 -1.5522,-0.7573 -2.1966,-2.6297 -1.4393,-4.1819z"/>
  </g>
  <path class="fil1" d="M15.3674 20.4709c2.837,-5.8145 43.9713,-32.8196 16.9776,-4.4262 -3.5429,3.7267 -5.9492,5.9774 -9.4034,9.9988 -0.1822,0.2121 -1.522,2.0829 -1.5563,2.2075 0.0746,0 5.8636,-2.9713 6.0437,-3.0497 4.2452,-1.848 21.7268,-14.1614 26.7355,-14.8812 0.6964,4.0082 -28.3408,25.6068 -28.008,26.9021 7.9639,-2.731 14.0239,-5.6115 20.8213,-10.4737 1.9648,-1.4055 22.6442,-10.4404 22.847,-9.6649 -2.5453,2.0147 -10.5983,10.4378 -11.9207,12.6923 -0.9377,1.5988 -8.8933,8.4816 -9.2289,9.3013 2.933,-1.0677 9.0497,-3.6656 11.8372,-5.209 0.4236,-0.2346 1.1849,-0.3612 1.6027,-0.6716"/>
  <polygon class="fil2" points="43.0242,32.9148 28.3207,32.9351 28.3207,5.8955 43.0242,5.8955 "/>
  <polygon class="fil1 str0" points="43.2138,33.4933 28.9563,33.7023 28.9563,6.8727 43.2138,6.8727 "/>
  <rect class="fil3" x="39.7501" y="13.115" width="2.09106" height="1.90573"/>
  <rect class="fil3" x="39.661" y="20.3183" width="2.09106" height="1.90573"/>
  <rect class="fil3" x="39.572" y="27.5217" width="2.09106" height="1.90573"/>
  <rect class="fil3" x="30.5439" y="8.38028" width="2.09106" height="1.90573"/>
  <rect class="fil3" x="30.4549" y="15.5836" width="2.09106" height="1.90573"/>
  <rect class="fil3" x="30.3658" y="22.787" width="2.09106" height="1.90573"/>
  <rect class="fil3" x="36.7654" y="10.814" width="2.09106" height="1.90573"/>
  <rect class="fil3" x="36.6763" y="18.0173" width="2.09106" height="1.90573"/>
  <rect class="fil3" x="36.5873" y="25.2207" width="2.09106" height="1.90573"/>
  <rect class="fil3" x="33.5287" y="10.6813" width="2.09106" height="1.90573"/>
  <rect class="fil3" x="33.4396" y="17.8846" width="2.09106" height="1.90573"/>
  <rect class="fil3" x="33.3505" y="25.088" width="2.09106" height="1.90573"/>
  <rect class="fil3" x="39.6297" y="8.513" width="2.09106" height="1.90573"/>
  <rect class="fil3" x="39.5406" y="15.7164" width="2.09106" height="1.90573"/>
  <rect class="fil3" x="39.4516" y="22.9197" width="2.09106" height="1.90573"/>
  <rect class="fil3" x="30.6644" y="12.9823" width="2.09106" height="1.90573"/>
  <rect class="fil3" x="30.5753" y="20.1856" width="2.09106" height="1.90573"/>
  <rect class="fil3" x="30.4862" y="27.389" width="2.09106" height="1.90573"/>
  <rect class="fil3" x="36.6947" y="13.1763" width="2.48686" height="1.95048"/>
  <rect class="fil3" x="36.6056" y="20.3797" width="2.48686" height="1.95048"/>
  <rect class="fil3" x="36.5166" y="27.583" width="2.48686" height="1.95048"/>
  <rect class="fil3" x="33.2035" y="8.27418" width="2.48686" height="1.95048"/>
  <rect class="fil3" x="33.1145" y="15.4775" width="2.48686" height="1.95048"/>
  <rect class="fil3" x="33.0254" y="22.6809" width="2.48686" height="1.95048"/>
  <rect class="fil3" x="39.425" y="10.8754" width="2.48686" height="1.95048"/>
  <rect class="fil3" x="39.3359" y="18.0787" width="2.48686" height="1.95048"/>
  <rect class="fil3" x="39.2469" y="25.2821" width="2.48686" height="1.95048"/>
  <rect class="fil3" x="30.4733" y="10.5752" width="2.48686" height="1.95048"/>
  <rect class="fil3" x="30.3842" y="17.7785" width="2.48686" height="1.95048"/>
  <rect class="fil3" x="30.2951" y="24.9819" width="2.48686" height="1.95048"/>
  <rect class="fil3" x="36.5743" y="8.57436" width="2.48686" height="1.95048"/>
  <rect class="fil3" x="36.4852" y="15.7777" width="2.48686" height="1.95048"/>
  <rect class="fil3" x="36.3961" y="22.9811" width="2.48686" height="1.95048"/>
  <rect class="fil3" x="33.324" y="12.8762" width="2.48686" height="1.95048"/>
  <rect class="fil3" x="33.2349" y="20.0795" width="2.48686" height="1.95048"/>
  <rect class="fil3" x="33.1458" y="27.2829" width="2.48686" height="1.95048"/>
  <rect class="fil1 str0" x="39.9538" y="13.2424" width="2.01823" height="1.58292"/>
  <rect class="fil1 str0" x="39.8647" y="20.4457" width="2.01823" height="1.58292"/>
  <rect class="fil1 str0" x="39.7757" y="27.6491" width="2.01823" height="1.58292"/>
  <rect class="fil1 str0" x="30.4131" y="8.57573" width="2.01823" height="1.58292"/>
  <rect class="fil1 str0" x="30.324" y="15.7791" width="2.01823" height="1.58292"/>
  <rect class="fil1 str0" x="30.235" y="22.9824" width="2.01823" height="1.58292"/>
  <rect class="fil1 str0" x="36.6345" y="10.9414" width="2.01823" height="1.58292"/>
  <rect class="fil1 str0" x="36.5455" y="18.1447" width="2.01823" height="1.58292"/>
  <rect class="fil1 str0" x="36.4564" y="25.3481" width="2.01823" height="1.58292"/>
  <rect class="fil1 str0" x="33.7323" y="10.8767" width="2.01823" height="1.58292"/>
  <rect class="fil1 str0" x="33.6433" y="18.0801" width="2.01823" height="1.58292"/>
  <rect class="fil1 str0" x="33.5542" y="25.2834" width="2.01823" height="1.58292"/>
  <rect class="fil1 str0" x="39.8334" y="8.64036" width="2.01823" height="1.58292"/>
  <rect class="fil1 str1" x="45.9359" y="9.16277" width="2.01823" height="1.58292"/>
  <rect class="fil1 str1" x="45.912" y="11.4285" width="2.01823" height="1.58292"/>
  <rect class="fil1 str1" x="48.5984" y="11.5189" width="2.01823" height="1.58292"/>
  <rect class="fil1 str1" x="48.6967" y="9.15985" width="2.01823" height="1.58292"/>
  <rect class="fil1 str1" x="51.4574" y="9.15694" width="2.01823" height="1.58292"/>
  <rect class="fil1 str1" x="48.6967" y="9.15985" width="2.01823" height="1.58292"/>
  <rect class="fil1 str0" x="39.7443" y="15.8437" width="2.01823" height="1.58292"/>
  <rect class="fil1 str0" x="39.6552" y="23.0471" width="2.01823" height="1.58292"/>
  <rect class="fil1 str0" x="30.5335" y="13.1777" width="2.01823" height="1.58292"/>
  <rect class="fil1 str0" x="30.4444" y="20.3811" width="2.01823" height="1.58292"/>
  <rect class="fil1 str0" x="30.3554" y="27.5844" width="2.01823" height="1.58292"/>
  <rect class="fil1 str0" x="36.7619" y="13.179" width="2.30489" height="1.66991"/>
  <rect class="fil1 str0" x="36.6728" y="20.3824" width="2.30489" height="1.66991"/>
  <rect class="fil1 str0" x="36.5837" y="27.5857" width="2.30489" height="1.66991"/>
  <rect class="fil1 str0" x="33.3183" y="8.55205" width="2.30489" height="1.66991"/>
  <rect class="fil1 str0" x="33.2293" y="15.7554" width="2.30489" height="1.66991"/>
  <rect class="fil1 str0" x="33.1402" y="22.9587" width="2.30489" height="1.66991"/>
  <rect class="fil1 str0" x="39.5398" y="10.878" width="2.30489" height="1.66991"/>
  <rect class="fil1 str0" x="39.4507" y="18.0814" width="2.30489" height="1.66991"/>
  <rect class="fil1 str0" x="39.3617" y="25.2847" width="2.30489" height="1.66991"/>
  <rect class="fil1 str0" x="30.5404" y="10.853" width="2.30489" height="1.66991"/>
  <rect class="fil1 str0" x="30.4514" y="18.0564" width="2.30489" height="1.66991"/>
  <rect class="fil1 str0" x="30.3623" y="25.2597" width="2.30489" height="1.66991"/>
  <rect class="fil1 str0" x="36.6414" y="8.57705" width="2.30489" height="1.66991"/>
  <rect class="fil1 str0" x="36.5524" y="15.7804" width="2.30489" height="1.66991"/>
  <rect class="fil1 str0" x="36.4633" y="22.9838" width="2.30489" height="1.66991"/>
  <rect class="fil1 str0" x="33.4388" y="13.154" width="2.30489" height="1.66991"/>
  <rect class="fil1 str0" x="33.3497" y="20.3574" width="2.30489" height="1.66991"/>
  <rect class="fil1 str0" x="33.2606" y="27.5607" width="2.30489" height="1.66991"/>
  <rect class="fil4" x="28.5616" y="5.53166" width="14.7038" height="1.51324"/>
  <rect class="fil1 str0" x="28.6286" y="5.90511" width="14.7038" height="1.51324"/>
  <polygon class="fil5" points="52.7242,33.3305 66.1352,33.3361 66.1352,25.8325 52.7242,25.8325 "/>
  <polygon class="fil6" points="36.1723,33.5092 21.338,33.5166 21.338,23.728 36.1723,23.728 "/>
  <polygon class="fil1 str2" points="52.5639,33.3857 65.8982,33.3912 65.8982,26.0305 52.5639,26.0305 "/>
  <polygon class="fil6 str0" points="35.7525,33.6513 21.3972,33.8825 21.3972,23.3074 35.7815,23.3074 "/>
  <rect class="fil3" x="53.57" y="26.9253" width="2.97128" height="4.44519"/>
  <rect class="fil3" x="31.9923" y="25.5574" width="2.33106" height="2.60258"/>
  <rect class="fil3" x="22.2568" y="25.4935" width="2.33106" height="2.60258"/>
  <rect class="fil3" x="25.8025" y="30.0936" width="2.33106" height="3.42"/>
  <rect class="fil3" x="57.3444" y="27.1279" width="3.53369" height="3.99051"/>
  <rect class="fil3" x="28.5862" y="25.3816" width="2.77229" height="2.90133"/>
  <rect class="fil3" x="25.2217" y="25.3177" width="2.77229" height="2.90133"/>
  <rect class="fil3" x="28.1977" y="30.0216" width="2.77229" height="3.49078"/>
  <rect class="fil3" x="61.7495" y="26.9629" width="2.82624" height="3.59029"/>
  <rect class="fil1 str0" x="53.3841" y="27.2223" width="2.86779" height="3.69224"/>
  <rect class="fil1 str0" x="32.2193" y="25.2813" width="2.24987" height="2.65217"/>
  <rect class="fil1 str0" x="22.111" y="25.2173" width="2.24987" height="2.65217"/>
  <rect class="fil1 str0" x="25.6566" y="29.7845" width="2.24987" height="4.09493"/>
  <rect class="fil1 str0" x="57.4738" y="27.1278" width="3.27512" height="3.64416"/>
  <rect class="fil1 str0" x="28.6611" y="25.1557" width="2.56944" height="2.80513"/>
  <rect class="fil1 str0" x="25.3497" y="25.0918" width="2.56944" height="2.80513"/>
  <rect class="fil1 str0" x="28.3256" y="29.7687" width="2.56944" height="3.96895"/>
  <rect class="fil1 str0" x="61.5346" y="27.3559" width="3.15898" height="3.39958"/>
  <polygon class="fil7" points="65.9078,25.7782 51.7743,25.7688 55.5082,23.4125 57.6721,24.7661 61.5468,22.4179 "/>
  <polygon class="fil1 str0" points="66.0437,25.6705 51.9101,25.6611 55.5968,22.9912 57.8079,24.6584 61.6043,21.9955 "/>
  <polygon class="fil8" points="51.1454,33.4854 36.3111,33.5002 36.3111,13.7817 51.1454,13.7817 "/>
  <polygon class="fil1 str0" points="51.5017,33.3267 37.1174,33.3414 36.9524,14.4943 51.3367,14.4943 "/>
  <rect class="fil3" x="44.9582" y="26.9601" width="4.76783" height="4.51751"/>
  <rect class="fil3" x="38.1528" y="21.5056" width="4.76783" height="4.51751"/>
  <rect class="fil3" x="44.6837" y="16.0511" width="4.76783" height="4.51751"/>
  <rect class="fil3" x="37.9916" y="27.1055" width="5.67029" height="4.62359"/>
  <rect class="fil3" x="44.217" y="21.651" width="5.67029" height="4.62359"/>
  <rect class="fil3" x="37.717" y="16.1965" width="5.67029" height="4.62359"/>
  <rect class="fil1 str0" x="45.4227" y="27.262" width="4.60176" height="3.75231"/>
  <rect class="fil1 str0" x="37.8544" y="21.8075" width="4.60176" height="3.75231"/>
  <rect class="fil1 str0" x="45.1481" y="16.353" width="4.60176" height="3.75231"/>
  <rect class="fil1 str0" x="38.1448" y="27.1119" width="5.25539" height="3.95852"/>
  <rect class="fil1 str0" x="44.4787" y="21.6574" width="5.25539" height="3.95852"/>
  <rect class="fil1 str0" x="37.8702" y="16.2029" width="5.25539" height="3.95852"/>
  <rect class="fil9" x="36.5541" y="13.5164" width="14.8346" height="1.10353"/>
  <rect class="fil1 str0" x="36.6217" y="13.7887" width="14.8346" height="1.10353"/>
  <line class="fil1 str0" x1="57.3991" y1="24.3502" x2="59.1596" y2= "25.6628" />
  <polygon class="fil9" points="28.7049,19.453 36.8792,23.3074 20.6446,23.3074 "/>
  <polygon class="fil1 str2" points="28.3297,19.1658 36.504,23.0202 20.2694,23.0202 "/>
  <path class="fil1 str3" d="M69.1575 33.9821c-15.906,-1.3498 -37.9469,-0.2831 -52.3978,0.3324"/>
  <line class="fil1 str4" x1="71.2583" y1="36.3253" x2="13.3067" y2= "37.0477" />
  <circle class="fil10" cx="64.6419" cy="9.46405" r="2.47583"/>
  <circle class="fil1 str5" cx="64.4607" cy="9.6724" r="2.51628"/>
  <polyline class="fil1 str1" points="44.93,13.5164 44.93,8.0673 56.3994,8.0673 "/>
  <path class="fil11 str6" d="M19.2363 13.3436l0.0207 0c-0.0356,-0.1034 -0.0549,-0.2143 -0.0549,-0.3298 0,-0.5591 0.4531,-1.0123 1.0122,-1.0123 0.1067,0 0.2094,0.0165 0.3059,0.0471 0.1678,-0.5254 0.6598,-0.9058 1.2408,-0.9058 0.4504,0 0.8475,0.2287 1.0813,0.5763 0.0629,-0.0086 0.1271,-0.0131 0.1924,-0.0131 0.6285,0 1.1608,0.4111 1.343,0.9791 0.5324,0.0429 0.9511,0.4885 0.9511,1.032 0,0.5719 -0.4635,1.0354 -1.0354,1.0354 -0.0488,0 -0.0967,-0.0034 -0.1437,-0.0099l-4.5182 0c-0.0503,0.0111 -0.1026,0.017 -0.1563,0.017 -0.0537,0 -0.1059,-0.0059 -0.1563,-0.017l-0.0826 0 0 -0.0235c-0.2814,-0.0986 -0.4833,-0.3666 -0.4833,-0.6817 0,-0.3152 0.2019,-0.5832 0.4833,-0.6818l0 -0.012z"/>
 </g>
</svg>
