<?xml version="1.0" encoding="UTF-8"?>
<!DOCTYPE svg PUBLIC "-//W3C//DTD SVG 1.1//EN" "http://www.w3.org/Graphics/SVG/1.1/DTD/svg11.dtd">
<!-- Creator: CorelDRAW -->
<svg xmlns="http://www.w3.org/2000/svg" xml:space="preserve" width="85mm" height="40mm" style="shape-rendering:geometricPrecision; text-rendering:geometricPrecision; image-rendering:optimizeQuality; fill-rule:evenodd; clip-rule:evenodd"
viewBox="0 0 85 40"
 xmlns:xlink="http://www.w3.org/1999/xlink">
 <defs>
  <style type="text/css">
   <![CDATA[
    .str3 {stroke:gray;stroke-width:0.2}
    .str1 {stroke:#B3B3B3;stroke-width:0.2}
    .str4 {stroke:#EAF2EF;stroke-width:0.2}
    .str0 {stroke:#B3B3B3;stroke-width:0.75}
    .str2 {stroke:#FF7F6E;stroke-width:1.5}
    .fil1 {fill:none}
    .fil0 {fill:white}
   ]]>
  </style>
 </defs>
 <g id="Layer_x0020_1">
  <metadata id="CorelCorpID_0Corel-Layer"/>
  <path class="fil0 str0" d="M21.9977 19.0996l0.1218 0c-0.2096,-0.6083 -0.3235,-1.2608 -0.3235,-1.9401 0,-3.2889 2.666,-5.9549 5.9549,-5.9549 0.6274,0 1.2317,0.0971 1.7995,0.277 0.9869,-3.0905 3.8813,-5.3284 7.2991,-5.3284 2.6498,0 4.9854,1.3453 6.3609,3.3901 0.37,-0.0504 0.7477,-0.0771 1.1317,-0.0771 3.6972,0 6.8287,2.4186 7.9005,5.7596 3.1321,0.2525 5.5951,2.8738 5.5951,6.071 0,3.3641 -2.727,6.0912 -6.0912,6.0912 -0.2868,0 -0.5689,-0.0202 -0.8452,-0.0586l-26.5789 0c-0.2961,0.0653 -0.6037,0.1001 -0.9195,0.1001 -0.3158,0 -0.6233,-0.0348 -0.9194,-0.1001l-0.4858 0 0 -0.138c-1.6558,-0.58 -2.8433,-2.1566 -2.8433,-4.0105 0,-1.854 1.1875,-3.4305 2.8433,-4.0105l0 -0.0708z"/>
  <path class="fil0 str1" d="M69.6457 11.7915l0.0207 0c-0.0356,-0.1034 -0.0549,-0.2143 -0.0549,-0.3298 0,-0.5591 0.4531,-1.0123 1.0122,-1.0123 0.1067,0 0.2094,0.0165 0.3059,0.0471 0.1678,-0.5254 0.6598,-0.9058 1.2408,-0.9058 0.4504,0 0.8475,0.2287 1.0813,0.5763 0.0629,-0.0086 0.1271,-0.0131 0.1924,-0.0131 0.6285,0 1.1608,0.4111 1.343,0.9791 0.5324,0.0429 0.9511,0.4885 0.9511,1.032 0,0.5719 -0.4635,1.0354 -1.0354,1.0354 -0.0488,0 -0.0967,-0.0034 -0.1437,-0.0099l-4.5182 0c-0.0503,0.0111 -0.1026,0.017 -0.1563,0.017 -0.0537,0 -0.1059,-0.0059 -0.1563,-0.017l-0.0826 0 0 -0.0235c-0.2814,-0.0986 -0.4833,-0.3666 -0.4833,-0.6817 0,-0.3152 0.2019,-0.5832 0.4833,-0.6818l0 -0.012z"/>
  <path class="fil0 str1" d="M12.0802 4.411l-0.0303 0c0.0521,-0.1512 0.0804,-0.3134 0.0804,-0.4822 0,-0.8174 -0.6626,-1.48 -1.48,-1.48 -0.1559,0 -0.3061,0.0241 -0.4472,0.0688 -0.2453,-0.7681 -0.9646,-1.3243 -1.8141,-1.3243 -0.6586,0 -1.239,0.3344 -1.5809,0.8426 -0.092,-0.0125 -0.1858,-0.0192 -0.2813,-0.0192 -0.9188,0 -1.6971,0.6011 -1.9635,1.4315 -0.7784,0.0628 -1.3906,0.7142 -1.3906,1.5089 0,0.8361 0.6778,1.5139 1.5139,1.5139 0.0713,0 0.1414,-0.0051 0.2101,-0.0146l6.6057 0c0.0736,0.0162 0.1501,0.0249 0.2286,0.0249 0.0784,0 0.1549,-0.0087 0.2285,-0.0249l0.1207 0 0 -0.0343c0.4115,-0.1442 0.7067,-0.536 0.7067,-0.9968 0,-0.4607 -0.2952,-0.8526 -0.7067,-0.9967l0 -0.0176z"/>
  <polygon class="fil1 str2" points="29.8987,9.0332 21.9031,10.6127 29.0727,23.2371 58.1828,16.1729 53.1256,10.1052 46.9947,11.1154 56.7458,24.3042 41.6873,29.159 "/>
  <g id="_164815264">
   <polyline id="_161782984" class="fil1 str3" points="19.8647,9.1587 28.509,24.5846 59.6958,16.7229 "/>
   <polyline id="_163201248" class="fil1 str3" points="58.4289,15.2697 29.1794,22.5728 21.6895,9.3459 "/>
   <line id="_162550920" class="fil1 str3" x1="20.3853" y1="12.1776" x2="33.8735" y2= "9.6065" />
   <line id="_163198152" class="fil1 str3" x1="20.635" y1="10.5333" x2="32.6067" y2= "8.1534" />
  </g>
  <line class="fil1 str3" x1="29.6631" y1="7.781" x2="42.1224" y2= "28.8069" />
  <line class="fil1 str3" x1="28.2836" y1="8.1913" x2="41.3621" y2= "30.7713" />
  <line class="fil1 str3" x1="54.5897" y1="23.9153" x2="40.9207" y2= "28.3833" />
  <line class="fil1 str3" x1="40.6543" y1="30.3614" x2="58.1668" y2= "24.5115" />
  <line class="fil1 str3" x1="44.333" y1="10.2136" x2="54.9896" y2= "24.3726" />
  <line class="fil1 str3" x1="46.1588" y1="10.0272" x2="57.8213" y2= "25.5277" />
  <line class="fil1 str3" x1="45.3758" y1="12.6171" x2="55.9206" y2= "10.7913" />
  <line class="fil1 str3" x1="44.1089" y1="11.0148" x2="53.6849" y2= "9.5989" />
  <line class="fil1 str3" x1="52.7908" y1="9.4498" x2="59.3631" y2= "17.4792" />
  <line class="fil1 str3" x1="51.7044" y1="10.7461" x2="56.6276" y2= "16.5155" />
  <rect class="fil1 str4" x="13.4744" y="30.2347" width="2.78129" height="2.46399"/>
  <rect class="fil1 str4" x="67.7828" y="30.4381" width="2.78129" height="2.46399"/>
  <rect class="fil1 str4" x="24.4773" y="33.9932" width="1.5472" height="1.3707"/>
  <rect class="fil1 str4" x="58.0138" y="34.1966" width="1.5472" height="1.3707"/>
  <rect class="fil1 str4" x="9.71458" y="30.2213" width="2.78129" height="2.46399"/>
  <rect class="fil1 str4" x="71.5426" y="30.4247" width="2.78129" height="2.46399"/>
  <rect class="fil1 str4" x="22.3857" y="33.9858" width="1.5472" height="1.3707"/>
  <rect class="fil1 str4" x="60.1053" y="34.1892" width="1.5472" height="1.3707"/>
  <rect class="fil1 str4" x="5.85549" y="26.7192" width="2.78129" height="2.46399"/>
  <rect class="fil1 str4" x="75.4018" y="26.9226" width="2.78129" height="2.46399"/>
  <rect class="fil1 str4" x="20.239" y="32.0376" width="1.5472" height="1.3707"/>
  <rect class="fil1 str4" x="62.2521" y="32.241" width="1.5472" height="1.3707"/>
  <polyline class="fil1 str4" points="17.5814,38.2284 17.5814,21.2922 1.7753,21.2922 "/>
  <polyline class="fil1 str4" points="66.457,38.4318 66.457,21.4956 82.2631,21.4956 "/>
  <polyline class="fil1 str4" points="26.762,38.4399 26.762,29.0185 17.9693,29.0185 "/>
  <polyline class="fil1 str4" points="57.2764,38.6433 57.2764,29.2219 66.0691,29.2219 "/>
  <rect class="fil1 str4" x="13.414" y="22.9974" width="2.78129" height="2.46399"/>
  <rect class="fil1 str4" x="67.8433" y="23.2008" width="2.78129" height="2.46399"/>
  <rect class="fil1 str4" x="24.4436" y="29.9672" width="1.5472" height="1.3707"/>
  <rect class="fil1 str4" x="58.0474" y="30.1706" width="1.5472" height="1.3707"/>
  <rect class="fil1 str4" x="13.4469" y="26.5244" width="2.78129" height="2.46399"/>
  <rect class="fil1 str4" x="67.8103" y="26.7278" width="2.78129" height="2.46399"/>
  <rect class="fil1 str4" x="24.462" y="31.9292" width="1.5472" height="1.3707"/>
  <rect class="fil1 str4" x="58.0291" y="32.1326" width="1.5472" height="1.3707"/>
  <rect class="fil1 str4" x="9.74478" y="26.6651" width="2.78129" height="2.46399"/>
  <rect class="fil1 str4" x="71.5125" y="26.8685" width="2.78129" height="2.46399"/>
  <rect class="fil1 str4" x="22.4025" y="32.0075" width="1.5472" height="1.3707"/>
  <rect class="fil1 str4" x="60.0886" y="32.2109" width="1.5472" height="1.3707"/>
  <rect class="fil1 str4" x="9.60928" y="22.9929" width="2.78129" height="2.46399"/>
  <rect class="fil1 str4" x="71.6479" y="23.1963" width="2.78129" height="2.46399"/>
  <rect class="fil1 str4" x="22.3272" y="29.9647" width="1.5472" height="1.3707"/>
  <rect class="fil1 str4" x="60.1639" y="30.1681" width="1.5472" height="1.3707"/>
  <rect class="fil1 str4" x="5.80469" y="22.9884" width="2.78129" height="2.46399"/>
  <rect class="fil1 str4" x="75.4525" y="23.1918" width="2.78129" height="2.46399"/>
  <rect class="fil1 str4" x="20.2108" y="29.9622" width="1.5472" height="1.3707"/>
  <rect class="fil1 str4" x="62.2804" y="30.1656" width="1.5472" height="1.3707"/>
  <rect class="fil1 str4" x="1.9953" y="22.9163" width="2.78129" height="2.46399"/>
  <rect class="fil1 str4" x="79.2619" y="23.1197" width="2.78129" height="2.46399"/>
  <rect class="fil1 str4" x="18.0916" y="29.9221" width="1.5472" height="1.3707"/>
  <rect class="fil1 str4" x="64.3995" y="30.1255" width="1.5472" height="1.3707"/>
  <rect class="fil1 str4" x="9.60928" y="22.9929" width="2.78129" height="2.46399"/>
  <rect class="fil1 str4" x="71.6479" y="23.1963" width="2.78129" height="2.46399"/>
  <rect class="fil1 str4" x="22.3272" y="29.9647" width="1.5472" height="1.3707"/>
  <rect class="fil1 str4" x="60.1639" y="30.1681" width="1.5472" height="1.3707"/>
 </g>
</svg>
