<svg xmlns="http://www.w3.org/2000/svg" width="320.001" height="63.999" viewBox="0 0 84.667 16.933" shape-rendering="geometricPrecision" image-rendering="optimizeQuality" fill-rule="evenodd" xmlns:v="https://vecta.io/nano"><path d="M17.768 5.465v3.001 3.001a1.55 1.55 0 0 1-.793 1.374l-2.599 1.501-2.599 1.501a1.58 1.58 0 0 1-.793.218 1.58 1.58 0 0 0 .208-.796v-3.001-3.001a1.55 1.55 0 0 0-.793-1.374L7.799 6.388 5.2 4.887a1.58 1.58 0 0 0-.794-.218 1.58 1.58 0 0 1 .585-.577l2.599-1.501L10.19 1.09a1.55 1.55 0 0 1 1.586 0l2.599 1.501 2.599 1.501a1.55 1.55 0 0 1 .793 1.374zm-9.045 9.53l-1.132-.653-2.599-1.501a1.55 1.55 0 0 1-.793-1.374V8.467 7.16c.25-.052.508-.01.743.126l1.754 1.013L8.45 9.311c.341.197.535.534.535.927v2.025 2.025c0 .271-.093.516-.263.707z" fill="#519839"/><path d="M28.557 10.007h-1.776a1.14 1.14 0 0 0-.426.078 1.17 1.17 0 0 0-.373.239c-.195.208-.411.367-.651.472a1.89 1.89 0 0 1-.769.161c-.657.008-1.151-.208-1.48-.645s-.491-1.097-.491-1.973.154-1.534.465-1.973.778-.661 1.4-.661c.373 0 .684.078.935.233a1.55 1.55 0 0 1 .592.683h2.574c-.204-.958-.642-1.675-1.317-2.153s-1.577-.714-2.714-.714c-1.447.025-2.53.417-3.252 1.178s-1.08 1.898-1.08 3.406c.035 1.517.417 2.659 1.145 3.42s1.802 1.147 3.223 1.147c.728.014 1.367-.097 1.912-.331s.994-.567 1.343-1.006.598-.961.74-1.564zm4.784-6.152c-1.405 0-2.458.377-3.16 1.129s-1.053 1.888-1.053 3.404c0 1.5.351 2.629 1.053 3.382s1.756 1.135 3.16 1.135 2.461-.379 3.169-1.135 1.062-1.882 1.062-3.382c0-1.517-.354-2.651-1.062-3.404s-1.765-1.129-3.169-1.129zm0 1.929c.597 0 1.045.209 1.343.632s.448 1.058.448 1.907c-.009.866-.161 1.519-.462 1.959s-.749.662-1.346.662-1.048-.214-1.355-.64-.462-1.066-.471-1.915c0-.865.152-1.517.459-1.951s.77-.654 1.384-.654zM44.97 4.317c-.29 0-.53.066-.723.195s-.331.324-.418.58l-1.615 5.341-1.879-6.116h-2.581l3.266 8.721h2.476l3.283-8.721H44.97zm5.186 6.775c-.369 0-.65-.082-.846-.253s-.304-.423-.331-.769a.99.99 0 0 1 .354-.788c.234-.206.585-.349 1.051-.431l.983-.233.878-.294v.808c0 .412-.085.767-.252 1.058a1.67 1.67 0 0 1-.717.67c-.31.156-.685.231-1.121.233zm.544-5.44c.483 0 .849.061 1.097.184s.386.311.413.558c0 .239-.126.429-.38.572s-.629.245-1.13.302c-.591.05-1.127.132-1.612.245s-.907.272-1.261.484a2.3 2.3 0 0 0-.828.838c-.199.346-.304.78-.319 1.302.003.483.094.904.275 1.264s.442.657.776.89.735.396 1.194.495.972.129 1.53.088c.84-.052 1.563-.214 2.169-.484s1.068-.665 1.393-1.181.492-1.179.495-1.978V6.262c-.026-.808-.366-1.409-1.016-1.811s-1.618-.596-2.9-.596c-1.071 0-1.908.198-2.514.596s-.98 1.003-1.121 1.811h2.335c.062-.206.208-.36.439-.459s.553-.151.966-.151zm6.081-3.989H55.57v11.21h2.335V2.734a1.04 1.04 0 0 0-.155-.536 1.15 1.15 0 0 0-.969-.535zm10.225 8.374h-1.721c-.158 0-.304.025-.436.077s-.249.129-.354.236c-.228.206-.468.363-.723.467a2.06 2.06 0 0 1-.787.159c-.571 0-1.01-.168-1.317-.505s-.483-.838-.527-1.506h6.005c.088-1.706-.217-2.984-.91-3.836s-1.776-1.275-3.251-1.275c-1.413.008-2.476.385-3.184 1.127s-1.065 1.857-1.065 3.341.351 2.607 1.053 3.374 1.756 1.168 3.16 1.209c.758-.003 1.411-.113 1.952-.332s.989-.547 1.335-.973.603-.948.77-1.563zM62.95 5.652c.5 0 .895.148 1.182.44s.468.731.538 1.308h-3.494c.088-.577.281-1.014.577-1.308s.697-.44 1.197-.44zm12.964 7.221V7.746c.009-1.245-.313-2.176-.966-2.797s-1.642-.929-2.967-.929-2.321.311-2.988.929-.998 1.552-.998 2.797v5.127h2.37V7.301c.009-.453.143-.791.407-1.017s.656-.335 1.174-.335.91.11 1.176.335.413.563.439 1.017v4.484c0 .346.097.607.29.786s.483.277.869.302h1.194zm4.554-8.078v-.478h-1.405V2.932a1.08 1.08 0 0 0-.155-.544 1.19 1.19 0 0 0-.404-.404c-.17-.104-.357-.154-.565-.157h-1.212v9.529c-.009.486.094.857.304 1.115s.538.409.978.451l1.276.063 1.182-.047v-1.665h-.72c-.228 0-.401-.05-.515-.143s-.17-.236-.17-.418v-4.83h.246c.219-.003.416-.049.588-.143a1.09 1.09 0 0 0 .416-.385 1.08 1.08 0 0 0 .155-.561h0z" fill="#606062" fill-rule="nonzero"/></svg>