<?xml version="1.0" encoding="UTF-8"?>
<!DOCTYPE svg PUBLIC "-//W3C//DTD SVG 1.1//EN" "http://www.w3.org/Graphics/SVG/1.1/DTD/svg11.dtd">
<!-- Creator: CorelDRAW -->
<svg xmlns="http://www.w3.org/2000/svg" xml:space="preserve" width="42.3332mm" height="42.3332mm" style="shape-rendering:geometricPrecision; text-rendering:geometricPrecision; image-rendering:optimizeQuality; fill-rule:evenodd; clip-rule:evenodd"
viewBox="0 0 42.3332 42.3332"
 xmlns:xlink="http://www.w3.org/1999/xlink">
 <defs>
  <style type="text/css">
   <![CDATA[
    .str0 {stroke:#606062;stroke-width:1}
    .fil1 {fill:none}
    .fil0 {fill:#7FB86C}
   ]]>
  </style>
 </defs>
 <g id="Camada_x0020_1">
  <metadata id="CorelCorpID_0Corel-Layer"/>
  <g id="_164814784">
   <path id="_7002608" class="fil0" d="M37.2327 15.5248l0 6.615 0 6.6153c0,1.2839 -0.6534,2.3859 -1.7949,3.0278l-5.8818 3.3075 -5.8819 3.3075c-0.5704,0.3208 -1.182,0.4813 -1.7937,0.4815 0.3064,-0.5164 0.4699,-1.1132 0.4699,-1.7556l0 -6.6152 0 -6.6149c0,-1.2838 -0.6534,-2.386 -1.7948,-3.0279l-5.8818 -3.3076 -5.8819 -3.3074c-0.5712,-0.3212 -1.1837,-0.4817 -1.796,-0.4815 0.306,-0.5159 0.7545,-0.9516 1.3249,-1.2724l5.8819 -3.3076 5.8818 -3.3075c1.1415,-0.6419 2.4481,-0.6419 3.5897,0l5.8819 3.3075 5.8819 3.3077c1.1414,0.6418 1.7948,1.7441 1.7948,3.0278zm-20.4688 21.0059l-2.5613 -1.4403 -5.8819 -3.3075c-1.1414,-0.6418 -1.7948,-1.7441 -1.7948,-3.0278l0 -6.6152 0 -2.8806c0.565,-0.1141 1.1503,-0.0216 1.6823,0.2776l3.9694 2.232 3.9694 2.2322c0.7704,0.4332 1.2113,1.177 1.2113,2.0434l0 4.4642 -0.0001 4.4643c0.0001,0.5983 -0.2104,1.1382 -0.5943,1.5577z"/>
   <path id="_7002464" class="fil1 str0" d="M35.8074 13.5782l0 6.6151 0 6.6152c-0.0001,1.2839 -0.6535,2.3859 -1.795,3.0278l-5.8817 3.3075 -5.8819 3.3075c-0.5704,0.3208 -1.1821,0.4813 -1.7938,0.4815 0.3065,-0.5164 0.4699,-1.1132 0.4699,-1.7556l0 -6.6152 0 -6.6149c0,-1.2838 -0.6534,-2.386 -1.7948,-3.0279l-5.8818 -3.3076 -5.8819 -3.3074c-0.5711,-0.3212 -1.1836,-0.4817 -1.796,-0.4815 0.306,-0.5159 0.7545,-0.9516 1.325,-1.2724l5.8819 -3.3075 5.8817 -3.3075c1.1415,-0.6419 2.4482,-0.6419 3.5897,-0.0001l5.882 3.3076 5.8818 3.3076c1.1415,0.6419 1.7949,1.7441 1.7949,3.0278zm-20.4689 21.0059l-2.5612 -1.4403 -5.882 -3.3075c-1.1414,-0.6418 -1.7948,-1.7441 -1.7948,-3.0278l0.0001 -6.6152 0 -2.8806c0.5649,-0.1141 1.1502,-0.0216 1.6822,0.2776l3.9695 2.232 3.9693 2.2322c0.7704,0.4332 1.2113,1.177 1.2113,2.0434l0.0001 4.4642 -0.0001 4.4643c0,0.5984 -0.2104,1.1382 -0.5944,1.5577z"/>
  </g>
 </g>
</svg>
