<?xml version="1.0" encoding="UTF-8"?>
<!DOCTYPE svg PUBLIC "-//W3C//DTD SVG 1.1//EN" "http://www.w3.org/Graphics/SVG/1.1/DTD/svg11.dtd">
<!-- Creator: CorelDRAW -->
<svg xmlns="http://www.w3.org/2000/svg" xml:space="preserve" width="84.6666mm" height="16.9332mm" style="shape-rendering:geometricPrecision; text-rendering:geometricPrecision; image-rendering:optimizeQuality; fill-rule:evenodd; clip-rule:evenodd"
viewBox="0 0 84.6666 16.9332"
 xmlns:xlink="http://www.w3.org/1999/xlink">
 <defs>
  <style type="text/css">
   <![CDATA[
    .fil0 {fill:white}
    .fil1 {fill:white;fill-rule:nonzero}
   ]]>
  </style>
 </defs>
 <g id="Camada_x0020_1">
  <metadata id="CorelCorpID_0Corel-Layer"/>
  <path class="fil0" d="M17.7678 5.4654l0 3.0012 0 3.0013c0,0.5824 -0.2888,1.0824 -0.7932,1.3736l-2.5991 1.5006 -2.5991 1.5006c-0.2521,0.1455 -0.5223,0.2184 -0.7927,0.2185 0.1355,-0.2343 0.2077,-0.5051 0.2077,-0.7965l0 -3.0013 0 -3.0012c0,-0.5824 -0.2887,-1.0825 -0.7931,-1.3737l-2.5991 -1.5006 -2.5991 -1.5006c-0.2524,-0.1457 -0.5231,-0.2185 -0.7937,-0.2184 0.1352,-0.2341 0.3334,-0.4317 0.5855,-0.5773l2.5991 -1.5006 2.5991 -1.5006c0.5045,-0.2912 1.0818,-0.2912 1.5863,0l2.5991 1.5006 2.5992 1.5007c0.5044,0.2912 0.7931,0.7913 0.7931,1.3737zm-9.045 9.5302l-1.1318 -0.6535 -2.5991 -1.5006c-0.5044,-0.2912 -0.7931,-0.7913 -0.7931,-1.3737l0 -3.0012 0 -1.3069c0.2496,-0.0518 0.5083,-0.0098 0.7433,0.1259l1.7541 1.0127 1.754 1.0127c0.3405,0.1965 0.5353,0.534 0.5353,0.9271l0 2.0253 0 2.0254c0,0.2715 -0.093,0.5164 -0.2627,0.7068z"/>
  <path class="fil1" d="M28.5568 10.0074l-1.7755 0c-0.1509,0 -0.293,0.025 -0.4261,0.0778 -0.1331,0.05 -0.2574,0.1305 -0.3728,0.2389 -0.1953,0.2084 -0.4113,0.3667 -0.6511,0.4723 -0.2366,0.1084 -0.4942,0.1612 -0.7693,0.1612 -0.6569,0.0083 -1.1511,-0.2084 -1.4796,-0.6446 -0.3285,-0.439 -0.4912,-1.0974 -0.4912,-1.9726 0,-0.8752 0.1539,-1.5336 0.4646,-1.9726 0.3107,-0.4418 0.7782,-0.6613 1.3996,-0.6613 0.3729,0 0.6836,0.0778 0.9352,0.2334 0.2544,0.1556 0.4497,0.3834 0.5918,0.6835l2.5744 0c-0.2041,-0.9585 -0.6421,-1.6753 -1.3168,-2.1532 -0.6717,-0.4751 -1.5772,-0.714 -2.7136,-0.714 -1.447,0.025 -2.53,0.4167 -3.252,1.178 -0.7191,0.764 -1.0801,1.8976 -1.0801,3.4062 0.0355,1.5169 0.4172,2.6588 1.1452,3.4201 0.7279,0.764 1.8021,1.1474 3.2225,1.1474 0.7279,0.0139 1.3671,-0.0972 1.9116,-0.3306 0.5445,-0.2334 0.9943,-0.5668 1.3434,-1.0057 0.3493,-0.439 0.5978,-0.9613 0.7398,-1.5642z"/>
  <path id="1" class="fil1" d="M33.3407 3.8552c-1.4047,0 -2.4582,0.3765 -3.1605,1.1293 -0.7023,0.7528 -1.0535,1.8876 -1.0535,3.4042 0,1.5002 0.3512,2.6294 1.0535,3.3823 0.7023,0.7556 1.7558,1.1347 3.1605,1.1347 1.4047,0 2.461,-0.3791 3.1693,-1.1347 0.7082,-0.7529 1.0622,-1.8821 1.0622,-3.3823 0,-1.5166 -0.354,-2.6514 -1.0622,-3.4042 -0.7083,-0.7528 -1.7646,-1.1293 -3.1693,-1.1293zm0 1.9288c0.5969,0 1.0447,0.2088 1.3432,0.632 0.2985,0.4231 0.4478,1.0578 0.4478,1.9068 -0.0088,0.8655 -0.161,1.5194 -0.4625,1.959 -0.3014,0.4396 -0.749,0.6622 -1.346,0.6622 -0.597,0 -1.0477,-0.2143 -1.355,-0.6402 -0.3043,-0.4286 -0.4624,-1.0661 -0.4711,-1.9151 0,-0.8655 0.1521,-1.5166 0.4594,-1.9507 0.3102,-0.4369 0.7697,-0.654 1.3842,-0.654z"/>
  <path id="12" class="fil1" d="M44.9702 4.3168c-0.2897,0 -0.5297,0.066 -0.7228,0.1951 -0.1902,0.1319 -0.3307,0.3242 -0.4184,0.5797l-1.6155 5.3413 -1.8787 -6.1161 -2.5811 0 3.2659 8.7208 2.4758 0 3.2833 -8.7208 -1.8085 0z"/>
  <path id="123" class="fil1" d="M50.1559 11.0923c-0.3687,0 -0.6497,-0.0824 -0.8458,-0.2527 -0.1931,-0.1676 -0.3043,-0.4232 -0.3306,-0.7694 0,-0.3214 0.1171,-0.5852 0.3541,-0.7885 0.2341,-0.2061 0.5852,-0.349 1.0506,-0.4314 0.3423,-0.0659 0.6701,-0.1456 0.9832,-0.2335 0.3132,-0.0879 0.6058,-0.1869 0.8779,-0.294l0 0.8078c0,0.4121 -0.0848,0.7665 -0.2517,1.0578 -0.1668,0.2912 -0.4067,0.5138 -0.7169,0.6704 -0.3131,0.1539 -0.6847,0.2308 -1.1208,0.2335zm0.5443 -5.4402c0.4829,0 0.8486,0.0605 1.0974,0.1841 0.2487,0.1237 0.3862,0.3105 0.4126,0.5578 0,0.239 -0.1258,0.4286 -0.3804,0.5715 -0.2517,0.1456 -0.6291,0.2445 -1.1296,0.3022 -0.5912,0.0495 -1.1267,0.1319 -1.6125,0.2446 -0.4857,0.1126 -0.9071,0.272 -1.2612,0.4835 -0.3541,0.2116 -0.6292,0.4918 -0.8282,0.838 -0.196,0.349 -0.3043,0.7803 -0.3189,1.3024 0.0028,0.4835 0.0936,0.9039 0.275,1.2639 0.1843,0.3599 0.4419,0.6566 0.7755,0.8902 0.3365,0.2308 0.7346,0.3956 1.1939,0.4945 0.4595,0.0989 0.9716,0.1292 1.5305,0.088 0.84,-0.0522 1.5627,-0.2144 2.1686,-0.4836 0.6028,-0.2693 1.068,-0.6649 1.3929,-1.1815 0.3277,-0.5193 0.4916,-1.1787 0.4946,-1.9782l0 -2.9674c-0.0264,-0.8078 -0.3659,-1.4095 -1.0156,-1.8106 -0.6525,-0.3984 -1.6182,-0.5963 -2.9,-0.5963 -1.071,0 -1.908,0.1979 -2.5138,0.5963 -0.6057,0.4011 -0.9803,1.0028 -1.1208,1.8106l2.3353 0c0.0615,-0.2061 0.2078,-0.3599 0.439,-0.4588 0.2312,-0.1017 0.5531,-0.1512 0.9657,-0.1512z"/>
  <path id="1234" class="fil1" d="M56.7813 1.6627l-1.2116 0 0 11.2101 2.3352 0 0 -10.1385c-0.0028,-0.1951 -0.0556,-0.3737 -0.155,-0.5358 -0.0995,-0.1594 -0.2341,-0.2885 -0.4038,-0.3874 -0.1698,-0.0962 -0.357,-0.1456 -0.5648,-0.1484z"/>
  <path id="12345" class="fil1" d="M67.0061 10.0373l-1.7207 0c-0.1581,0 -0.3043,0.0247 -0.4361,0.0769 -0.1316,0.0495 -0.2487,0.1291 -0.354,0.2363 -0.2284,0.2061 -0.4683,0.3627 -0.7229,0.4671 -0.2517,0.1071 -0.5151,0.1593 -0.7872,0.1593 -0.5707,0 -1.0096,-0.1676 -1.3169,-0.5055 -0.3072,-0.3352 -0.4828,-0.838 -0.5268,-1.5057l6.0051 0c0.0878,-1.7062 -0.2166,-2.9838 -0.9101,-3.8356 -0.6936,-0.849 -1.7764,-1.2749 -3.2513,-1.2749 -1.4135,0.0083 -2.4757,0.3847 -3.1839,1.1265 -0.7111,0.7446 -1.0652,1.8574 -1.0652,3.3411 0,1.4837 0.3512,2.6074 1.0535,3.374 0.7023,0.7638 1.7558,1.1677 3.1605,1.2089 0.758,-0.0027 1.4106,-0.1126 1.9519,-0.3324 0.5443,-0.2226 0.9891,-0.5468 1.3345,-0.9727 0.3453,-0.4258 0.6028,-0.9479 0.7696,-1.5633zm-4.056 -4.3852c0.5004,0 0.8955,0.1484 1.1823,0.4397 0.2897,0.2939 0.4682,0.7308 0.5384,1.3078l-3.4941 0c0.0878,-0.577 0.281,-1.0139 0.5765,-1.3078 0.2985,-0.2913 0.6965,-0.4397 1.1969,-0.4397z"/>
  <path id="123456" class="fil1" d="M75.9141 12.8728l0 -5.127c0.0088,-1.2446 -0.3131,-2.176 -0.9657,-2.797 -0.6526,-0.6182 -1.6417,-0.9287 -2.9673,-0.9287 -1.3257,0 -2.3206,0.3105 -2.9879,0.9287 -0.6643,0.621 -0.9979,1.5524 -0.9979,2.797l0 5.127 2.3704 0 0 -5.5721c0.0088,-0.4533 0.1433,-0.7913 0.4067,-1.0166 0.2664,-0.2253 0.6556,-0.3352 1.1736,-0.3352 0.5179,0 0.9101,0.1099 1.1763,0.3352 0.2664,0.2253 0.4127,0.5633 0.4391,1.0166l0 4.4841c0,0.3462 0.0965,0.6072 0.2897,0.7858 0.1931,0.1786 0.4828,0.2775 0.8691,0.3022l1.1939 0z"/>
  <path id="1234567" class="fil1" d="M80.4678 4.7949l0 -0.4781 -1.4048 0 0 -1.3848c-0.0028,-0.195 -0.0556,-0.3764 -0.155,-0.544 -0.0995,-0.1648 -0.2341,-0.2995 -0.4038,-0.4039 -0.1698,-0.1016 -0.357,-0.1538 -0.5648,-0.1566l-1.2116 0 0 9.5286c-0.0088,0.4863 0.0937,0.8572 0.3043,1.1155 0.2137,0.261 0.5385,0.4094 0.9775,0.4506 0.439,0.0412 0.8633,0.0632 1.2759,0.0632 0.4097,0.0027 0.8047,-0.0137 1.1823,-0.0467l0 -1.665 -0.7199 0c-0.2283,0 -0.4009,-0.0495 -0.5151,-0.1429 -0.1141,-0.0962 -0.1698,-0.2363 -0.1698,-0.4176l0 -4.8303 0.2459 0c0.2195,-0.0027 0.4156,-0.0494 0.5882,-0.1428 0.1756,-0.0935 0.3131,-0.2226 0.4156,-0.3847 0.0995,-0.1621 0.1521,-0.3489 0.1551,-0.5605l0 0z"/>
 </g>
</svg>
