<?xml version="1.0" encoding="UTF-8"?>
<!DOCTYPE svg PUBLIC "-//W3C//DTD SVG 1.1//EN" "http://www.w3.org/Graphics/SVG/1.1/DTD/svg11.dtd">
<!-- Creator: CorelDRAW -->
<svg xmlns="http://www.w3.org/2000/svg" xml:space="preserve" width="42.3332mm" height="42.3332mm" style="shape-rendering:geometricPrecision; text-rendering:geometricPrecision; image-rendering:optimizeQuality; fill-rule:evenodd; clip-rule:evenodd"
viewBox="0 0 42.3332 42.3332"
 xmlns:xlink="http://www.w3.org/1999/xlink">
 <defs>
  <style type="text/css">
   <![CDATA[
    .fil0 {fill:#7FB86C}
   ]]>
  </style>
 </defs>
 <g id="Camada_x0020_1">
  <metadata id="CorelCorpID_0Corel-Layer"/>
  <path class="fil0" d="M38.4395 13.7246l0 7.442 0 7.4424c0,1.4443 -0.7351,2.6841 -2.0193,3.4062l-6.6171 3.7211 -6.6173 3.7211c-0.6417,0.3608 -1.3298,0.5414 -2.018,0.5416 0.3448,-0.5809 0.5287,-1.2524 0.5287,-1.9751l0 -7.4422 0 -7.442c0,-1.4442 -0.7351,-2.6843 -2.0192,-3.4064l-6.6172 -3.7211 -6.6172 -3.7209c-0.6426,-0.3614 -1.3317,-0.542 -2.0206,-0.5417 0.3442,-0.5804 0.8488,-1.0706 1.4906,-1.4315l6.6173 -3.7211 6.6171 -3.721c1.2842,-0.7221 2.7542,-0.7221 4.0385,0l6.6173 3.721 6.6172 3.7212c1.2842,0.7221 2.0192,1.9622 2.0192,3.4064zm-23.0278 23.6321l-2.8815 -1.6204 -6.6173 -3.721c-1.2841,-0.7221 -2.0192,-1.9622 -2.0192,-3.4064l0 -7.4422 0 -3.2407c0.6356,-0.1284 1.2941,-0.0243 1.8926,0.3123l4.4657 2.5111 4.4656 2.5112c0.8667,0.4874 1.3628,1.3242 1.3628,2.2989l0 5.0223 -0.0001 5.0224c0,0.6732 -0.2367,1.2805 -0.6686,1.7525z"/>
 </g>
</svg>
